<svg width="35" height="37" viewBox="0 0 35 37" fill="none" xmlns="http://www.w3.org/2000/svg">
<path fill-rule="evenodd" clip-rule="evenodd" d="M3.79638 4.13481L1.53527 11.3823C1.15739 12.025 0.907503 12.7347 0.79939 13.4723L0.581194 14.9227C-0.265999 20.5523 -0.186512 26.2825 0.816505 31.8864C1.01443 32.9928 1.56792 34.0044 2.39296 34.7676C3.21799 35.5309 4.26952 36.0041 5.38793 36.1155L8.01912 36.3787C14.3254 37.0033 20.6745 37.0033 26.9787 36.3787L29.6099 36.1177C30.729 36.0066 31.7812 35.5332 32.6067 34.7695C33.4322 34.0058 33.9858 32.9935 34.1834 31.8864C35.1867 26.2817 35.2659 20.553 34.4188 14.9227L34.2006 13.4723C34.0884 12.7049 33.8229 11.9679 33.4198 11.3053L31.2014 4.1455C30.9205 3.23613 30.386 2.42572 29.6609 1.80928C28.9357 1.19283 28.0498 0.795913 27.107 0.665056C20.7323 -0.221685 14.2655 -0.221685 7.89077 0.665056C6.94932 0.795062 6.06433 1.1904 5.33927 1.80484C4.61422 2.41928 4.07906 3.22743 3.79638 4.13481ZM26.6642 3.84174C20.5828 2.99298 14.4129 2.99298 8.33145 3.84174C7.99268 3.88835 7.67425 4.03066 7.41355 4.25195C7.15286 4.47324 6.96071 4.76433 6.85969 5.09102L5.78796 8.52654C5.86782 8.51513 5.9484 8.50586 6.02969 8.49873L8.12181 8.29123C14.3597 7.67087 20.6403 7.67087 26.8781 8.29123L28.9703 8.49873C29.0473 8.50586 29.1236 8.51442 29.1991 8.5244L28.136 5.09316C28.0353 4.76607 27.8433 4.47453 27.5826 4.25284C27.3219 4.03115 27.0032 3.88852 26.6642 3.84174ZM26.0567 18.5957C26.4822 18.5957 26.8903 18.4266 27.1912 18.1257C27.492 17.8249 27.6611 17.4168 27.6611 16.9913C27.6611 16.5658 27.492 16.1577 27.1912 15.8568C26.8903 15.5559 26.4822 15.3869 26.0567 15.3869H8.94325C8.51774 15.3869 8.10966 15.5559 7.80878 15.8568C7.5079 16.1577 7.33887 16.5658 7.33887 16.9913C7.33887 17.4168 7.5079 17.8249 7.80878 18.1257C8.10966 18.4266 8.51774 18.5957 8.94325 18.5957H26.0567Z" fill="#6DB32F"/>
</svg>
