<svg width="129" height="104" viewBox="0 0 129 104" fill="none" xmlns="http://www.w3.org/2000/svg">
<path d="M123.44 62.8469C123.83 60.902 124.471 59.0158 125.346 57.2354C127.737 52.3411 129.455 48.0592 127.934 42.5941C124.208 29.2467 109.053 27.6869 101.577 17.6203C90.0189 2.06464 61.6207 0.714059 48.0551 14.1572C43.8958 18.2776 41.9476 24.0983 37.7435 28.174C31.5493 34.1829 22.3522 34.9568 15.9907 40.9478C5.61929 50.7216 4.61232 67.2842 13.8184 78.2741C23.5414 89.8796 37.2654 87.9762 50.595 85.5081C57.1537 84.295 63.9723 82.9802 70.6565 83.9125C84.9124 85.9204 101.828 93.752 115.644 85.9563C123.004 81.8029 123.192 75.3249 123.022 67.7682C122.98 66.1174 123.12 64.467 123.44 62.8469Z" fill="#6DB32F"/>
<path opacity="0.6" d="M123.44 62.8469C123.83 60.902 124.471 59.0158 125.346 57.2354C127.737 52.3411 129.455 48.0592 127.934 42.5941C124.208 29.2467 109.053 27.6869 101.577 17.6203C90.0189 2.06464 61.6207 0.714059 48.0551 14.1572C43.8958 18.2776 41.9476 24.0983 37.7435 28.174C31.5493 34.1829 22.3522 34.9568 15.9907 40.9478C5.61929 50.7216 4.61232 67.2842 13.8184 78.2741C23.5414 89.8796 37.2654 87.9762 50.595 85.5081C57.1537 84.295 63.9723 82.9802 70.6565 83.9125C84.9124 85.9204 101.828 93.752 115.644 85.9563C123.004 81.8029 123.192 75.3249 123.022 67.7682C122.98 66.1174 123.12 64.467 123.44 62.8469Z" fill="white"/>
<path d="M65.3407 103.55C96.9427 103.55 122.561 98.1317 122.561 91.4483C122.561 84.7648 96.9427 79.3468 65.3407 79.3468C33.7386 79.3468 8.12012 84.7648 8.12012 91.4483C8.12012 98.1317 33.7386 103.55 65.3407 103.55Z" fill="#6DB32F"/>
<path opacity="0.3" d="M65.3407 103.55C96.9427 103.55 122.561 98.1317 122.561 91.4483C122.561 84.7648 96.9427 79.3468 65.3407 79.3468C33.7386 79.3468 8.12012 84.7648 8.12012 91.4483C8.12012 98.1317 33.7386 103.55 65.3407 103.55Z" fill="white"/>
<path d="M0.0674329 10.3654C-0.00227701 10.1133 -0.0181604 9.8493 0.0208134 9.59065C0.0597873 9.332 0.152746 9.08444 0.293651 8.86406C0.434556 8.64369 0.620252 8.45543 0.838673 8.31151C1.05709 8.1676 1.30335 8.07125 1.56144 8.02873C3.12418 7.81658 5.04249 9.91417 5.65204 11.1841C5.70284 11.2946 6.32733 13.1054 6.29745 13.1054C6.26757 13.1054 3.52756 13.1681 2.41303 12.6721C1.43595 12.2508 0.327391 11.447 0.0674329 10.3654ZM40.2025 5.5427C39.9724 6.63034 38.8848 7.464 37.9346 7.9122C36.9844 8.3604 34.7285 8.43809 34.1757 8.44706C33.8769 8.80263 33.5572 9.18809 33.2135 9.61836C32.6159 10.3833 31.9526 11.2528 31.2952 12.2448C31.1189 12.5108 30.9397 12.8006 30.7604 13.0815C31.1608 12.6721 31.7135 12.1193 31.7733 12.0715C32.8759 11.196 35.5173 10.1472 36.829 11.0197C37.0431 11.1703 37.2231 11.3642 37.3572 11.5889C37.4914 11.8136 37.5767 12.0641 37.6078 12.3239C37.6388 12.5838 37.6147 12.8473 37.5372 13.0972C37.4596 13.3472 37.3303 13.578 37.1577 13.7747C36.4496 14.6352 35.102 14.8743 34.0502 14.8325C32.9984 14.7906 30.8978 13.7896 30.4496 13.5655C30.0642 14.19 29.6817 14.8414 29.3231 15.5436C28.6555 16.8094 28.1025 18.1324 27.6708 19.4968L27.7514 19.5356C28.0711 19.1143 28.7674 18.2448 28.8331 18.182C29.8311 17.187 32.344 15.8573 33.7454 16.5775C33.9721 16.7045 34.1697 16.8774 34.3258 17.0852C34.4818 17.293 34.5928 17.531 34.6515 17.7842C34.7103 18.0373 34.7156 18.2998 34.6671 18.5551C34.6186 18.8104 34.5174 19.0528 34.3699 19.2667C33.7723 20.2019 32.4486 20.5874 31.3998 20.6591C30.2046 20.7457 27.6917 19.8015 27.5961 19.7627C27.2083 21.1295 26.9089 22.5198 26.6996 23.925C26.5383 24.9648 26.4158 26.0166 26.3022 27.0893C26.5204 26.7905 27.4347 25.6461 27.4975 25.5714C28.4955 24.5794 31.0084 23.2467 32.4068 23.9698C32.6362 24.0961 32.8365 24.2693 32.9945 24.4781C33.1526 24.6869 33.2649 24.9267 33.3241 25.1819C33.3832 25.437 33.388 25.7017 33.3381 25.9588C33.2882 26.2159 33.1846 26.4596 33.0343 26.674C32.4366 27.6062 31.113 27.9917 30.0642 28.0634C28.8839 28.1471 26.4785 27.2537 26.2813 27.167C26.2305 27.6511 26.1797 28.1321 26.1319 28.6192C25.9765 30.1998 25.8331 31.7895 25.6359 33.3522C25.5672 33.893 25.4835 34.4249 25.3999 34.9568C25.7405 34.5145 26.374 33.7227 26.4367 33.66C27.4347 32.6679 29.9476 31.3353 31.349 32.0584C31.576 32.1851 31.774 32.3579 31.9303 32.5656C32.0866 32.7734 32.1977 33.0115 32.2566 33.2648C32.3154 33.518 32.3206 33.7807 32.2718 34.0361C32.2231 34.2915 32.1215 34.5338 31.9735 34.7476C31.3759 35.6799 30.0522 36.0653 29.0034 36.14C27.9546 36.2147 25.9168 35.5066 25.3461 35.2974C25.1997 36.1938 25.0473 37.0573 24.8321 37.9089C24.7365 38.2765 24.6648 38.6559 24.5513 39.0025L24.2525 40.0454C24.0134 40.7505 23.7953 41.4049 23.5563 42.0563C23.4367 42.385 23.3202 42.6927 23.2007 43.0125C23.4786 42.5105 23.9327 41.7276 23.9806 41.6589C24.8172 40.5264 27.0971 38.8322 28.5911 39.3342C28.8371 39.4238 29.0614 39.5643 29.2494 39.7465C29.4375 39.9287 29.5849 40.1486 29.6822 40.3916C29.7795 40.6347 29.8244 40.8956 29.814 41.1572C29.8036 41.4188 29.7382 41.6753 29.6219 41.9099C29.1618 42.9258 27.9218 43.5055 26.8939 43.7356C25.7644 43.9925 23.3381 43.4995 23.0423 43.4368C22.7435 44.2166 22.4447 44.9696 22.1638 45.6718C21.2674 47.8919 20.4158 49.7086 19.8093 50.9725L19.7107 51.1757H24.13L22.6031 80.9364C22.5613 82.0367 22.094 83.0777 21.2997 83.8402C20.5054 84.6027 19.4462 85.0271 18.3451 85.024C17.2548 85.0247 16.2058 84.6064 15.415 83.8557C14.6243 83.105 14.1521 82.0791 14.0962 80.9902L12.5693 51.2295H17.3143C17.2904 51.0233 17.2665 50.8052 17.2396 50.5602C17.0812 49.1857 16.8242 47.2196 16.4119 44.883C16.2954 44.2077 16.1609 43.4935 16.0115 42.7615C15.7127 42.8003 13.2566 43.1111 12.148 42.7615C11.144 42.4627 9.94881 41.7814 9.56635 40.7356C9.46832 40.493 9.42246 40.2324 9.43174 39.9709C9.44103 39.7094 9.50526 39.4528 9.62025 39.2178C9.73524 38.9827 9.89841 38.7745 10.0992 38.6067C10.2999 38.4388 10.5338 38.3151 10.7855 38.2436C12.3123 37.8522 14.4607 39.7167 15.2107 40.9059C15.2585 40.9836 15.7217 41.9487 15.9488 42.4477C15.8591 42.0055 15.7725 41.5663 15.6709 41.1061C15.5274 40.4458 15.3721 39.7525 15.1958 39.0772C15.1002 38.7306 15.0016 38.381 14.897 38.0285C14.7924 37.6759 14.6729 37.3412 14.5623 36.9886C14.389 36.4807 14.1828 35.9637 13.9647 35.4468C13.3014 35.6321 11.3412 36.137 10.3343 35.9906C9.32731 35.8442 8.00959 35.3572 7.47473 34.3831C7.34067 34.158 7.25554 33.9072 7.22489 33.647C7.19424 33.3869 7.21876 33.1232 7.29685 32.8731C7.37494 32.623 7.50485 32.3922 7.67811 32.1957C7.85137 31.9992 8.06409 31.8415 8.30241 31.7327C9.75161 31.1142 12.157 32.6291 13.0832 33.6958C13.1131 33.7287 13.2864 33.9737 13.4866 34.2665C13.2715 33.7705 13.0593 33.2715 12.8263 32.7725C12.1629 31.3622 11.4428 29.9429 10.7347 28.5206C10.5853 28.2218 10.4359 27.923 10.2924 27.6242C9.73368 27.7825 7.60322 28.3503 6.5604 28.1979C5.51758 28.0455 4.23572 27.5644 3.70086 26.5873C3.56904 26.3623 3.48587 26.1122 3.45672 25.8531C3.42758 25.594 3.45312 25.3316 3.53168 25.083C3.61025 24.8343 3.74009 24.6049 3.91283 24.4096C4.08557 24.2142 4.29736 24.0573 4.53452 23.9489C5.98371 23.3334 8.38907 24.8453 9.31535 25.915C9.34822 25.9509 9.5544 26.2437 9.7785 26.5754C9.40201 25.7955 9.03448 25.0156 8.69384 24.2268C8.10558 22.8806 7.6065 21.4971 7.19984 20.0854C7.00561 20.1422 4.53452 20.8593 3.36023 20.683C2.3204 20.5336 1.03854 20.0495 0.503683 19.0754C0.369525 18.8506 0.28424 18.5999 0.253383 18.3399C0.222525 18.0799 0.246788 17.8163 0.324589 17.5662C0.402389 17.3162 0.531985 17.0853 0.704935 16.8887C0.877885 16.6921 1.09031 16.5341 1.32838 16.4251C2.78056 15.8095 5.18591 17.3215 6.10921 18.3882C6.17495 18.4659 6.90402 19.5296 7.15203 19.9211C7.1507 19.9041 7.1507 19.8872 7.15203 19.8703C6.78657 18.4731 6.54657 17.0462 6.4349 15.6063C6.32505 14.3216 6.28914 13.0317 6.32733 11.7428C6.35721 10.5476 6.45582 9.45402 6.55144 8.48889C6.60821 7.96599 6.66797 7.4879 6.73072 7.04269L6.70382 7.06062C6.67693 7.07854 6.15104 5.23792 6.13013 5.1184C5.89706 3.72897 6.26757 0.911271 7.66597 0.185182C7.90196 0.0714458 8.15925 0.00863514 8.42111 0.000829279C8.68296 -0.00697658 8.94353 0.0403966 9.18589 0.139874C9.42824 0.239351 9.64695 0.388705 9.82781 0.578231C10.0087 0.767756 10.1476 0.993213 10.2357 1.23995C10.642 2.2768 10.1938 3.57061 9.63806 4.47C9.08229 5.3694 7.24764 6.67516 6.79944 6.9889C6.74566 7.45204 6.69187 7.94806 6.64406 8.48291C6.56936 9.44804 6.49466 10.5387 6.49167 11.7309C6.49167 12.0506 6.49167 12.3912 6.50661 12.7229C6.61418 12.1612 6.77255 11.3962 6.80542 11.3215C7.23868 9.9829 8.86416 7.65224 10.4418 7.65523C10.7035 7.66285 10.9607 7.72548 11.1966 7.83907C11.4324 7.95266 11.6418 8.11465 11.8109 8.3145C11.98 8.51435 12.1052 8.74757 12.1782 8.99899C12.2512 9.25041 12.2704 9.51439 12.2346 9.77374C12.1211 10.8823 11.1261 11.8235 10.2267 12.3703C9.32731 12.9171 7.01159 13.2548 6.51558 13.3116C6.53948 14.0466 6.57833 14.8056 6.66797 15.5824C6.8097 17.0058 7.07768 18.4137 7.46876 19.7896H7.5584C7.59426 19.2607 7.69585 18.1521 7.71378 18.0595C8.01258 16.682 9.35719 14.1751 10.9259 14.0167C11.1868 13.9957 11.4493 14.0298 11.6962 14.1168C11.9431 14.2039 12.1688 14.342 12.3588 14.5221C12.5488 14.7022 12.6987 14.9203 12.7988 15.1622C12.8989 15.4041 12.947 15.6644 12.9398 15.9261C12.9398 17.0376 12.0643 18.0864 11.2307 18.7258C10.2685 19.4639 7.66298 20.0555 7.56437 20.0764C7.99001 21.4333 8.50405 22.7608 9.1032 24.0505C9.54244 25.0067 10.0235 25.9598 10.5165 26.91C10.5345 26.5365 10.6659 25.0814 10.6869 24.9768C10.9857 23.5993 12.3303 21.0924 13.899 20.931C14.1598 20.9104 14.4221 20.9448 14.6687 21.0321C14.9154 21.1193 15.141 21.2575 15.3309 21.4375C15.5207 21.6175 15.6707 21.8354 15.7709 22.0771C15.8712 22.3187 15.9196 22.5788 15.9129 22.8403C15.9129 23.9549 15.0344 25.0007 14.2008 25.6401C13.2625 26.3602 10.7705 26.9399 10.5584 26.9877C10.7825 27.418 11.0066 27.8513 11.2337 28.2815C11.9777 29.6889 12.7277 31.0933 13.4328 32.5036C13.6749 32.9936 13.896 33.4837 14.1201 33.9737C14.1589 33.4149 14.2546 32.405 14.2695 32.3183C14.5683 30.9409 15.9159 28.4339 17.4816 28.2726C17.7425 28.2515 18.005 28.2856 18.2519 28.3727C18.4988 28.4598 18.7245 28.5978 18.9145 28.778C19.1045 28.9581 19.2544 29.1762 19.3545 29.4181C19.4546 29.66 19.5027 29.9202 19.4955 30.1819C19.4955 31.2964 18.62 32.3423 17.7864 32.9817C16.9527 33.6211 14.8611 34.156 14.2725 34.2994C14.64 35.1241 14.9926 35.9309 15.2914 36.7556C15.4139 37.1141 15.5603 37.4697 15.6589 37.8193L15.9756 38.8621C16.1639 39.5822 16.3432 40.2485 16.5045 40.9238C16.5882 41.2645 16.6569 41.5872 16.7346 41.9159C16.6898 41.3481 16.636 40.4428 16.639 40.3591C16.7137 38.9547 17.6788 36.2805 19.2027 35.8771C19.4575 35.8167 19.7222 35.8107 19.9795 35.8595C20.2368 35.9083 20.481 36.0107 20.6961 36.1601C20.9112 36.3095 21.0924 36.5025 21.2279 36.7266C21.3634 36.9507 21.4502 37.2009 21.4826 37.4607C21.5036 37.5971 21.5126 37.7351 21.5095 37.8731C22.123 38.9477 22.4512 40.1615 22.4626 41.3989C22.4626 41.4886 22.3162 42.5493 22.2296 43.0902C22.3999 42.6718 22.5672 42.2565 22.7346 41.8202C22.9826 41.1898 23.2216 40.5175 23.4606 39.8661L23.7953 38.8292C23.9148 38.4796 23.9865 38.133 24.0941 37.7775C24.2315 37.2575 24.3451 36.7107 24.4586 36.1699C23.8043 35.9548 21.8889 35.2974 21.13 34.6191C20.371 33.9408 19.5433 32.8084 19.636 31.6998C19.6488 31.4384 19.7164 31.1826 19.8345 30.949C19.9525 30.7154 20.1183 30.5093 20.3212 30.3439C20.524 30.1785 20.7594 30.0576 21.012 29.989C21.2645 29.9205 21.5287 29.9058 21.7873 29.9459C23.3381 30.2447 24.5094 32.8233 24.6887 34.2187C24.6887 34.2635 24.7037 34.5623 24.7096 34.9179C24.8052 34.3861 24.9039 33.8512 24.9815 33.3074C25.2086 31.7656 25.3879 30.1849 25.5791 28.6042C25.618 28.2726 25.6628 27.9439 25.7017 27.6152C25.1489 27.4389 23.0692 26.7457 22.2744 26.0345C21.4796 25.3234 20.6878 24.2238 20.7804 23.1152C20.7923 22.8535 20.8593 22.5972 20.9771 22.3632C21.0948 22.1291 21.2606 21.9226 21.4637 21.757C21.6668 21.5914 21.9025 21.4706 22.1555 21.4024C22.4085 21.3342 22.673 21.3202 22.9318 21.3613C24.4825 21.6601 25.6509 24.2387 25.8331 25.6341C25.8331 25.682 25.8331 26.0405 25.854 26.4409C25.9676 25.5804 26.0931 24.7288 26.2455 23.8832C26.4934 22.4291 26.8398 20.9935 27.2823 19.5864C27.0851 19.5266 24.6319 18.7617 23.7475 17.9729C22.9616 17.2707 22.1579 16.1621 22.2535 15.0536C22.2654 14.7918 22.3324 14.5356 22.4502 14.3015C22.5679 14.0674 22.7337 13.8609 22.9368 13.6953C23.1399 13.5298 23.3756 13.4089 23.6286 13.3408C23.8816 13.2726 24.1461 13.2585 24.4049 13.2996C25.9526 13.5984 27.124 16.1771 27.3062 17.5725C27.3062 17.6711 27.3391 18.9619 27.3301 19.425C27.3301 19.4071 27.3301 19.3892 27.3451 19.3742C27.8119 18.0074 28.3989 16.6845 29.099 15.4211C29.7207 14.287 30.4071 13.1896 31.1548 12.1343C31.839 11.1512 32.5233 10.2966 33.1388 9.54366C33.4735 9.13729 33.7872 8.77275 34.083 8.4351H34.0502C34.0203 8.4351 34.597 6.60644 34.6478 6.49588C35.2215 5.21103 37.083 3.06265 38.6487 3.22997C38.9095 3.26551 39.1598 3.35586 39.3832 3.49506C39.6065 3.63427 39.7979 3.81918 39.9446 4.03764C40.0914 4.2561 40.1903 4.50316 40.2347 4.76256C40.2792 5.02197 40.2682 5.28784 40.2025 5.5427ZM22.128 43.371C21.8591 43.2425 19.7943 42.2206 18.9876 41.3452C18.2893 41.7255 17.5689 42.0638 16.8302 42.3581C17.0125 43.1708 17.1858 43.9627 17.3322 44.7067C17.7983 47.0612 18.1001 49.0393 18.2914 50.4287C18.3302 50.7275 18.3661 50.9875 18.3959 51.2295H18.5005L18.8471 50.5572C19.4716 49.3232 20.3411 47.5423 21.2913 45.361C21.5662 44.7336 21.8471 44.0643 22.128 43.371ZM30.3869 13.2817C30.4108 13.2817 30.8889 11.444 30.9068 11.3215C31.101 9.92911 30.6558 7.12038 29.2365 6.43313C28.9973 6.32594 28.7383 6.27027 28.4763 6.26976C28.2142 6.26924 27.955 6.32388 27.7154 6.43013C27.4759 6.53638 27.2614 6.69186 27.0858 6.88645C26.9103 7.08105 26.7777 7.31041 26.6967 7.55961C26.3172 8.60542 26.8012 9.88728 27.372 10.7687C28.0413 11.8175 30.3839 13.2817 30.3869 13.2817Z" fill="#6DB32F"/>
<path opacity="0.3" d="M0.0674329 10.3654C-0.00227701 10.1133 -0.0181604 9.8493 0.0208134 9.59065C0.0597873 9.332 0.152746 9.08444 0.293651 8.86406C0.434556 8.64369 0.620252 8.45543 0.838673 8.31151C1.05709 8.1676 1.30335 8.07125 1.56144 8.02873C3.12418 7.81658 5.04249 9.91417 5.65204 11.1841C5.70284 11.2946 6.32733 13.1054 6.29745 13.1054C6.26757 13.1054 3.52756 13.1681 2.41303 12.6721C1.43595 12.2508 0.327391 11.447 0.0674329 10.3654ZM40.2025 5.5427C39.9724 6.63034 38.8848 7.464 37.9346 7.9122C36.9844 8.3604 34.7285 8.43809 34.1757 8.44706C33.8769 8.80263 33.5572 9.18809 33.2135 9.61836C32.6159 10.3833 31.9526 11.2528 31.2952 12.2448C31.1189 12.5108 30.9397 12.8006 30.7604 13.0815C31.1608 12.6721 31.7135 12.1193 31.7733 12.0715C32.8759 11.196 35.5173 10.1472 36.829 11.0197C37.0431 11.1703 37.2231 11.3642 37.3572 11.5889C37.4914 11.8136 37.5767 12.0641 37.6078 12.3239C37.6388 12.5838 37.6147 12.8473 37.5372 13.0972C37.4596 13.3472 37.3303 13.578 37.1577 13.7747C36.4496 14.6352 35.102 14.8743 34.0502 14.8325C32.9984 14.7906 30.8978 13.7896 30.4496 13.5655C30.0642 14.19 29.6817 14.8414 29.3231 15.5436C28.6555 16.8094 28.1025 18.1324 27.6708 19.4968L27.7514 19.5356C28.0711 19.1143 28.7674 18.2448 28.8331 18.182C29.8311 17.187 32.344 15.8573 33.7454 16.5775C33.9721 16.7045 34.1697 16.8774 34.3258 17.0852C34.4818 17.293 34.5928 17.531 34.6515 17.7842C34.7103 18.0373 34.7156 18.2998 34.6671 18.5551C34.6186 18.8104 34.5174 19.0528 34.3699 19.2667C33.7723 20.2019 32.4486 20.5874 31.3998 20.6591C30.2046 20.7457 27.6917 19.8015 27.5961 19.7627C27.2083 21.1295 26.9089 22.5198 26.6996 23.925C26.5383 24.9648 26.4158 26.0166 26.3022 27.0893C26.5204 26.7905 27.4347 25.6461 27.4975 25.5714C28.4955 24.5794 31.0084 23.2467 32.4068 23.9698C32.6362 24.0961 32.8365 24.2693 32.9945 24.4781C33.1526 24.6869 33.2649 24.9267 33.3241 25.1819C33.3832 25.437 33.388 25.7017 33.3381 25.9588C33.2882 26.2159 33.1846 26.4596 33.0343 26.674C32.4366 27.6062 31.113 27.9917 30.0642 28.0634C28.8839 28.1471 26.4785 27.2537 26.2813 27.167C26.2305 27.6511 26.1797 28.1321 26.1319 28.6192C25.9765 30.1998 25.8331 31.7895 25.6359 33.3522C25.5672 33.893 25.4835 34.4249 25.3999 34.9568C25.7405 34.5145 26.374 33.7227 26.4367 33.66C27.4347 32.6679 29.9476 31.3353 31.349 32.0584C31.576 32.1851 31.774 32.3579 31.9303 32.5656C32.0866 32.7734 32.1977 33.0115 32.2566 33.2648C32.3154 33.518 32.3206 33.7807 32.2718 34.0361C32.2231 34.2915 32.1215 34.5338 31.9735 34.7476C31.3759 35.6799 30.0522 36.0653 29.0034 36.14C27.9546 36.2147 25.9168 35.5066 25.3461 35.2974C25.1997 36.1938 25.0473 37.0573 24.8321 37.9089C24.7365 38.2765 24.6648 38.6559 24.5513 39.0025L24.2525 40.0454C24.0134 40.7505 23.7953 41.4049 23.5563 42.0563C23.4367 42.385 23.3202 42.6927 23.2007 43.0125C23.4786 42.5105 23.9327 41.7276 23.9806 41.6589C24.8172 40.5264 27.0971 38.8322 28.5911 39.3342C28.8371 39.4238 29.0614 39.5643 29.2494 39.7465C29.4375 39.9287 29.5849 40.1486 29.6822 40.3916C29.7795 40.6347 29.8244 40.8956 29.814 41.1572C29.8036 41.4188 29.7382 41.6753 29.6219 41.9099C29.1618 42.9258 27.9218 43.5055 26.8939 43.7356C25.7644 43.9925 23.3381 43.4995 23.0423 43.4368C22.7435 44.2166 22.4447 44.9696 22.1638 45.6718C21.2674 47.8919 20.4158 49.7086 19.8093 50.9725L19.7107 51.1757H24.13L22.6031 80.9364C22.5613 82.0367 22.094 83.0777 21.2997 83.8402C20.5054 84.6027 19.4462 85.0271 18.3451 85.024C17.2548 85.0247 16.2058 84.6064 15.415 83.8557C14.6243 83.105 14.1521 82.0791 14.0962 80.9902L12.5693 51.2295H17.3143C17.2904 51.0233 17.2665 50.8052 17.2396 50.5602C17.0812 49.1857 16.8242 47.2196 16.4119 44.883C16.2954 44.2077 16.1609 43.4935 16.0115 42.7615C15.7127 42.8003 13.2566 43.1111 12.148 42.7615C11.144 42.4627 9.94881 41.7814 9.56635 40.7356C9.46832 40.493 9.42246 40.2324 9.43174 39.9709C9.44103 39.7094 9.50526 39.4528 9.62025 39.2178C9.73524 38.9827 9.89841 38.7745 10.0992 38.6067C10.2999 38.4388 10.5338 38.3151 10.7855 38.2436C12.3123 37.8522 14.4607 39.7167 15.2107 40.9059C15.2585 40.9836 15.7217 41.9487 15.9488 42.4477C15.8591 42.0055 15.7725 41.5663 15.6709 41.1061C15.5274 40.4458 15.3721 39.7525 15.1958 39.0772C15.1002 38.7306 15.0016 38.381 14.897 38.0285C14.7924 37.6759 14.6729 37.3412 14.5623 36.9886C14.389 36.4807 14.1828 35.9637 13.9647 35.4468C13.3014 35.6321 11.3412 36.137 10.3343 35.9906C9.32731 35.8442 8.00959 35.3572 7.47473 34.3831C7.34067 34.158 7.25554 33.9072 7.22489 33.647C7.19424 33.3869 7.21876 33.1232 7.29685 32.8731C7.37494 32.623 7.50485 32.3922 7.67811 32.1957C7.85137 31.9992 8.06409 31.8415 8.30241 31.7327C9.75161 31.1142 12.157 32.6291 13.0832 33.6958C13.1131 33.7287 13.2864 33.9737 13.4866 34.2665C13.2715 33.7705 13.0593 33.2715 12.8263 32.7725C12.1629 31.3622 11.4428 29.9429 10.7347 28.5206C10.5853 28.2218 10.4359 27.923 10.2924 27.6242C9.73368 27.7825 7.60322 28.3503 6.5604 28.1979C5.51758 28.0455 4.23572 27.5644 3.70086 26.5873C3.56904 26.3623 3.48587 26.1122 3.45672 25.8531C3.42758 25.594 3.45312 25.3316 3.53168 25.083C3.61025 24.8343 3.74009 24.6049 3.91283 24.4096C4.08557 24.2142 4.29736 24.0573 4.53452 23.9489C5.98371 23.3334 8.38907 24.8453 9.31535 25.915C9.34822 25.9509 9.5544 26.2437 9.7785 26.5754C9.40201 25.7955 9.03448 25.0156 8.69384 24.2268C8.10558 22.8806 7.6065 21.4971 7.19984 20.0854C7.00561 20.1422 4.53452 20.8593 3.36023 20.683C2.3204 20.5336 1.03854 20.0495 0.503683 19.0754C0.369525 18.8506 0.28424 18.5999 0.253383 18.3399C0.222525 18.0799 0.246788 17.8163 0.324589 17.5662C0.402389 17.3162 0.531985 17.0853 0.704935 16.8887C0.877885 16.6921 1.09031 16.5341 1.32838 16.4251C2.78056 15.8095 5.18591 17.3215 6.10921 18.3882C6.17495 18.4659 6.90402 19.5296 7.15203 19.9211C7.1507 19.9041 7.1507 19.8872 7.15203 19.8703C6.78657 18.4731 6.54657 17.0462 6.4349 15.6063C6.32505 14.3216 6.28914 13.0317 6.32733 11.7428C6.35721 10.5476 6.45582 9.45402 6.55144 8.48889C6.60821 7.96599 6.66797 7.4879 6.73072 7.04269L6.70382 7.06062C6.67693 7.07854 6.15104 5.23792 6.13013 5.1184C5.89706 3.72897 6.26757 0.911271 7.66597 0.185182C7.90196 0.0714458 8.15925 0.00863514 8.42111 0.000829279C8.68296 -0.00697658 8.94353 0.0403966 9.18589 0.139874C9.42824 0.239351 9.64695 0.388705 9.82781 0.578231C10.0087 0.767756 10.1476 0.993213 10.2357 1.23995C10.642 2.2768 10.1938 3.57061 9.63806 4.47C9.08229 5.3694 7.24764 6.67516 6.79944 6.9889C6.74566 7.45204 6.69187 7.94806 6.64406 8.48291C6.56936 9.44804 6.49466 10.5387 6.49167 11.7309C6.49167 12.0506 6.49167 12.3912 6.50661 12.7229C6.61418 12.1612 6.77255 11.3962 6.80542 11.3215C7.23868 9.9829 8.86416 7.65224 10.4418 7.65523C10.7035 7.66285 10.9607 7.72548 11.1966 7.83907C11.4324 7.95266 11.6418 8.11465 11.8109 8.3145C11.98 8.51435 12.1052 8.74757 12.1782 8.99899C12.2512 9.25041 12.2704 9.51439 12.2346 9.77374C12.1211 10.8823 11.1261 11.8235 10.2267 12.3703C9.32731 12.9171 7.01159 13.2548 6.51558 13.3116C6.53948 14.0466 6.57833 14.8056 6.66797 15.5824C6.8097 17.0058 7.07768 18.4137 7.46876 19.7896H7.5584C7.59426 19.2607 7.69585 18.1521 7.71378 18.0595C8.01258 16.682 9.35719 14.1751 10.9259 14.0167C11.1868 13.9957 11.4493 14.0298 11.6962 14.1168C11.9431 14.2039 12.1688 14.342 12.3588 14.5221C12.5488 14.7022 12.6987 14.9203 12.7988 15.1622C12.8989 15.4041 12.947 15.6644 12.9398 15.9261C12.9398 17.0376 12.0643 18.0864 11.2307 18.7258C10.2685 19.4639 7.66298 20.0555 7.56437 20.0764C7.99001 21.4333 8.50405 22.7608 9.1032 24.0505C9.54244 25.0067 10.0235 25.9598 10.5165 26.91C10.5345 26.5365 10.6659 25.0814 10.6869 24.9768C10.9857 23.5993 12.3303 21.0924 13.899 20.931C14.1598 20.9104 14.4221 20.9448 14.6687 21.0321C14.9154 21.1193 15.141 21.2575 15.3309 21.4375C15.5207 21.6175 15.6707 21.8354 15.7709 22.0771C15.8712 22.3187 15.9196 22.5788 15.9129 22.8403C15.9129 23.9549 15.0344 25.0007 14.2008 25.6401C13.2625 26.3602 10.7705 26.9399 10.5584 26.9877C10.7825 27.418 11.0066 27.8513 11.2337 28.2815C11.9777 29.6889 12.7277 31.0933 13.4328 32.5036C13.6749 32.9936 13.896 33.4837 14.1201 33.9737C14.1589 33.4149 14.2546 32.405 14.2695 32.3183C14.5683 30.9409 15.9159 28.4339 17.4816 28.2726C17.7425 28.2515 18.005 28.2856 18.2519 28.3727C18.4988 28.4598 18.7245 28.5978 18.9145 28.778C19.1045 28.9581 19.2544 29.1762 19.3545 29.4181C19.4546 29.66 19.5027 29.9202 19.4955 30.1819C19.4955 31.2964 18.62 32.3423 17.7864 32.9817C16.9527 33.6211 14.8611 34.156 14.2725 34.2994C14.64 35.1241 14.9926 35.9309 15.2914 36.7556C15.4139 37.1141 15.5603 37.4697 15.6589 37.8193L15.9756 38.8621C16.1639 39.5822 16.3432 40.2485 16.5045 40.9238C16.5882 41.2645 16.6569 41.5872 16.7346 41.9159C16.6898 41.3481 16.636 40.4428 16.639 40.3591C16.7137 38.9547 17.6788 36.2805 19.2027 35.8771C19.4575 35.8167 19.7222 35.8107 19.9795 35.8595C20.2368 35.9083 20.481 36.0107 20.6961 36.1601C20.9112 36.3095 21.0924 36.5025 21.2279 36.7266C21.3634 36.9507 21.4502 37.2009 21.4826 37.4607C21.5036 37.5971 21.5126 37.7351 21.5095 37.8731C22.123 38.9477 22.4512 40.1615 22.4626 41.3989C22.4626 41.4886 22.3162 42.5493 22.2296 43.0902C22.3999 42.6718 22.5672 42.2565 22.7346 41.8202C22.9826 41.1898 23.2216 40.5175 23.4606 39.8661L23.7953 38.8292C23.9148 38.4796 23.9865 38.133 24.0941 37.7775C24.2315 37.2575 24.3451 36.7107 24.4586 36.1699C23.8043 35.9548 21.8889 35.2974 21.13 34.6191C20.371 33.9408 19.5433 32.8084 19.636 31.6998C19.6488 31.4384 19.7164 31.1826 19.8345 30.949C19.9525 30.7154 20.1183 30.5093 20.3212 30.3439C20.524 30.1785 20.7594 30.0576 21.012 29.989C21.2645 29.9205 21.5287 29.9058 21.7873 29.9459C23.3381 30.2447 24.5094 32.8233 24.6887 34.2187C24.6887 34.2635 24.7037 34.5623 24.7096 34.9179C24.8052 34.3861 24.9039 33.8512 24.9815 33.3074C25.2086 31.7656 25.3879 30.1849 25.5791 28.6042C25.618 28.2726 25.6628 27.9439 25.7017 27.6152C25.1489 27.4389 23.0692 26.7457 22.2744 26.0345C21.4796 25.3234 20.6878 24.2238 20.7804 23.1152C20.7923 22.8535 20.8593 22.5972 20.9771 22.3632C21.0948 22.1291 21.2606 21.9226 21.4637 21.757C21.6668 21.5914 21.9025 21.4706 22.1555 21.4024C22.4085 21.3342 22.673 21.3202 22.9318 21.3613C24.4825 21.6601 25.6509 24.2387 25.8331 25.6341C25.8331 25.682 25.8331 26.0405 25.854 26.4409C25.9676 25.5804 26.0931 24.7288 26.2455 23.8832C26.4934 22.4291 26.8398 20.9935 27.2823 19.5864C27.0851 19.5266 24.6319 18.7617 23.7475 17.9729C22.9616 17.2707 22.1579 16.1621 22.2535 15.0536C22.2654 14.7918 22.3324 14.5356 22.4502 14.3015C22.5679 14.0674 22.7337 13.8609 22.9368 13.6953C23.1399 13.5298 23.3756 13.4089 23.6286 13.3408C23.8816 13.2726 24.1461 13.2585 24.4049 13.2996C25.9526 13.5984 27.124 16.1771 27.3062 17.5725C27.3062 17.6711 27.3391 18.9619 27.3301 19.425C27.3301 19.4071 27.3301 19.3892 27.3451 19.3742C27.8119 18.0074 28.3989 16.6845 29.099 15.4211C29.7207 14.287 30.4071 13.1896 31.1548 12.1343C31.839 11.1512 32.5233 10.2966 33.1388 9.54366C33.4735 9.13729 33.7872 8.77275 34.083 8.4351H34.0502C34.0203 8.4351 34.597 6.60644 34.6478 6.49588C35.2215 5.21103 37.083 3.06265 38.6487 3.22997C38.9095 3.26551 39.1598 3.35586 39.3832 3.49506C39.6065 3.63427 39.7979 3.81918 39.9446 4.03764C40.0914 4.2561 40.1903 4.50316 40.2347 4.76256C40.2792 5.02197 40.2682 5.28784 40.2025 5.5427ZM22.128 43.371C21.8591 43.2425 19.7943 42.2206 18.9876 41.3452C18.2893 41.7255 17.5689 42.0638 16.8302 42.3581C17.0125 43.1708 17.1858 43.9627 17.3322 44.7067C17.7983 47.0612 18.1001 49.0393 18.2914 50.4287C18.3302 50.7275 18.3661 50.9875 18.3959 51.2295H18.5005L18.8471 50.5572C19.4716 49.3232 20.3411 47.5423 21.2913 45.361C21.5662 44.7336 21.8471 44.0643 22.128 43.371ZM30.3869 13.2817C30.4108 13.2817 30.8889 11.444 30.9068 11.3215C31.101 9.92911 30.6558 7.12038 29.2365 6.43313C28.9973 6.32594 28.7383 6.27027 28.4763 6.26976C28.2142 6.26924 27.955 6.32388 27.7154 6.43013C27.4759 6.53638 27.2614 6.69186 27.0858 6.88645C26.9103 7.08105 26.7777 7.31041 26.6967 7.55961C26.3172 8.60542 26.8012 9.88728 27.372 10.7687C28.0413 11.8175 30.3839 13.2817 30.3869 13.2817Z" fill="white"/>
<path d="M31.0948 21.4659L22.4654 94.762C22.4537 94.8675 22.4718 94.9742 22.5177 95.07C22.5637 95.1658 22.6355 95.2467 22.7252 95.3037C22.8148 95.3606 22.9186 95.3913 23.0248 95.3922C23.131 95.3931 23.2353 95.3642 23.3259 95.3088L28.8717 91.8965C29.2008 91.6925 29.5964 91.6242 29.9749 91.7062C30.3533 91.7881 30.6852 92.0138 30.9005 92.3357L37.8686 102.695L40.776 59.1179L31.0948 21.4659Z" fill="#6DB32F" stroke="#2E353A" stroke-linecap="round" stroke-linejoin="round"/>
<path d="M31.0409 23.3095L23.2421 92.9303C23.2253 93.0806 23.2527 93.2325 23.3209 93.3675C23.3891 93.5024 23.4953 93.6145 23.6263 93.69C23.7573 93.7655 23.9075 93.8011 24.0585 93.7925C24.2095 93.7839 24.3546 93.7314 24.4762 93.6415L28.5309 90.6534C28.7418 90.4975 28.9823 90.3862 29.2377 90.3264C29.4931 90.2666 29.7579 90.2596 30.0161 90.3058C30.2743 90.3519 30.5204 90.4503 30.7392 90.5948C30.9581 90.7394 31.1451 90.9271 31.2889 91.1465L36.0339 98.3894C36.0853 98.4699 36.1622 98.5308 36.2522 98.5625C36.3423 98.5942 36.4404 98.5947 36.5309 98.5641C36.6213 98.5335 36.6989 98.4735 36.7513 98.3936C36.8036 98.3138 36.8277 98.2187 36.8197 98.1235L31.2799 23.3125C31.2742 23.2852 31.2593 23.2608 31.2378 23.2431C31.2163 23.2255 31.1894 23.2157 31.1616 23.2153C31.1338 23.215 31.1067 23.2241 31.0847 23.2412C31.0628 23.2583 31.0473 23.2824 31.0409 23.3095Z" fill="#6DB32F" stroke="#2E353A" stroke-linecap="round" stroke-linejoin="round"/>
<path opacity="0.6" d="M31.1486 22.2995L23.2363 92.9244C23.2194 93.0746 23.2468 93.2266 23.315 93.3615C23.3833 93.4964 23.4894 93.6085 23.6204 93.684C23.7515 93.7595 23.9017 93.7952 24.0526 93.7865C24.2036 93.7779 24.3488 93.7254 24.4703 93.6355L28.5251 90.6475C28.736 90.4915 28.9764 90.3802 29.2318 90.3204C29.4872 90.2607 29.7521 90.2536 30.0103 90.2998C30.2685 90.3459 30.5145 90.4443 30.7334 90.5889C30.9522 90.7334 31.1392 90.9211 31.283 91.1405L36.028 98.3835C36.0794 98.4639 36.1563 98.5249 36.2464 98.5565C36.3365 98.5882 36.4346 98.5888 36.525 98.5582C36.6155 98.5275 36.6931 98.4675 36.7454 98.3877C36.7978 98.3078 36.8219 98.2127 36.8138 98.1175L31.2053 22.2995C31.2034 22.2935 31.1996 22.2883 31.1945 22.2846C31.1894 22.281 31.1832 22.279 31.1769 22.279C31.1707 22.279 31.1645 22.281 31.1594 22.2846C31.1543 22.2883 31.1505 22.2935 31.1486 22.2995Z" fill="black"/>
<path d="M29.7051 90.265C30.019 90.2705 30.3268 90.3526 30.6018 90.5041C30.8767 90.6556 31.1105 90.872 31.2828 91.1345L36.0278 98.3775C36.0792 98.4579 36.1561 98.5189 36.2461 98.5505C36.3362 98.5822 36.4343 98.5828 36.5248 98.5522C36.6153 98.5216 36.6928 98.4615 36.7452 98.3817C36.7975 98.3018 36.8216 98.2067 36.8136 98.1115L36.1353 88.9563L29.6035 90.2351C29.6382 90.2419 29.6722 90.2519 29.7051 90.265Z" fill="#6DB32F" stroke="#2E353A" stroke-linecap="round" stroke-linejoin="round"/>
<path opacity="0.3" d="M29.7051 90.265C30.019 90.2705 30.3268 90.3526 30.6018 90.5041C30.8767 90.6556 31.1105 90.872 31.2828 91.1345L36.0278 98.3775C36.0792 98.4579 36.1561 98.5189 36.2461 98.5505C36.3362 98.5822 36.4343 98.5828 36.5248 98.5522C36.6153 98.5216 36.6928 98.4615 36.7452 98.3817C36.7975 98.3018 36.8216 98.2067 36.8136 98.1115L36.1353 88.9563L29.6035 90.2351C29.6382 90.2419 29.6722 90.2519 29.7051 90.265Z" fill="black"/>
<path d="M31.2715 21.421L37.866 102.695L114.763 88.0419L96.6912 24.6571L31.2715 21.421Z" fill="#2E353A" stroke="#2E353A" stroke-linecap="round" stroke-linejoin="round"/>
<path d="M34.8359 23.175L39.3658 98.3984L111.676 85.2511L96.434 26.8084L34.8359 23.175Z" fill="#6DB32F" stroke="#2E353A" stroke-linecap="round" stroke-linejoin="round"/>
<path d="M39.2549 60.1936L42.6941 95.8496L108.395 83.9035L102.29 57.104L39.2549 60.1936Z" fill="white" stroke="#2E353A" stroke-linecap="round" stroke-linejoin="round"/>
<path d="M51.9363 94.0747L50.8457 82.6217" stroke="#2E353A" stroke-linecap="round" stroke-linejoin="round"/>
<path d="M61.9912 92.3028L60.9395 82.7561" stroke="#2E353A" stroke-linecap="round" stroke-linejoin="round"/>
<path d="M71.8482 90.3935L70.6201 82.7561" stroke="#2E353A" stroke-linecap="round" stroke-linejoin="round"/>
<path d="M82.0051 88.6515L80.5439 79.547" stroke="#2E353A" stroke-linecap="round" stroke-linejoin="round"/>
<path d="M90.9511 87.0379L89.7051 78.1516" stroke="#2E353A" stroke-linecap="round" stroke-linejoin="round"/>
<path d="M99.5294 85.4513L97.6738 74.7662" stroke="#2E353A" stroke-linecap="round" stroke-linejoin="round"/>
<g style="mix-blend-mode:multiply" opacity="0.49">
<path d="M35.2002 43.9567C35.2002 43.9567 36.7181 65.8021 38.1135 73.7681C39.5089 81.7342 42.0965 93.6564 42.0965 93.6564C42.0965 93.6564 86.9168 86.7182 109.028 77.3538L107.235 68.7901L35.2002 43.9567Z" fill="#6DB32F"/>
</g>
<path d="M33.1748 22.3563L96.1234 25.7477C96.1234 25.7477 102.252 44.1091 108.35 54.4775C114.449 64.8459 124.507 64.1706 124.507 64.1706C124.507 64.1706 101.439 76.7831 83.4721 83.4972C64.7731 90.4802 48.5571 91.7351 48.5571 91.7351C48.5571 91.7351 33.7873 71.56 33.1748 22.3563Z" fill="#6DB32F" stroke="#2E353A" stroke-linecap="round" stroke-linejoin="round"/>
<path d="M40.3814 19.0874C39.2131 19.0874 38.3675 20.1242 38.1016 21.7497L39.2968 21.8155C39.482 20.8772 39.8496 20.2826 40.3784 20.2826C40.994 20.2826 41.6782 21.2716 41.6782 22.6939C41.6782 24.1162 40.994 25.1083 40.3784 25.1083C40.2199 25.1083 40.0679 25.1712 39.9559 25.2833C39.8438 25.3954 39.7808 25.5474 39.7808 25.7059C39.7808 25.8644 39.8438 26.0164 39.9559 26.1284C40.0679 26.2405 40.2199 26.3035 40.3784 26.3035C41.7768 26.3035 42.8734 24.7168 42.8734 22.6939C42.8734 20.671 41.7798 19.0874 40.3814 19.0874Z" fill="white" stroke="#2E353A" stroke-miterlimit="10"/>
<path d="M42.0971 23.6621C42.0399 23.8728 41.9659 24.0786 41.876 24.2776" stroke="#2E353A" stroke-width="0.75" stroke-linecap="round" stroke-linejoin="round"/>
<path d="M38.6934 21.2119C38.6934 21.2119 39.1416 19.5924 40.4653 19.682C41.5051 19.7537 42.3626 21.2985 42.2192 22.9509" stroke="#2E353A" stroke-width="0.75" stroke-linecap="round" stroke-linejoin="round"/>
<path d="M50.7623 19.6103C49.594 19.6103 48.7484 20.6471 48.4824 22.2726L49.6776 22.3384C49.8629 21.4001 50.2304 20.8055 50.7593 20.8055C51.3748 20.8055 52.0591 21.7945 52.0591 23.2168C52.0591 24.6391 51.3748 25.6312 50.7593 25.6312C50.6008 25.6312 50.4488 25.6941 50.3367 25.8062C50.2247 25.9183 50.1617 26.0703 50.1617 26.2288C50.1617 26.3873 50.2247 26.5393 50.3367 26.6513C50.4488 26.7634 50.6008 26.8264 50.7593 26.8264C52.1577 26.8264 53.2543 25.2397 53.2543 23.2168C53.2543 21.1939 52.1637 19.6103 50.7623 19.6103Z" fill="white" stroke="#2E353A" stroke-miterlimit="10"/>
<path d="M52.4799 24.185C52.4227 24.3957 52.3487 24.6015 52.2588 24.8005" stroke="#2E353A" stroke-width="0.75" stroke-linecap="round" stroke-linejoin="round"/>
<path d="M49.0771 21.7348C49.0771 21.7348 49.5253 20.1153 50.849 20.2049C51.8889 20.2766 52.7464 21.8214 52.603 23.4738" stroke="#2E353A" stroke-width="0.75" stroke-linecap="round" stroke-linejoin="round"/>
<path d="M61.148 20.1332C59.9797 20.1332 59.1341 21.17 58.8682 22.7955L60.0634 22.8613C60.2486 21.923 60.6162 21.3284 61.145 21.3284C61.7606 21.3284 62.4448 22.3174 62.4448 23.7397C62.4448 25.162 61.7606 26.1541 61.145 26.1541C60.9865 26.1541 60.8345 26.217 60.7225 26.3291C60.6104 26.4412 60.5474 26.5932 60.5474 26.7517C60.5474 26.9102 60.6104 27.0622 60.7225 27.1742C60.8345 27.2863 60.9865 27.3493 61.145 27.3493C62.5434 27.3493 63.64 25.7626 63.64 23.7397C63.64 21.7168 62.5464 20.1332 61.148 20.1332Z" fill="white" stroke="#2E353A" stroke-miterlimit="10"/>
<path d="M62.8637 24.7079C62.8065 24.9186 62.7325 25.1244 62.6426 25.3234" stroke="#2E353A" stroke-width="0.75" stroke-linecap="round" stroke-linejoin="round"/>
<path d="M59.46 22.2577C59.46 22.2577 59.9082 20.6382 61.2319 20.7278C62.2717 20.7995 63.1292 22.3443 62.9858 23.9967" stroke="#2E353A" stroke-width="0.75" stroke-linecap="round" stroke-linejoin="round"/>
<path d="M71.5318 20.6561C70.3635 20.6561 69.5179 21.6929 69.252 23.3184L70.4472 23.3842C70.6324 22.4459 70.9999 21.8513 71.5288 21.8513C72.1444 21.8513 72.8286 22.8403 72.8286 24.2626C72.8286 25.6849 72.1444 26.677 71.5288 26.677C71.3703 26.677 71.2183 26.7399 71.1063 26.852C70.9942 26.9641 70.9312 27.1161 70.9312 27.2746C70.9312 27.4331 70.9942 27.5851 71.1063 27.6971C71.2183 27.8092 71.3703 27.8722 71.5288 27.8722C72.9272 27.8722 74.0238 26.2855 74.0238 24.2626C74.0238 22.2398 72.9302 20.6561 71.5318 20.6561Z" fill="white" stroke="#2E353A" stroke-miterlimit="10"/>
<path d="M73.2465 25.2308C73.1893 25.4415 73.1153 25.6473 73.0254 25.8463" stroke="#2E353A" stroke-width="0.75" stroke-linecap="round" stroke-linejoin="round"/>
<path d="M69.8438 22.7806C69.8438 22.7806 70.292 21.1611 71.6156 21.2507C72.6555 21.3224 73.513 22.8672 73.3696 24.5196" stroke="#2E353A" stroke-width="0.75" stroke-linecap="round" stroke-linejoin="round"/>
<path d="M82.1031 21.1192C80.9347 21.1192 80.0891 22.1561 79.8262 23.7846L81.0214 23.8503C81.2096 22.9121 81.5772 22.3145 82.1031 22.3145C82.7186 22.3145 83.4058 23.3065 83.4058 24.7288C83.4058 26.1511 82.7186 27.1401 82.1031 27.1401C81.9446 27.1401 81.7926 27.2031 81.6805 27.3151C81.5684 27.4272 81.5054 27.5792 81.5054 27.7377C81.5054 27.8962 81.5684 28.0482 81.6805 28.1603C81.7926 28.2724 81.9446 28.3353 82.1031 28.3353C83.5044 28.3353 84.601 26.7517 84.601 24.7288C84.601 22.7059 83.5044 21.1192 82.1031 21.1192Z" fill="white" stroke="#2E353A" stroke-miterlimit="10"/>
<path d="M83.8188 25.6969C83.762 25.9068 83.6881 26.1117 83.5977 26.3094" stroke="#2E353A" stroke-width="0.75" stroke-linecap="round" stroke-linejoin="round"/>
<path d="M80.415 23.2467C80.415 23.2467 80.8662 21.6242 82.1869 21.7139C83.2298 21.7856 84.0843 23.3334 83.9439 24.9857" stroke="#2E353A" stroke-width="0.75" stroke-linecap="round" stroke-linejoin="round"/>
<path d="M92.2593 21.678C91.091 21.678 90.2454 22.7148 89.9824 24.3403L91.1776 24.4091C91.3659 23.4708 91.7334 22.8732 92.2593 22.8732C92.8748 22.8732 93.5621 23.8652 93.5621 25.2845C93.5621 26.7039 92.8748 27.6989 92.2593 27.6989C92.1008 27.6989 91.9488 27.7618 91.8367 27.8739C91.7246 27.986 91.6617 28.138 91.6617 28.2965C91.6617 28.455 91.7246 28.607 91.8367 28.719C91.9488 28.8311 92.1008 28.8941 92.2593 28.8941C93.6607 28.8941 94.7573 27.3074 94.7573 25.2845C94.7573 23.2617 93.6607 21.678 92.2593 21.678Z" fill="white" stroke="#2E353A" stroke-miterlimit="10"/>
<path d="M93.975 26.2377C93.9187 26.4488 93.8448 26.6547 93.7539 26.8533" stroke="#2E353A" stroke-width="0.75" stroke-linecap="round" stroke-linejoin="round"/>
<path d="M90.5713 23.7905C90.5713 23.7905 91.0225 22.168 92.3432 22.2577C93.386 22.3294 94.2406 23.8742 94.1001 25.5266" stroke="#2E353A" stroke-width="0.75" stroke-linecap="round" stroke-linejoin="round"/>
<path d="M106.267 54.5253C101.937 47.1628 97.3896 35.5364 95.7731 31.2576L39.5177 28.9777C39.4818 70.556 52.0673 87.7342 52.0673 87.7342C52.0673 87.7342 66.3949 86.6256 82.9186 80.4524C98.797 74.5211 117.735 64.5651 117.735 64.5651C117.735 64.5651 111.654 63.6896 106.267 54.5253Z" fill="white" stroke="#2E353A" stroke-linecap="round" stroke-linejoin="round"/>
<path d="M95.774 31.2576L39.5186 28.9777C39.5186 33.0683 39.6351 36.9169 39.8502 40.5414L99.258 39.9856C97.7192 36.3193 96.4792 33.1072 95.774 31.2576Z" fill="#2E353A" stroke="#2E353A" stroke-linecap="round" stroke-linejoin="round"/>
<path d="M96.7686 43.6519L99.4279 43.5593" stroke="#2E353A" stroke-width="3" stroke-linecap="round" stroke-linejoin="round"/>
<path d="M88.9521 43.9178L94.7758 43.7176" stroke="#2E353A" stroke-width="3" stroke-linecap="round" stroke-linejoin="round"/>
<path d="M79.4893 44.2376L86.9742 43.9836" stroke="#2E353A" stroke-width="3" stroke-linecap="round" stroke-linejoin="round"/>
<path d="M69.8613 44.5632L77.8363 44.2943" stroke="#2E353A" stroke-width="3" stroke-linecap="round" stroke-linejoin="round"/>
<path d="M60.5537 44.88L67.8654 44.632" stroke="#2E353A" stroke-width="3" stroke-linecap="round" stroke-linejoin="round"/>
<path d="M50.7471 45.2146L58.0647 44.9636" stroke="#2E353A" stroke-width="3" stroke-linecap="round" stroke-linejoin="round"/>
<path d="M42.1143 45.5075L48.924 45.2744" stroke="#2E353A" stroke-width="3" stroke-linecap="round" stroke-linejoin="round"/>
<path d="M41.0059 51.9168L102.897 48.1459" stroke="#2E353A" stroke-linecap="round" stroke-linejoin="round"/>
<path d="M50.7861 51.3849C50.7861 51.3849 51.8021 67.8429 62.6516 86.1117" stroke="#2E353A" stroke-linecap="round" stroke-linejoin="round"/>
<path d="M60.7725 50.7245C60.7725 50.7245 61.9169 69.5491 73.8122 83.3328" stroke="#2E353A" stroke-linecap="round" stroke-linejoin="round"/>
<path d="M69.8135 50.1688C69.8135 50.1688 70.4111 67.4993 83.7825 79.9534" stroke="#2E353A" stroke-linecap="round" stroke-linejoin="round"/>
<path d="M79.1875 49.7654C79.1875 49.7654 80.6636 69.0321 93.6047 75.8179" stroke="#2E353A" stroke-linecap="round" stroke-linejoin="round"/>
<path d="M89.0088 48.9915C89.0088 48.9915 90.0486 63.5641 103.286 71.5451" stroke="#2E353A" stroke-linecap="round" stroke-linejoin="round"/>
<path d="M96.7422 48.5194C96.7422 48.5194 100.304 63.4595 110.269 68.2971" stroke="#2E353A" stroke-linecap="round" stroke-linejoin="round"/>
<path d="M42.3623 60.4057L105.577 53.4526" stroke="#2E353A" stroke-linecap="round" stroke-linejoin="round"/>
<path d="M44.0117 67.8429C44.0117 67.8429 57.5086 67.314 108.517 57.9137" stroke="#2E353A" stroke-linecap="round" stroke-linejoin="round"/>
<path d="M46.3936 75.7163C46.3936 75.7163 59.5408 77.2104 111.048 60.8091" stroke="#2E353A" stroke-linecap="round" stroke-linejoin="round"/>
<path d="M49.2383 82.5858C49.2383 82.5858 60.1983 86.2162 114.036 63.1637" stroke="#2E353A" stroke-linecap="round" stroke-linejoin="round"/>
<path d="M63.8162 37.1111L43.5514 36.8392C43.3873 36.8368 43.2296 36.7748 43.1076 36.6649C42.9856 36.555 42.9076 36.4046 42.8881 36.2416L42.7148 34.6042C42.7046 34.5099 42.7146 34.4146 42.744 34.3245C42.7735 34.2344 42.8217 34.1516 42.8855 34.0816C42.9494 34.0115 43.0274 33.9558 43.1144 33.9182C43.2013 33.8805 43.2953 33.8618 43.3901 33.8631L63.4098 34.2098C63.5578 34.2124 63.7008 34.2635 63.8168 34.3552C63.9329 34.447 64.0156 34.5744 64.0522 34.7177L64.4586 36.2745C64.484 36.3729 64.4867 36.4759 64.4664 36.5755C64.4461 36.6751 64.4033 36.7688 64.3414 36.8495C64.2795 36.9301 64.2 36.9956 64.109 37.0409C64.018 37.0863 63.9179 37.1103 63.8162 37.1111Z" fill="white"/>
</svg>
