<svg width="1150" height="102" viewBox="0 0 1150 102" fill="none" xmlns="http://www.w3.org/2000/svg">
<path d="M0.4 41C0.4 34.0667 1.83333 27.9 4.7 22.5C7.63333 17.0333 11.6333 12.7667 16.7 9.7C21.8333 6.63333 27.5667 5.09999 33.9 5.09999C41.9 5.09999 48.6333 6.96666 54.1 10.7C59.5667 14.4333 63.5667 19.6667 66.1 26.4H60.9C58.9 21.0667 55.5667 16.8667 50.9 13.8C46.3 10.6667 40.6333 9.1 33.9 9.1C28.5 9.1 23.6 10.4 19.2 13C14.8 15.5333 11.3333 19.2333 8.8 24.1C6.26667 28.9 5 34.5333 5 41C5 47.4 6.26667 53 8.8 57.8C11.3333 62.5333 14.8 66.2 19.2 68.8C23.6 71.4 28.5 72.7 33.9 72.7C40.6333 72.7 46.3 71.1667 50.9 68.1C55.5667 64.9667 58.9 60.7333 60.9 55.4H66.1C63.5667 62.1333 59.5667 67.3667 54.1 71.1C48.6333 74.8333 41.9 76.7 33.9 76.7C27.5667 76.7 21.8333 75.2 16.7 72.2C11.6333 69.1333 7.63333 64.9 4.7 59.5C1.83333 54.0333 0.4 47.8667 0.4 41ZM104.053 76.8C98.9865 76.8 94.4198 75.6667 90.3531 73.4C86.2865 71.1333 83.0865 67.9 80.7531 63.7C78.4865 59.4333 77.3531 54.4667 77.3531 48.8C77.3531 43.2 78.5198 38.3 80.8531 34.1C83.1865 29.8333 86.3865 26.6 90.4531 24.4C94.5865 22.1333 99.1865 21 104.253 21C109.32 21 113.886 22.1333 117.953 24.4C122.02 26.6 125.186 29.8 127.453 34C129.786 38.2 130.953 43.1333 130.953 48.8C130.953 54.4667 129.786 59.4333 127.453 63.7C125.12 67.9 121.886 71.1333 117.753 73.4C113.686 75.6667 109.12 76.8 104.053 76.8ZM104.053 72.8C107.986 72.8 111.653 71.9333 115.053 70.2C118.52 68.4 121.286 65.7 123.353 62.1C125.42 58.5 126.453 54.0667 126.453 48.8C126.453 43.6 125.42 39.2 123.353 35.6C121.286 32 118.553 29.3333 115.153 27.6C111.753 25.8 108.086 24.9 104.153 24.9C100.22 24.9 96.5531 25.8 93.1531 27.6C89.8198 29.3333 87.1198 32 85.0531 35.6C82.9865 39.2 81.9531 43.6 81.9531 48.8C81.9531 54.0667 82.9531 58.5 84.9531 62.1C87.0198 65.7 89.7198 68.4 93.0531 70.2C96.4531 71.9333 100.12 72.8 104.053 72.8ZM169.106 20.6C175.573 20.6 180.84 22.6 184.906 26.6C188.973 30.5333 191.006 36.4 191.006 44.2V76H186.606V44.5C186.606 38.0333 184.973 33.1 181.706 29.7C178.44 26.2333 174.006 24.5 168.406 24.5C162.54 24.5 157.84 26.3667 154.306 30.1C150.84 33.8333 149.106 39.3667 149.106 46.7V76H144.606V21.7H149.106V33.2C150.64 29.1333 153.173 26.0333 156.706 23.9C160.306 21.7 164.44 20.6 169.106 20.6ZM231.511 20.6C237.911 20.6 243.144 22.6 247.211 26.6C251.278 30.5333 253.311 36.4 253.311 44.2V76H248.911V44.5C248.911 38.0333 247.278 33.1 244.011 29.7C240.744 26.2333 236.311 24.5 230.711 24.5C224.844 24.5 220.144 26.3667 216.611 30.1C213.144 33.8333 211.411 39.3667 211.411 46.7V76H206.911V2H211.411V33.2C212.944 29.1333 215.511 26.0333 219.111 23.9C222.711 21.7 226.844 20.6 231.511 20.6ZM318.116 45.2C318.116 47.6 318.049 49.4 317.916 50.6H271.016C271.149 55.4667 272.216 59.5667 274.216 62.9C276.216 66.2333 278.849 68.7333 282.116 70.4C285.382 72.0667 288.949 72.9 292.816 72.9C298.149 72.9 302.616 71.6 306.216 69C309.816 66.3333 312.082 62.7333 313.016 58.2H317.716C316.649 63.7333 313.916 68.2333 309.516 71.7C305.116 75.1 299.549 76.8 292.816 76.8C287.749 76.8 283.216 75.6667 279.216 73.4C275.216 71.1333 272.082 67.9 269.816 63.7C267.549 59.4333 266.416 54.4667 266.416 48.8C266.416 43.1333 267.516 38.2 269.716 34C271.982 29.8 275.116 26.6 279.116 24.4C283.116 22.1333 287.682 21 292.816 21C298.016 21 302.516 22.1333 306.316 24.4C310.182 26.6 313.116 29.5667 315.116 33.3C317.116 36.9667 318.116 40.9333 318.116 45.2ZM313.616 46.9C313.816 42.1 312.949 38.0333 311.016 34.7C309.149 31.3667 306.582 28.9 303.316 27.3C300.049 25.6333 296.516 24.8 292.716 24.8C288.916 24.8 285.382 25.6333 282.116 27.3C278.916 28.9 276.282 31.3667 274.216 34.7C272.216 38.0333 271.149 42.1 271.016 46.9H313.616ZM355.216 72.9C360.549 72.9 365.016 71.5667 368.616 68.9C372.282 66.2333 374.549 62.5667 375.416 57.9H380.116C379.116 63.3667 376.549 67.8333 372.416 71.3C368.349 74.7 363.116 76.5333 356.716 76.8V83.8C360.782 83.6 363.916 84.2333 366.116 85.7C368.316 87.2333 369.416 89.4667 369.416 92.4C369.416 95.2 368.416 97.4333 366.416 99.1C364.482 100.767 361.749 101.6 358.216 101.6H350.116V98.3H357.416C360.282 98.3 362.316 97.8 363.516 96.8C364.782 95.8 365.416 94.3333 365.416 92.4C365.416 88.7333 362.749 86.9 357.416 86.9H353.216V76.7C348.482 76.4333 344.282 75.1333 340.616 72.8C336.949 70.4667 334.082 67.2333 332.016 63.1C329.949 58.9667 328.916 54.2 328.916 48.8C328.916 43.1333 330.016 38.2 332.216 34C334.482 29.8 337.582 26.6 341.516 24.4C345.516 22.1333 350.082 21 355.216 21C362.016 21 367.582 22.7 371.916 26.1C376.316 29.5 379.049 34.0667 380.116 39.8H375.416C374.549 35.1333 372.282 31.4667 368.616 28.8C365.016 26.1333 360.549 24.8 355.216 24.8C351.216 24.8 347.582 25.7 344.316 27.5C341.049 29.2333 338.416 31.9333 336.416 35.6C334.482 39.2 333.516 43.6 333.516 48.8C333.516 54.0667 334.482 58.5 336.416 62.1C338.416 65.7 341.049 68.4 344.316 70.2C347.582 72 351.216 72.9 355.216 72.9ZM391.025 48.8C391.025 43.2 392.125 38.3 394.325 34.1C396.592 29.9 399.692 26.6667 403.625 24.4C407.625 22.1333 412.158 21 417.225 21C422.958 21 427.825 22.4 431.825 25.2C435.825 28 438.625 31.5667 440.225 35.9V21.7H444.725V76H440.225V61.7C438.625 66.1 435.792 69.7333 431.725 72.6C427.725 75.4 422.892 76.8 417.225 76.8C412.158 76.8 407.625 75.6667 403.625 73.4C399.692 71.0667 396.592 67.8 394.325 63.6C392.125 59.3333 391.025 54.4 391.025 48.8ZM440.225 48.8C440.225 44.0667 439.225 39.9 437.225 36.3C435.292 32.6333 432.625 29.8333 429.225 27.9C425.825 25.9 422.025 24.9 417.825 24.9C413.425 24.9 409.558 25.8667 406.225 27.8C402.892 29.6667 400.292 32.4 398.425 36C396.558 39.6 395.625 43.8667 395.625 48.8C395.625 53.7333 396.558 58 398.425 61.6C400.292 65.2 402.892 67.9667 406.225 69.9C409.625 71.8333 413.492 72.8 417.825 72.8C422.025 72.8 425.825 71.8333 429.225 69.9C432.692 67.9 435.392 65.1 437.325 61.5C439.258 57.8333 440.225 53.6 440.225 48.8ZM513.833 20.6C520.299 20.6 525.566 22.6 529.633 26.6C533.699 30.5333 535.733 36.4 535.733 44.2V76H531.333V44.5C531.333 38.0333 529.699 33.1 526.433 29.7C523.166 26.2333 518.733 24.5 513.133 24.5C507.266 24.5 502.566 26.3667 499.033 30.1C495.566 33.8333 493.833 39.3667 493.833 46.7V76H489.333V21.7H493.833V33.2C495.366 29.1333 497.899 26.0333 501.433 23.9C505.033 21.7 509.166 20.6 513.833 20.6ZM575.538 76.8C570.471 76.8 565.904 75.6667 561.838 73.4C557.771 71.1333 554.571 67.9 552.238 63.7C549.971 59.4333 548.838 54.4667 548.838 48.8C548.838 43.2 550.004 38.3 552.338 34.1C554.671 29.8333 557.871 26.6 561.938 24.4C566.071 22.1333 570.671 21 575.738 21C580.804 21 585.371 22.1333 589.438 24.4C593.504 26.6 596.671 29.8 598.938 34C601.271 38.2 602.438 43.1333 602.438 48.8C602.438 54.4667 601.271 59.4333 598.938 63.7C596.604 67.9 593.371 71.1333 589.238 73.4C585.171 75.6667 580.604 76.8 575.538 76.8ZM575.538 72.8C579.471 72.8 583.138 71.9333 586.538 70.2C590.004 68.4 592.771 65.7 594.837 62.1C596.904 58.5 597.938 54.0667 597.938 48.8C597.938 43.6 596.904 39.2 594.837 35.6C592.771 32 590.038 29.3333 586.638 27.6C583.238 25.8 579.571 24.9 575.638 24.9C571.704 24.9 568.038 25.8 564.638 27.6C561.304 29.3333 558.604 32 556.538 35.6C554.471 39.2 553.438 43.6 553.438 48.8C553.438 54.0667 554.438 58.5 556.438 62.1C558.504 65.7 561.204 68.4 564.538 70.2C567.938 71.9333 571.604 72.8 575.538 72.8ZM634.191 76.8C628.124 76.8 623.157 75.4667 619.291 72.8C615.491 70.1333 613.357 66.3333 612.891 61.4H617.491C617.824 64.9333 619.424 67.7333 622.291 69.8C625.224 71.8667 629.191 72.9 634.191 72.9C638.324 72.9 641.591 71.8667 643.991 69.8C646.457 67.6667 647.691 65.0667 647.691 62C647.691 59.8667 647.024 58.1333 645.691 56.8C644.424 55.4 642.824 54.3333 640.891 53.6C638.957 52.8667 636.324 52.0667 632.991 51.2C628.991 50.1333 625.757 49.1 623.291 48.1C620.824 47.0333 618.724 45.4667 616.991 43.4C615.257 41.3333 614.391 38.5667 614.391 35.1C614.391 32.5667 615.157 30.2333 616.691 28.1C618.224 25.9 620.357 24.1667 623.091 22.9C625.824 21.6333 628.924 21 632.391 21C638.057 21 642.624 22.4333 646.091 25.3C649.624 28.1 651.524 32 651.791 37H647.291C647.091 33.4 645.691 30.4667 643.091 28.2C640.491 25.9333 636.891 24.8 632.291 24.8C628.424 24.8 625.224 25.8 622.691 27.8C620.157 29.8 618.891 32.2333 618.891 35.1C618.891 37.6333 619.591 39.7 620.991 41.3C622.457 42.8333 624.224 44.0333 626.291 44.9C628.424 45.7 631.224 46.5667 634.691 47.5C638.491 48.5 641.524 49.5 643.791 50.5C646.124 51.4333 648.091 52.8333 649.691 54.7C651.291 56.5 652.091 58.9333 652.091 62C652.091 64.8 651.324 67.3333 649.791 69.6C648.257 71.8667 646.124 73.6333 643.391 74.9C640.657 76.1667 637.591 76.8 634.191 76.8ZM683.898 76.8C677.831 76.8 672.864 75.4667 668.998 72.8C665.198 70.1333 663.064 66.3333 662.598 61.4H667.198C667.531 64.9333 669.131 67.7333 671.998 69.8C674.931 71.8667 678.898 72.9 683.898 72.9C688.031 72.9 691.298 71.8667 693.698 69.8C696.164 67.6667 697.398 65.0667 697.398 62C697.398 59.8667 696.731 58.1333 695.398 56.8C694.131 55.4 692.531 54.3333 690.598 53.6C688.664 52.8667 686.031 52.0667 682.698 51.2C678.698 50.1333 675.464 49.1 672.998 48.1C670.531 47.0333 668.431 45.4667 666.698 43.4C664.964 41.3333 664.098 38.5667 664.098 35.1C664.098 32.5667 664.864 30.2333 666.398 28.1C667.931 25.9 670.064 24.1667 672.798 22.9C675.531 21.6333 678.631 21 682.098 21C687.764 21 692.331 22.4333 695.798 25.3C699.331 28.1 701.231 32 701.498 37H696.998C696.798 33.4 695.398 30.4667 692.798 28.2C690.198 25.9333 686.598 24.8 681.998 24.8C678.131 24.8 674.931 25.8 672.398 27.8C669.864 29.8 668.598 32.2333 668.598 35.1C668.598 37.6333 669.298 39.7 670.698 41.3C672.164 42.8333 673.931 44.0333 675.998 44.9C678.131 45.7 680.931 46.5667 684.398 47.5C688.198 48.5 691.231 49.5 693.498 50.5C695.831 51.4333 697.798 52.8333 699.398 54.7C700.998 56.5 701.798 58.9333 701.798 62C701.798 64.8 701.031 67.3333 699.498 69.6C697.964 71.8667 695.831 73.6333 693.098 74.9C690.364 76.1667 687.298 76.8 683.898 76.8ZM712.705 48.8C712.705 43.2 713.805 38.3 716.005 34.1C718.271 29.9 721.371 26.6667 725.305 24.4C729.305 22.1333 733.838 21 738.905 21C744.638 21 749.505 22.4 753.505 25.2C757.505 28 760.305 31.5667 761.905 35.9V21.7H766.405V76H761.905V61.7C760.305 66.1 757.471 69.7333 753.405 72.6C749.405 75.4 744.571 76.8 738.905 76.8C733.838 76.8 729.305 75.6667 725.305 73.4C721.371 71.0667 718.271 67.8 716.005 63.6C713.805 59.3333 712.705 54.4 712.705 48.8ZM761.905 48.8C761.905 44.0667 760.905 39.9 758.905 36.3C756.971 32.6333 754.305 29.8333 750.905 27.9C747.505 25.9 743.705 24.9 739.505 24.9C735.105 24.9 731.238 25.8667 727.905 27.8C724.571 29.6667 721.971 32.4 720.105 36C718.238 39.6 717.305 43.8667 717.305 48.8C717.305 53.7333 718.238 58 720.105 61.6C721.971 65.2 724.571 67.9667 727.905 69.9C731.305 71.8333 735.171 72.8 739.505 72.8C743.705 72.8 747.505 71.8333 750.905 69.9C754.371 67.9 757.071 65.1 759.005 61.5C760.938 57.8333 761.905 53.6 761.905 48.8ZM835.613 20.6C842.013 20.6 847.246 22.6 851.313 26.6C855.379 30.5333 857.413 36.4 857.413 44.2V76H853.013V44.5C853.013 38.0333 851.379 33.1 848.113 29.7C844.846 26.2333 840.413 24.5 834.813 24.5C828.946 24.5 824.246 26.3667 820.713 30.1C817.246 33.8333 815.513 39.3667 815.513 46.7V76H811.013V2H815.513V33.2C817.046 29.1333 819.613 26.0333 823.213 23.9C826.813 21.7 830.946 20.6 835.613 20.6ZM875.617 9.6C874.551 9.6 873.651 9.26666 872.917 8.6C872.184 7.86666 871.817 6.9 871.817 5.7C871.817 4.56666 872.184 3.63333 872.917 2.9C873.651 2.16666 874.551 1.8 875.617 1.8C876.684 1.8 877.584 2.16666 878.317 2.9C879.051 3.63333 879.417 4.56666 879.417 5.7C879.417 6.9 879.051 7.86666 878.317 8.6C877.584 9.26666 876.684 9.6 875.617 9.6ZM877.817 21.7V76H873.317V21.7H877.817ZM912.413 76.8C906.347 76.8 901.38 75.4667 897.513 72.8C893.713 70.1333 891.58 66.3333 891.113 61.4H895.713C896.047 64.9333 897.647 67.7333 900.513 69.8C903.447 71.8667 907.413 72.9 912.413 72.9C916.547 72.9 919.813 71.8667 922.213 69.8C924.68 67.6667 925.913 65.0667 925.913 62C925.913 59.8667 925.247 58.1333 923.913 56.8C922.647 55.4 921.047 54.3333 919.113 53.6C917.18 52.8667 914.547 52.0667 911.213 51.2C907.213 50.1333 903.98 49.1 901.513 48.1C899.047 47.0333 896.947 45.4667 895.213 43.4C893.48 41.3333 892.613 38.5667 892.613 35.1C892.613 32.5667 893.38 30.2333 894.913 28.1C896.447 25.9 898.58 24.1667 901.313 22.9C904.047 21.6333 907.147 21 910.613 21C916.28 21 920.847 22.4333 924.313 25.3C927.847 28.1 929.747 32 930.013 37H925.513C925.313 33.4 923.913 30.4667 921.313 28.2C918.713 25.9333 915.113 24.8 910.513 24.8C906.647 24.8 903.447 25.8 900.913 27.8C898.38 29.8 897.113 32.2333 897.113 35.1C897.113 37.6333 897.813 39.7 899.213 41.3C900.68 42.8333 902.447 44.0333 904.513 44.9C906.647 45.7 909.447 46.5667 912.913 47.5C916.713 48.5 919.747 49.5 922.013 50.5C924.347 51.4333 926.313 52.8333 927.913 54.7C929.513 56.5 930.313 58.9333 930.313 62C930.313 64.8 929.547 67.3333 928.013 69.6C926.48 71.8667 924.347 73.6333 921.613 74.9C918.88 76.1667 915.813 76.8 912.413 76.8ZM950.72 25.6V61.5C950.72 65.5 951.454 68.2667 952.92 69.8C954.387 71.2667 956.987 72 960.72 72H966.82V76H960.02C955.287 76 951.787 74.9 949.52 72.7C947.32 70.4333 946.22 66.7 946.22 61.5V25.6H938.02V21.7H946.22V7.89999H950.72V21.7H966.82V25.6H950.72ZM1002.59 76.8C997.522 76.8 992.955 75.6667 988.888 73.4C984.822 71.1333 981.622 67.9 979.288 63.7C977.022 59.4333 975.888 54.4667 975.888 48.8C975.888 43.2 977.055 38.3 979.388 34.1C981.722 29.8333 984.922 26.6 988.988 24.4C993.122 22.1333 997.722 21 1002.79 21C1007.85 21 1012.42 22.1333 1016.49 24.4C1020.55 26.6 1023.72 29.8 1025.99 34C1028.32 38.2 1029.49 43.1333 1029.49 48.8C1029.49 54.4667 1028.32 59.4333 1025.99 63.7C1023.65 67.9 1020.42 71.1333 1016.29 73.4C1012.22 75.6667 1007.65 76.8 1002.59 76.8ZM1002.59 72.8C1006.52 72.8 1010.19 71.9333 1013.59 70.2C1017.05 68.4 1019.82 65.7 1021.89 62.1C1023.95 58.5 1024.99 54.0667 1024.99 48.8C1024.99 43.6 1023.95 39.2 1021.89 35.6C1019.82 32 1017.09 29.3333 1013.69 27.6C1010.29 25.8 1006.62 24.9 1002.69 24.9C998.755 24.9 995.088 25.8 991.688 27.6C988.355 29.3333 985.655 32 983.588 35.6C981.522 39.2 980.488 43.6 980.488 48.8C980.488 54.0667 981.488 58.5 983.488 62.1C985.555 65.7 988.255 68.4 991.588 70.2C994.988 71.9333 998.655 72.8 1002.59 72.8ZM1011.59 4.69999L991.988 17.1V13.4L1011.59 0.299997V4.69999ZM1047.64 32.9C1048.97 28.9 1051.34 25.8667 1054.74 23.8C1058.14 21.6667 1062.47 20.6 1067.74 20.6V25.3H1066.24C1060.91 25.3 1056.47 26.8333 1052.94 29.9C1049.41 32.9 1047.64 37.8333 1047.64 44.7V76H1043.14V21.7H1047.64V32.9ZM1080.4 9.6C1079.34 9.6 1078.44 9.26666 1077.7 8.6C1076.97 7.86666 1076.6 6.9 1076.6 5.7C1076.6 4.56666 1076.97 3.63333 1077.7 2.9C1078.44 2.16666 1079.34 1.8 1080.4 1.8C1081.47 1.8 1082.37 2.16666 1083.1 2.9C1083.84 3.63333 1084.2 4.56666 1084.2 5.7C1084.2 6.9 1083.84 7.86666 1083.1 8.6C1082.37 9.26666 1081.47 9.6 1080.4 9.6ZM1082.6 21.7V76H1078.1V21.7H1082.6ZM1096.3 48.8C1096.3 43.2 1097.4 38.3 1099.6 34.1C1101.87 29.9 1104.97 26.6667 1108.9 24.4C1112.9 22.1333 1117.43 21 1122.5 21C1128.23 21 1133.1 22.4 1137.1 25.2C1141.1 28 1143.9 31.5667 1145.5 35.9V21.7H1150V76H1145.5V61.7C1143.9 66.1 1141.07 69.7333 1137 72.6C1133 75.4 1128.17 76.8 1122.5 76.8C1117.43 76.8 1112.9 75.6667 1108.9 73.4C1104.97 71.0667 1101.87 67.8 1099.6 63.6C1097.4 59.3333 1096.3 54.4 1096.3 48.8ZM1145.5 48.8C1145.5 44.0667 1144.5 39.9 1142.5 36.3C1140.57 32.6333 1137.9 29.8333 1134.5 27.9C1131.1 25.9 1127.3 24.9 1123.1 24.9C1118.7 24.9 1114.83 25.8667 1111.5 27.8C1108.17 29.6667 1105.57 32.4 1103.7 36C1101.83 39.6 1100.9 43.8667 1100.9 48.8C1100.9 53.7333 1101.83 58 1103.7 61.6C1105.57 65.2 1108.17 67.9667 1111.5 69.9C1114.9 71.8333 1118.77 72.8 1123.1 72.8C1127.3 72.8 1131.1 71.8333 1134.5 69.9C1137.97 67.9 1140.67 65.1 1142.6 61.5C1144.53 57.8333 1145.5 53.6 1145.5 48.8Z" fill="#C5C5C5"/>
</svg>
