<svg width="458" height="188" viewBox="0 0 458 188" fill="none" xmlns="http://www.w3.org/2000/svg">
<rect y="11.123" width="458" height="176" rx="6" fill="#6DB32F"/>
<path d="M310.888 118.49C310.888 118.49 332.529 94.1676 325.65 51.8478C318.771 9.52798 283.431 -6.06398 259.995 2.08145C236.558 10.2269 231.272 24.4041 212.13 32.5114C192.989 40.6187 156.616 35.0529 138.428 62.2848C120.239 89.5167 143.46 134.641 173.021 162.936C202.583 191.231 278.018 173.517 310.888 118.49Z" fill="#6DB32F"/>
<path opacity="0.7" d="M310.888 118.49C310.888 118.49 332.529 94.1676 325.65 51.8478C318.771 9.52798 283.431 -6.06398 259.995 2.08145C236.558 10.2269 231.272 24.4041 212.13 32.5114C192.989 40.6187 156.616 35.0529 138.428 62.2848C120.239 89.5167 143.46 134.641 173.021 162.936C202.583 191.231 278.018 173.517 310.888 118.49Z" fill="white"/>
<path d="M151.698 186.821H321.194" stroke="#263238" stroke-miterlimit="10"/>
<path d="M177.998 122.442L184.725 186.737" stroke="#263238" stroke-width="2" stroke-miterlimit="10"/>
<path d="M183.53 173.546L180.54 170.386" stroke="#263238" stroke-width="2" stroke-miterlimit="10"/>
<path d="M181.451 171.335C181.445 170.851 181.336 170.374 181.131 169.936C180.926 169.497 180.629 169.108 180.26 168.794C179.494 168.108 175.453 166.409 175.072 167.832C174.652 169.383 178.786 172.424 181.451 171.335Z" fill="#6DB32F" stroke="#263238" stroke-miterlimit="10"/>
<path d="M181.451 171.335L177.604 168.938" stroke="#263238" stroke-width="0.5" stroke-miterlimit="10"/>
<path d="M184.28 180.734L181.294 177.575" stroke="#263238" stroke-width="2" stroke-miterlimit="10"/>
<path d="M182.2 178.523C182.195 178.039 182.086 177.562 181.881 177.124C181.675 176.685 181.378 176.296 181.01 175.982C180.243 175.296 176.202 173.597 175.821 175.02C175.402 176.571 179.536 179.608 182.2 178.523Z" fill="#6DB32F" stroke="#263238" stroke-miterlimit="10"/>
<path d="M182.2 178.523L178.354 176.126" stroke="#263238" stroke-width="0.5" stroke-miterlimit="10"/>
<path d="M181.701 156.006L178.71 152.85" stroke="#263238" stroke-width="2" stroke-miterlimit="10"/>
<path d="M179.621 153.795C179.615 153.311 179.506 152.834 179.301 152.395C179.096 151.957 178.799 151.567 178.431 151.253C177.664 150.571 173.623 148.869 173.242 150.292C172.822 151.846 176.957 154.884 179.621 153.795Z" fill="#6DB32F" stroke="#263238" stroke-miterlimit="10"/>
<path d="M179.621 153.795L175.775 151.402" stroke="#263238" stroke-width="0.5" stroke-miterlimit="10"/>
<path d="M182.45 163.194L179.46 160.038" stroke="#263238" stroke-width="2" stroke-miterlimit="10"/>
<path d="M180.371 160.983C180.365 160.499 180.256 160.022 180.051 159.583C179.846 159.145 179.549 158.756 179.18 158.442C178.414 157.755 174.373 156.057 173.991 157.48C173.572 159.03 177.715 162.072 180.371 160.983Z" fill="#6DB32F" stroke="#263238" stroke-miterlimit="10"/>
<path d="M180.37 160.983L176.524 158.586" stroke="#263238" stroke-width="0.5" stroke-miterlimit="10"/>
<path d="M180.485 144.332L177.494 141.172" stroke="#263238" stroke-width="2" stroke-miterlimit="10"/>
<path d="M178.401 142.121C178.395 141.637 178.286 141.16 178.081 140.721C177.876 140.283 177.579 139.894 177.211 139.58C176.444 138.893 172.403 137.195 172.022 138.618C171.607 140.168 175.741 143.21 178.401 142.121Z" fill="#6DB32F" stroke="#263238" stroke-miterlimit="10"/>
<path d="M178.401 142.121L174.555 139.724" stroke="#263238" stroke-width="0.5" stroke-miterlimit="10"/>
<path d="M179.261 132.607L176.271 129.448" stroke="#263238" stroke-width="2" stroke-miterlimit="10"/>
<path d="M177.177 130.379C177.171 129.895 177.062 129.418 176.857 128.98C176.652 128.541 176.355 128.152 175.986 127.838C175.22 127.152 171.183 125.453 170.798 126.876C170.382 128.444 174.517 131.481 177.177 130.379Z" fill="#6DB32F" stroke="#263238" stroke-miterlimit="10"/>
<path d="M177.177 130.392L173.331 127.999" stroke="#263238" stroke-width="0.5" stroke-miterlimit="10"/>
<path d="M183.03 169.294L185.301 165.587" stroke="#263238" stroke-width="2" stroke-miterlimit="10"/>
<path d="M184.61 166.701C184.516 166.227 184.525 165.739 184.635 165.268C184.745 164.798 184.955 164.356 185.25 163.974C185.86 163.126 189.46 160.648 190.13 161.962C190.846 163.389 187.457 167.231 184.61 166.701Z" fill="#6DB32F" stroke="#263238" stroke-miterlimit="10"/>
<path d="M184.61 166.701L188.071 163.389" stroke="#263238" stroke-width="0.5" stroke-miterlimit="10"/>
<path d="M181.057 150.381L183.327 146.674" stroke="#263238" stroke-width="2" stroke-miterlimit="10"/>
<path d="M182.636 147.784C182.543 147.311 182.552 146.823 182.662 146.353C182.772 145.884 182.982 145.443 183.276 145.061C183.886 144.213 187.486 141.731 188.156 143.044C188.884 144.472 185.466 148.301 182.636 147.784Z" fill="#6DB32F" stroke="#263238" stroke-miterlimit="10"/>
<path d="M182.637 147.784L186.097 144.476" stroke="#263238" stroke-width="0.5" stroke-miterlimit="10"/>
<path d="M180.188 142.066L182.463 138.36" stroke="#263238" stroke-width="2" stroke-miterlimit="10"/>
<path d="M181.768 139.474C181.674 139 181.683 138.511 181.793 138.041C181.903 137.57 182.113 137.129 182.408 136.746C183.018 135.92 186.618 133.421 187.288 134.734C188.016 136.161 184.598 139.99 181.768 139.474Z" fill="#6DB32F" stroke="#263238" stroke-miterlimit="10"/>
<path d="M181.768 139.474L185.229 136.166" stroke="#263238" stroke-width="0.5" stroke-miterlimit="10"/>
<path d="M178.918 129.884L181.188 126.177" stroke="#263238" stroke-width="2" stroke-miterlimit="10"/>
<path d="M180.497 127.287C180.403 126.813 180.412 126.325 180.522 125.854C180.632 125.384 180.842 124.942 181.137 124.559C181.747 123.733 185.347 121.234 186.017 122.547C186.745 123.975 183.327 127.804 180.497 127.287Z" fill="#6DB32F" stroke="#263238" stroke-miterlimit="10"/>
<path d="M180.498 127.287L183.958 123.979" stroke="#263238" stroke-width="0.5" stroke-miterlimit="10"/>
<path d="M177.943 122.09C177.85 121.617 177.859 121.129 177.969 120.659C178.079 120.189 178.289 119.749 178.583 119.366C179.193 118.519 182.793 116.037 183.463 117.35C184.191 118.778 180.773 122.607 177.943 122.09Z" fill="#6DB32F" stroke="#263238" stroke-miterlimit="10"/>
<path d="M177.943 122.09L181.408 118.782" stroke="#263238" stroke-width="0.5" stroke-miterlimit="10"/>
<path d="M178.138 122.234C177.657 122.278 177.171 122.218 176.714 122.059C176.258 121.9 175.841 121.644 175.491 121.311C174.728 120.62 172.623 116.774 174 116.249C175.503 115.673 178.951 119.476 178.138 122.234Z" fill="#6DB32F" stroke="#263238" stroke-miterlimit="10"/>
<path d="M178.147 122.234L175.215 118.443" stroke="#263238" stroke-width="0.5" stroke-miterlimit="10"/>
<path d="M195.395 131.146L189.833 186.737" stroke="#263238" stroke-width="2" stroke-miterlimit="10"/>
<path d="M190.287 182.293L188.012 178.587" stroke="#263238" stroke-width="2" stroke-miterlimit="10"/>
<path d="M188.728 179.701C188.821 179.227 188.812 178.738 188.701 178.267C188.59 177.797 188.38 177.356 188.084 176.973C187.474 176.147 183.874 173.652 183.204 174.965C182.455 176.393 185.877 180.218 188.728 179.701Z" fill="#6DB32F" stroke="#263238" stroke-miterlimit="10"/>
<path d="M188.707 179.701L185.437 176.562" stroke="#263238" stroke-width="0.5" stroke-miterlimit="10"/>
<path d="M192.108 164.753L189.833 161.047" stroke="#263238" stroke-width="2" stroke-miterlimit="10"/>
<path d="M190.524 162.148C190.618 161.674 190.609 161.185 190.499 160.715C190.389 160.244 190.179 159.803 189.884 159.42C189.274 158.594 185.669 156.099 185.004 157.412C184.276 158.852 187.694 162.677 190.524 162.148Z" fill="#6DB32F" stroke="#263238" stroke-miterlimit="10"/>
<path d="M190.524 162.161L187.258 159.026" stroke="#263238" stroke-width="0.5" stroke-miterlimit="10"/>
<path d="M191.362 171.941L189.083 168.235" stroke="#263238" stroke-width="2" stroke-miterlimit="10"/>
<path d="M189.778 169.349C189.872 168.875 189.864 168.386 189.753 167.916C189.643 167.445 189.433 167.004 189.139 166.621C188.529 165.795 184.924 163.3 184.255 164.613C183.53 166.041 186.949 169.865 189.778 169.349Z" fill="#6DB32F" stroke="#263238" stroke-miterlimit="10"/>
<path d="M189.778 169.349L186.508 166.214" stroke="#263238" stroke-width="0.5" stroke-miterlimit="10"/>
<path d="M193.319 153.079L191.044 149.373" stroke="#263238" stroke-width="2" stroke-miterlimit="10"/>
<path d="M191.735 150.487C191.829 150.013 191.821 149.524 191.71 149.054C191.6 148.583 191.39 148.142 191.095 147.759C190.485 146.912 186.86 144.434 186.216 145.747C185.487 147.174 188.905 150.999 191.735 150.487Z" fill="#6DB32F" stroke="#263238" stroke-miterlimit="10"/>
<path d="M191.735 150.487L188.469 147.348" stroke="#263238" stroke-width="0.5" stroke-miterlimit="10"/>
<path d="M194.535 141.35L192.26 137.644" stroke="#263238" stroke-width="2" stroke-miterlimit="10"/>
<path d="M192.963 138.758C193.057 138.284 193.048 137.795 192.937 137.324C192.826 136.854 192.615 136.412 192.32 136.03C191.71 135.204 188.109 132.709 187.44 134.022C186.703 135.462 190.125 139.275 192.963 138.758Z" fill="#6DB32F" stroke="#263238" stroke-miterlimit="10"/>
<path d="M192.955 138.758L189.685 135.623" stroke="#263238" stroke-width="0.5" stroke-miterlimit="10"/>
<path d="M190.672 178.028L193.658 174.868" stroke="#263238" stroke-width="2" stroke-miterlimit="10"/>
<path d="M192.752 175.817C192.757 175.333 192.865 174.856 193.07 174.418C193.274 173.979 193.57 173.59 193.938 173.275C194.705 172.589 198.746 170.886 199.131 172.31C199.546 173.86 195.416 176.901 192.752 175.817Z" fill="#6DB32F" stroke="#263238" stroke-miterlimit="10"/>
<path d="M192.752 175.817L196.823 173.292" stroke="#263238" stroke-width="0.5" stroke-miterlimit="10"/>
<path d="M192.633 159.115L195.624 155.955" stroke="#263238" stroke-width="2" stroke-miterlimit="10"/>
<path d="M194.713 156.9C194.718 156.416 194.827 155.938 195.033 155.5C195.238 155.062 195.535 154.672 195.903 154.358C196.67 153.672 200.707 151.973 201.092 153.392C201.511 154.947 197.377 157.988 194.713 156.9Z" fill="#6DB32F" stroke="#263238" stroke-miterlimit="10"/>
<path d="M194.713 156.9L198.783 154.375" stroke="#263238" stroke-width="0.5" stroke-miterlimit="10"/>
<path d="M193.497 150.8L196.483 147.64" stroke="#263238" stroke-width="2" stroke-miterlimit="10"/>
<path d="M195.577 148.593C195.582 148.11 195.69 147.632 195.895 147.194C196.099 146.756 196.395 146.366 196.763 146.052C197.53 145.366 201.571 143.663 201.956 145.086C202.371 146.632 198.241 149.673 195.577 148.593Z" fill="#6DB32F" stroke="#263238" stroke-miterlimit="10"/>
<path d="M195.577 148.589L199.648 146.065" stroke="#263238" stroke-width="0.5" stroke-miterlimit="10"/>
<path d="M194.76 138.614L197.75 135.454" stroke="#263238" stroke-width="2" stroke-miterlimit="10"/>
<path d="M196.839 136.403C196.845 135.919 196.954 135.441 197.159 135.003C197.364 134.565 197.661 134.175 198.03 133.861C198.796 133.175 202.833 131.472 203.218 132.896C203.638 134.446 199.504 137.487 196.839 136.403Z" fill="#6DB32F" stroke="#263238" stroke-miterlimit="10"/>
<path d="M196.839 136.403L200.91 133.878" stroke="#263238" stroke-width="0.5" stroke-miterlimit="10"/>
<path d="M195.412 130.803C195.417 130.319 195.526 129.842 195.732 129.403C195.937 128.965 196.234 128.575 196.602 128.261C197.369 127.575 201.406 125.877 201.791 127.3C202.21 128.838 198.076 131.879 195.412 130.803Z" fill="#6DB32F" stroke="#263238" stroke-miterlimit="10"/>
<path d="M195.412 130.79L199.482 128.266" stroke="#263238" stroke-width="0.5" stroke-miterlimit="10"/>
<path d="M195.581 130.972C195.102 130.916 194.639 130.757 194.226 130.507C193.812 130.258 193.457 129.922 193.184 129.524C192.578 128.677 191.312 124.496 192.76 124.263C194.349 124.026 196.941 128.439 195.581 130.972Z" fill="#6DB32F" stroke="#263238" stroke-miterlimit="10"/>
<path d="M195.581 130.972L193.493 126.66" stroke="#263238" stroke-width="0.5" stroke-miterlimit="10"/>
<path d="M187.88 105.409L187.469 186.834" stroke="#263238" stroke-width="2" stroke-miterlimit="10"/>
<path d="M187.944 173.318L185.297 169.866" stroke="#263238" stroke-width="2" stroke-miterlimit="10"/>
<path d="M186.101 170.899C186.145 170.418 186.086 169.934 185.927 169.478C185.769 169.022 185.515 168.606 185.182 168.256C184.492 167.493 180.65 165.384 180.12 166.756C179.544 168.256 183.34 171.704 186.101 170.899Z" fill="#6DB32F" stroke="#263238" stroke-miterlimit="10"/>
<path d="M186.101 170.899L182.526 168.116" stroke="#263238" stroke-width="0.5" stroke-miterlimit="10"/>
<path d="M187.944 158.298L185.297 154.845" stroke="#263238" stroke-width="2" stroke-miterlimit="10"/>
<path d="M186.101 155.879C186.145 155.398 186.086 154.914 185.927 154.458C185.769 154.002 185.515 153.585 185.182 153.236C184.492 152.473 180.65 150.364 180.12 151.74C179.544 153.253 183.34 156.684 186.101 155.879Z" fill="#6DB32F" stroke="#263238" stroke-miterlimit="10"/>
<path d="M186.101 155.879L182.526 153.096" stroke="#263238" stroke-width="0.5" stroke-miterlimit="10"/>
<path d="M187.944 140.664L185.297 137.212" stroke="#263238" stroke-width="2" stroke-miterlimit="10"/>
<path d="M186.101 138.245C186.145 137.765 186.086 137.28 185.927 136.824C185.769 136.369 185.515 135.952 185.182 135.602C184.492 134.84 180.65 132.73 180.12 134.107C179.544 135.602 183.34 139.05 186.101 138.245Z" fill="#6DB32F" stroke="#263238" stroke-miterlimit="10"/>
<path d="M186.101 138.245L182.526 135.462" stroke="#263238" stroke-width="0.5" stroke-miterlimit="10"/>
<path d="M187.944 128.922L185.297 125.474" stroke="#263238" stroke-width="2" stroke-miterlimit="10"/>
<path d="M186.101 126.508C186.146 126.027 186.087 125.541 185.928 125.085C185.77 124.628 185.515 124.211 185.182 123.861C184.492 123.102 180.65 120.993 180.12 122.365C179.544 123.861 183.34 127.313 186.101 126.508Z" fill="#6DB32F" stroke="#263238" stroke-miterlimit="10"/>
<path d="M186.101 126.508L182.526 123.725" stroke="#263238" stroke-width="0.5" stroke-miterlimit="10"/>
<path d="M187.944 117.134L185.297 113.682" stroke="#263238" stroke-width="2" stroke-miterlimit="10"/>
<path d="M186.101 114.707C186.146 114.226 186.087 113.74 185.928 113.284C185.77 112.827 185.515 112.41 185.182 112.06C184.492 111.297 180.65 109.188 180.12 110.564C179.544 112.072 183.34 115.524 186.101 114.707Z" fill="#6DB32F" stroke="#263238" stroke-miterlimit="10"/>
<path d="M186.101 114.72L182.526 111.937" stroke="#263238" stroke-width="0.5" stroke-miterlimit="10"/>
<path d="M187.885 177.901L190.532 174.453" stroke="#263238" stroke-width="2" stroke-miterlimit="10"/>
<path d="M189.728 175.486C189.683 175.005 189.742 174.52 189.901 174.063C190.059 173.607 190.314 173.189 190.647 172.839C191.337 172.081 195.179 169.971 195.708 171.344C196.285 172.839 192.485 176.291 189.728 175.486Z" fill="#6DB32F" stroke="#263238" stroke-miterlimit="10"/>
<path d="M189.727 175.486L193.514 172.555" stroke="#263238" stroke-width="0.5" stroke-miterlimit="10"/>
<path d="M187.885 154.015L190.532 150.563" stroke="#263238" stroke-width="2" stroke-miterlimit="10"/>
<path d="M189.728 151.601C189.683 151.119 189.742 150.634 189.901 150.178C190.059 149.721 190.314 149.304 190.647 148.953C191.337 148.191 195.179 146.082 195.708 147.458C196.285 148.953 192.485 152.406 189.728 151.601Z" fill="#6DB32F" stroke="#263238" stroke-miterlimit="10"/>
<path d="M189.727 151.601L193.514 148.665" stroke="#263238" stroke-width="0.5" stroke-miterlimit="10"/>
<path d="M187.885 142.223L190.532 138.775" stroke="#263238" stroke-width="2" stroke-miterlimit="10"/>
<path d="M189.728 139.808C189.683 139.327 189.742 138.842 189.901 138.385C190.059 137.929 190.314 137.511 190.647 137.161C191.337 136.403 195.179 134.293 195.708 135.666C196.285 137.157 192.485 140.613 189.728 139.808Z" fill="#6DB32F" stroke="#263238" stroke-miterlimit="10"/>
<path d="M189.727 139.808L193.514 136.877" stroke="#263238" stroke-width="0.5" stroke-miterlimit="10"/>
<path d="M187.885 126.639L190.532 123.191" stroke="#263238" stroke-width="2" stroke-miterlimit="10"/>
<path d="M189.728 124.225C189.683 123.744 189.742 123.258 189.901 122.802C190.059 122.345 190.314 121.928 190.647 121.577C191.337 120.819 195.179 118.71 195.708 120.082C196.285 121.577 192.485 125.03 189.728 124.225Z" fill="#6DB32F" stroke="#263238" stroke-miterlimit="10"/>
<path d="M189.727 124.225L193.514 121.294" stroke="#263238" stroke-width="0.5" stroke-miterlimit="10"/>
<path d="M187.885 114.389L190.532 110.937" stroke="#263238" stroke-width="2" stroke-miterlimit="10"/>
<path d="M189.728 111.975C189.683 111.494 189.742 111.008 189.901 110.552C190.059 110.095 190.314 109.678 190.647 109.327C191.337 108.565 195.179 106.456 195.708 107.832C196.285 109.327 192.485 112.78 189.728 111.975Z" fill="#6DB32F" stroke="#263238" stroke-miterlimit="10"/>
<path d="M189.727 111.975L193.514 109.044" stroke="#263238" stroke-width="0.5" stroke-miterlimit="10"/>
<path d="M187.728 106.54C187.684 106.059 187.743 105.574 187.901 105.117C188.06 104.661 188.314 104.243 188.647 103.893C189.338 103.131 193.179 101.025 193.709 102.398C194.285 103.893 190.485 107.345 187.728 106.54Z" fill="#6DB32F" stroke="#263238" stroke-miterlimit="10"/>
<path d="M187.728 106.54L191.515 103.609" stroke="#263238" stroke-width="0.5" stroke-miterlimit="10"/>
<path d="M187.91 106.701C187.426 106.696 186.949 106.587 186.51 106.382C186.072 106.176 185.683 105.879 185.369 105.511C184.683 104.74 182.988 100.699 184.411 100.318C185.966 99.9029 189.003 104.041 187.91 106.701Z" fill="#6DB32F" stroke="#263238" stroke-miterlimit="10"/>
<path d="M187.91 106.701L185.394 102.631" stroke="#263238" stroke-width="0.5" stroke-miterlimit="10"/>
<path d="M266.204 186.821L263.756 158.598H205.789L202.586 186.821H266.204Z" fill="#263238" stroke="#263238" stroke-miterlimit="10"/>
<path d="M230.699 73.0565C230.699 73.0565 213.756 77.7158 206.344 83.324C198.931 88.9322 193.806 94.6675 195 105.532C196.195 116.397 203.955 146.124 203.955 146.124C203.955 146.124 202.879 158.183 202.879 158.899C202.879 159.615 202.76 161.644 205.386 161.762C208.012 161.881 239.531 163.198 246.575 163.317C253.619 163.436 262.934 162.72 264.005 161.885C264.536 161.445 264.969 160.898 265.277 160.282C265.586 159.665 265.763 158.991 265.797 158.302C265.916 156.87 267.11 139.317 267.11 139.317L267.229 131.438C267.229 131.438 274.993 105.651 275.467 97.2937C275.942 88.9365 272.841 86.1917 269.381 83.5655C265.92 80.9393 255.144 76.4917 249.324 74.7296C243.504 72.9675 230.699 73.0565 230.699 73.0565Z" fill="#6DB32F" stroke="#263238" stroke-miterlimit="10"/>
<path d="M234.88 113.127C234.033 124.754 232.483 146.166 232.618 149.856C232.809 154.939 230.738 156.442 230.738 158.327" stroke="#263238" stroke-miterlimit="10"/>
<path d="M235.444 105.625C235.444 105.625 235.291 107.604 235.058 110.734" stroke="#263238" stroke-miterlimit="10"/>
<path d="M243.008 120.561L244.093 133.353L250.163 132.921L243.008 120.561Z" fill="#263238" stroke="#263238" stroke-miterlimit="10"/>
<path d="M237.256 142.867C237.256 142.867 252.082 140.537 253.196 140.783C254.31 141.028 261.9 144.705 263.006 144.951C263.725 145.121 264.423 145.368 265.09 145.688L266.754 147.081L266.187 142.867C266.187 142.867 263.98 140.168 259.075 138.207C254.17 136.246 251.717 137.36 250.603 137.72C249.489 138.08 237.256 142.867 237.256 142.867Z" fill="#263238" stroke="#263238" stroke-miterlimit="10"/>
<path d="M214.459 131.68L253.005 131.557C253.005 131.557 265.425 130.367 265.899 130.244C266.373 130.121 271.274 131.438 271.753 131.798C272.231 132.158 272.227 133.23 271.99 134.306L271.753 135.378C271.928 136.286 272.046 137.204 272.109 138.127C272.109 138.974 271.156 139.198 271.033 139.558C270.91 139.918 271.753 141.227 270.796 142.066L269.842 142.913C269.842 142.913 269.72 145.184 269.245 145.781C268.771 146.378 267.335 147.45 266.738 147.094C266.14 146.738 266.378 145.781 266.378 145.184C266.378 144.586 266.14 143.989 265.425 143.989C264.709 143.989 264.577 144.586 260.888 143.629C257.199 142.672 253.128 139.453 252.768 139.33C252.408 139.207 220.055 147.928 210.503 149.123C200.951 150.317 200.117 149.004 199.757 147.429C199.397 145.853 198.804 142.176 198.804 142.176L197.11 134.895L214.459 131.68Z" fill="white" stroke="#263238" stroke-miterlimit="10"/>
<path d="M239.523 87.0515C239.523 87.0515 241.518 84.9336 242.776 85.8952C244.034 86.8567 245.186 91.8719 246.757 91.4525C248.329 91.0332 251.476 81.2866 251.476 77.4066C251.476 73.5267 248.748 71.2224 248.121 71.0106C247.494 70.7988 231.453 70.587 229.564 71.3283C227.675 72.0695 226.946 78.6647 226.214 82.6463C225.481 86.628 227.154 87.5725 228.205 87.0515C229.255 86.5305 233.338 84.8489 234.283 84.8489C235.227 84.8489 239.523 87.0515 239.523 87.0515Z" fill="#6DB32F" stroke="#263238" stroke-miterlimit="10"/>
<path d="M250.26 64.9534C250.26 64.9534 248.757 72.383 248.172 74.2171C247.587 76.0512 243.331 81.6466 242.242 82.8157C241.153 83.9848 237.985 89.7412 237.159 89.9107C236.333 90.0801 233.995 82.2312 233.995 82.2312C233.995 82.2312 230.987 77.055 230.403 75.7208C229.818 74.3865 228.912 70.4641 228.912 70.4641C228.912 70.4641 233.834 74.6999 239.078 73.8019C244.322 72.904 247.003 67.6262 247.003 67.6262L250.26 64.9534Z" fill="white" stroke="#263238" stroke-miterlimit="10"/>
<path d="M229.882 50.1535C229.882 50.1535 228.412 48.5778 227.573 51.0007C226.735 53.4236 228.42 57.7059 228.42 57.7059L229.882 50.1535Z" fill="white" stroke="#263238" stroke-miterlimit="10"/>
<path d="M230.144 45.2399C230.144 45.2399 227.726 62.433 227.726 63.4539C227.726 64.4747 227.057 67.7913 228.06 69.9643C229.064 72.1372 232.063 74.8015 234.486 75.1362C236.909 75.4708 241.662 74.971 244.334 72.8827C247.007 70.7945 250.091 66.2918 250.091 66.2918C250.091 66.2918 253.433 65.7878 255.597 64.8728C257.762 63.9579 259.435 61.8654 259.355 59.6967C259.258 58.3081 258.766 56.9763 257.936 55.8591L256.665 53.5209L260.003 47.2604C260.003 47.2604 258.084 43.6727 251.908 40.2502C245.732 36.8276 240.221 35.7433 237.638 35.7433C235.054 35.7433 231.792 36.8276 230.86 38.9159C229.928 41.0041 230.144 45.2399 230.144 45.2399Z" fill="white" stroke="#263238" stroke-miterlimit="10"/>
<path d="M238.074 36.8277C238.074 36.8277 242.831 44.6724 246.422 44.342C250.014 44.0116 251.082 42.3385 251.082 42.3385L253.5 45.5916C253.5 45.5916 250.917 46.676 251.416 48.0145C251.916 49.353 254.17 52.3519 254.17 52.3519L252.331 60.1966C252.331 60.1966 253.75 60.4465 254.005 59.9467C254.259 59.4469 255.504 56.359 255.504 56.359C255.841 56.1431 256.206 55.9749 256.588 55.8592C257.03 55.7644 257.486 55.7644 257.927 55.8592C257.927 55.8592 258.842 52.7713 259.198 52.6865C259.553 52.6018 262.87 51.6827 264.124 48.4296C265.378 45.1765 263.455 40.0003 259.113 35.9128C254.771 31.8253 245.592 30.7367 245.092 29.9827C244.593 29.2287 247.431 30.3131 246.846 28.6442C246.262 26.9753 242.589 24.8065 237.917 27.1447C233.245 29.4829 233.91 32.0667 234.41 32.9012L234.91 33.7483C234.91 33.7483 230.987 32.414 228.234 34.0829C225.481 35.7518 224.146 39.0896 225.396 39.4243C226.646 39.7589 228.234 39.0007 228.234 39.0007C228.234 39.0007 226.565 41.754 227.065 42.3385C227.565 42.923 230.153 45.257 230.153 45.257C230.153 45.257 231.157 39.4158 233.241 38.5814C235.325 37.7469 238.074 36.8277 238.074 36.8277Z" fill="#263238" stroke="#263238" stroke-miterlimit="10"/>
<path d="M236.57 48.0949L237.324 50.5178L233.067 58.5277L237.574 60.2813" stroke="#263238" stroke-miterlimit="10"/>
<path d="M235.736 47.1757C235.736 47.1757 233.736 45.5916 232.063 46.0109C230.39 46.4302 231.398 46.6759 232.567 47.0953C233.736 47.5146 236.07 48.5947 235.736 47.1757Z" fill="#263238" stroke="#263238" stroke-miterlimit="10"/>
<path d="M241.916 46.8454C241.916 46.8454 239.993 47.3452 240.912 47.7603C241.831 48.1754 244.584 47.3367 245.668 47.7603C246.753 48.1839 248.172 49.5986 248.091 48.9294C247.968 48.3538 247.697 47.8202 247.305 47.3813C246.913 46.9423 246.413 46.6131 245.855 46.426C244.334 45.9262 241.916 46.8454 241.916 46.8454Z" fill="#263238" stroke="#263238" stroke-miterlimit="10"/>
<path d="M234.634 50.8821C234.486 51.4878 234.079 51.9072 233.719 51.8182C233.359 51.7293 233.19 51.1744 233.334 50.5687C233.478 49.9629 233.893 49.5436 234.249 49.6283C234.605 49.713 234.778 50.2764 234.634 50.8821Z" fill="#263238"/>
<path d="M243.737 53.2626C243.589 53.8641 243.178 54.2835 242.822 54.1987C242.466 54.114 242.293 53.5507 242.437 52.928C242.581 52.3053 242.992 51.9029 243.352 51.9919C243.712 52.0809 243.877 52.6569 243.737 53.2626Z" fill="#263238"/>
<path d="M230.479 61.2809L233.902 63.5344" stroke="#263238" stroke-miterlimit="10"/>
<path d="M265.679 81.5322C265.679 81.5322 277.496 86.073 279.767 92.8757C282.037 99.6784 279.17 108.277 277.975 111.861C276.781 115.444 269.381 129.409 268.186 132.751C266.992 136.093 265.2 140.156 265.2 140.156C265.2 140.156 263.531 130.125 258.986 123.92C254.441 117.714 253.374 112.098 253.374 112.098C253.374 112.098 261.612 97.5308 263.76 92.9943" fill="#6DB32F"/>
<path d="M265.679 81.5322C265.679 81.5322 277.496 86.073 279.767 92.8757C282.037 99.6784 279.17 108.277 277.975 111.861C276.781 115.444 269.381 129.409 268.186 132.751C266.992 136.093 265.2 140.156 265.2 140.156C265.2 140.156 263.531 130.125 258.986 123.92C254.441 117.714 253.374 112.098 253.374 112.098C253.374 112.098 261.612 97.5308 263.76 92.9943" stroke="#263238" stroke-miterlimit="10"/>
<path d="M254.636 109.573C254.636 109.573 257.054 108.366 257.859 108.768C258.664 109.171 269.012 114.699 270.355 120.997C271.325 125.735 270.662 130.662 268.474 134.975C267.263 137.263 264.98 141.693 263.234 142.231C261.489 142.769 260.007 128.393 256.381 120.87C252.755 113.347 254.636 109.573 254.636 109.573Z" fill="#6DB32F" stroke="#263238" stroke-miterlimit="10"/>
<path d="M258.634 102.665C258.634 102.665 260.782 95.3833 261.621 92.5199" stroke="#263238" stroke-miterlimit="10"/>
<path d="M237.074 76.8051C237.074 76.8051 233.736 72.1457 231.144 69.0451C228.552 65.9445 225.883 64.1189 224.968 64.3857C224.053 64.6526 223.698 65.5548 224.299 66.6392C224.901 67.7235 227.637 70.1464 228.137 70.8157C228.637 71.4849 229.407 73.9036 229.407 73.9036C229.407 73.9036 226.989 74.0688 226.569 74.5686C226.18 75.1488 225.845 75.7642 225.57 76.4069C225.066 76.662 224.63 77.0338 224.299 77.4913C224.05 77.8402 223.879 78.2391 223.799 78.6603C223.715 78.995 222.529 79.5795 222.63 81.079C222.732 82.5785 224.134 84.7514 224.634 85.7384C225.134 86.7253 228.806 91.1602 229.475 91.9142C230.144 92.6681 233.982 99.3395 234.982 101.593C235.981 103.846 245.664 129.973 248.502 133.895C251.34 137.817 256.597 141.57 259.435 142.909C262.273 144.247 264.277 141.99 265.611 139.152C266.945 136.314 268.114 130.638 265.53 124.127C262.946 117.617 257.851 112.026 253.928 108.688C250.006 105.35 242.661 97.0056 241.827 95.5019C240.992 93.9982 239.925 90.6604 239.925 90.6604C239.925 90.6604 242.094 84.3067 242.259 82.8157C242.424 81.3247 241.594 78.6434 241.835 77.4743C242.077 76.3053 243.085 73.9671 243.504 72.9674C243.924 71.9678 245.338 70.2947 244.589 69.5449C243.839 68.7952 240.751 69.7101 239.667 71.4637C238.699 73.1923 237.834 74.9758 237.074 76.8051Z" fill="white" stroke="#263238" stroke-miterlimit="10"/>
<path d="M211.278 94.8792C211.528 93.5534 211.702 92.6385 211.702 92.6385L211.278 94.8792Z" fill="#6DB32F"/>
<path d="M211.278 94.8792C211.528 93.5534 211.702 92.6385 211.702 92.6385" stroke="#263238" stroke-miterlimit="10"/>
<path d="M210.52 81.1765C210.52 81.1765 204.192 82.0237 197.626 89.0551C191.061 96.0865 193.924 112.814 194.521 116.279C195.119 119.743 196.076 130.38 196.076 130.38L212.909 124.767C212.909 124.767 210.164 106.024 209.923 104.351C209.804 103.503 210.262 100.538 210.744 97.7851" fill="#6DB32F"/>
<path d="M210.52 81.1765C210.52 81.1765 204.192 82.0237 197.626 89.0551C191.061 96.0865 193.924 112.814 194.521 116.279C195.119 119.743 196.076 130.38 196.076 130.38L212.909 124.767C212.909 124.767 210.164 106.024 209.923 104.351C209.804 103.503 210.262 100.538 210.744 97.7851" stroke="#263238" stroke-miterlimit="10"/>
<path d="M194.403 126.665C194.403 126.665 196.076 135.619 196.91 136.094C197.745 136.568 210.757 132.993 212.193 132.752C213.629 132.51 214.459 132.87 214.459 131.68C214.459 130.49 213.265 124.873 212.549 123.92C211.833 122.967 196.313 124.992 195 125.352C193.687 125.712 194.403 126.665 194.403 126.665Z" fill="#6DB32F" stroke="#263238" stroke-miterlimit="10"/>
<path d="M203.921 119.743C206.886 120.931 209.764 122.326 212.532 123.92C212.532 123.92 208.474 116.295 206.801 114.724" stroke="#263238" stroke-miterlimit="10"/>
<path d="M201.684 118.905C202.163 119.07 202.637 119.244 203.103 119.417" stroke="#263238" stroke-miterlimit="10"/>
<path d="M240.84 157.988C243.928 156.887 246.77 155.676 248.464 154.481" stroke="#263238" stroke-miterlimit="10"/>
<path d="M226.281 162.241C226.281 162.241 232.877 160.678 239.137 158.577" stroke="#263238" stroke-miterlimit="10"/>
<path d="M254.022 153.985C250.777 155.604 245.639 157.967 241.441 159.018" stroke="#263238" stroke-miterlimit="10"/>
<path d="M257.203 152.334C257.203 152.334 256.538 152.702 255.432 153.27" stroke="#263238" stroke-miterlimit="10"/>
</svg>
