<svg width="449" height="449" viewBox="0 0 449 449" fill="none" xmlns="http://www.w3.org/2000/svg">
<path d="M213.019 2.75539C220.37 -0.289434 228.63 -0.289438 235.98 2.75538L373.179 59.5849C380.53 62.6298 386.37 68.47 389.415 75.8208L446.245 213.019C449.289 220.37 449.289 228.63 446.245 235.98L389.415 373.179C386.37 380.53 380.53 386.37 373.179 389.415L235.981 446.245C228.63 449.289 220.37 449.289 213.02 446.245L75.8208 389.415C68.47 386.37 62.6298 380.53 59.5849 373.179L2.75539 235.981C-0.289434 228.63 -0.289438 220.37 2.75538 213.02L59.5849 75.8208C62.6298 68.47 68.47 62.6298 75.8208 59.5849L213.019 2.75539Z" fill="#6DB32F"/>
</svg>
