<svg width="458" height="188" viewBox="0 0 458 188" fill="none" xmlns="http://www.w3.org/2000/svg">
<rect y="11.123" width="458" height="176" rx="6" fill="#6DB32F"/>
<path d="M325.46 110.593C319.102 127.625 306.109 146.061 287.824 151.517C260.178 159.767 256.895 182.039 207.41 179.974C200.184 179.705 193.009 178.652 186.011 176.834C182.589 175.936 179.228 174.817 175.95 173.486C147.039 161.78 131.977 136.009 130.707 109.042C129.052 73.5779 153.799 56.6752 169.881 46.7747C185.963 36.8741 205.345 -1.47537 254.01 0.174717C261.441 0.394378 268.821 1.47133 276.005 3.38419C292.381 7.81611 309.024 17.6389 318.696 31.9498C319.422 33.0239 320.116 34.124 320.778 35.25C333.724 57.2109 334.134 87.3704 325.46 110.593Z" fill="#6DB32F"/>
<path opacity="0.7" d="M325.46 110.593C319.102 127.625 306.109 146.061 287.824 151.517C260.178 159.767 256.895 182.039 207.41 179.974C200.184 179.705 193.009 178.652 186.011 176.834C182.589 175.936 179.228 174.817 175.95 173.486C147.039 161.78 131.977 136.009 130.707 109.042C129.052 73.5779 153.799 56.6752 169.881 46.7747C185.963 36.8741 205.345 -1.47537 254.01 0.174717C261.441 0.394378 268.821 1.47133 276.005 3.38419C292.381 7.81611 309.024 17.6389 318.696 31.9498C319.422 33.0239 320.116 34.124 320.778 35.25C333.724 57.2109 334.134 87.3704 325.46 110.593Z" fill="white"/>
<path d="M131.643 157.098C132.581 157.508 134.874 157.456 134.874 157.456C134.874 157.456 134.382 155.957 134.339 155.866C133.833 154.812 132.244 153.076 130.948 153.249C130.734 153.284 130.529 153.364 130.348 153.483C130.166 153.603 130.012 153.759 129.895 153.942C129.778 154.125 129.701 154.33 129.669 154.545C129.637 154.76 129.65 154.979 129.708 155.188C129.924 156.082 130.844 156.752 131.643 157.098Z" fill="#6DB32F"/>
<path d="M132.434 163.745C133.406 163.884 135.458 163.292 135.618 163.244C135.953 164.416 136.367 165.563 136.857 166.678C137.138 167.331 137.445 167.974 137.756 168.627C137.57 168.35 137.402 168.108 137.371 168.078C136.611 167.192 134.615 165.918 133.415 166.449C133.217 166.539 133.041 166.67 132.897 166.832C132.753 166.995 132.645 167.186 132.58 167.393C132.516 167.6 132.495 167.819 132.521 168.034C132.546 168.25 132.617 168.457 132.728 168.644C133.16 169.452 134.235 169.853 135.099 169.979C135.963 170.104 137.73 169.637 138.192 169.503C138.313 169.75 138.434 170 138.559 170.246C139.151 171.426 139.747 172.601 140.287 173.771C140.481 174.182 140.659 174.596 140.836 175.011C140.667 174.765 140.529 174.579 140.503 174.536C139.738 173.672 137.743 172.398 136.542 172.907C136.345 172.999 136.17 173.131 136.028 173.294C135.885 173.457 135.779 173.649 135.715 173.856C135.651 174.063 135.631 174.282 135.657 174.497C135.682 174.712 135.753 174.92 135.864 175.106C136.296 175.914 137.376 176.311 138.235 176.436C139.095 176.562 140.697 176.138 141.259 176.004C141.427 176.436 141.596 176.868 141.743 177.3C141.834 177.59 141.946 177.866 142.019 178.164C142.093 178.462 142.183 178.743 142.261 179.028C142.395 179.585 142.538 180.16 142.654 180.709C142.741 181.089 142.814 181.456 142.887 181.819C142.697 181.408 142.313 180.609 142.274 180.544C141.652 179.555 139.872 178.013 138.607 178.333C138.401 178.393 138.211 178.494 138.047 178.632C137.883 178.769 137.749 178.939 137.653 179.13C137.558 179.322 137.503 179.531 137.493 179.744C137.482 179.958 137.516 180.172 137.592 180.372C137.907 181.236 138.888 181.797 139.751 182.052C140.667 182.328 142.697 182.074 142.952 182.052C143.073 182.661 143.186 183.253 143.285 183.81C143.501 185.05 143.665 186.156 143.79 187.093H144.654C144.503 186.121 144.309 184.968 144.049 183.672C143.929 183.054 143.786 182.397 143.618 181.724C144.23 181.479 144.827 181.197 145.406 180.881C146.075 181.607 147.786 182.454 147.998 182.562C147.764 183.136 147.531 183.693 147.302 184.212C146.827 185.305 146.378 186.272 145.98 187.093H146.909C147.25 186.333 147.626 185.469 148.015 184.501C148.257 183.918 148.499 183.292 148.745 182.648C148.991 182.7 151 183.106 151.937 182.894C152.801 182.704 153.816 182.225 154.201 181.382C154.296 181.187 154.349 180.974 154.357 180.756C154.365 180.539 154.326 180.322 154.245 180.121C154.164 179.919 154.041 179.737 153.884 179.586C153.728 179.435 153.541 179.318 153.337 179.244C152.097 178.812 150.209 180.238 149.514 181.175C149.475 181.231 149.082 181.879 148.866 182.294C148.965 182.03 149.065 181.775 149.16 181.503C149.358 180.963 149.54 180.419 149.738 179.836L149.998 178.972C150.088 178.683 150.149 178.372 150.231 178.065C150.399 177.361 150.533 176.635 150.663 175.905C151.138 176.078 152.823 176.665 153.687 176.601C154.55 176.536 155.648 176.22 156.149 175.447C156.274 175.27 156.36 175.068 156.402 174.855C156.444 174.642 156.44 174.422 156.392 174.21C156.343 173.999 156.249 173.8 156.118 173.626C155.987 173.453 155.821 173.31 155.63 173.205C154.468 172.609 152.386 173.711 151.561 174.536C151.509 174.588 150.982 175.244 150.697 175.611C150.766 175.179 150.84 174.747 150.896 174.281C151.056 172.985 151.177 171.668 151.328 170.354C151.367 169.953 151.41 169.551 151.453 169.149C151.622 169.214 153.613 169.953 154.589 169.888C155.453 169.823 156.546 169.508 157.051 168.735C157.176 168.557 157.262 168.355 157.303 168.142C157.345 167.929 157.341 167.71 157.292 167.498C157.243 167.287 157.15 167.088 157.02 166.915C156.889 166.741 156.723 166.598 156.533 166.493C155.371 165.892 153.289 166.994 152.46 167.819C152.399 167.879 151.643 168.83 151.462 169.08C151.553 168.195 151.656 167.318 151.79 166.454C151.968 165.287 152.219 164.133 152.542 162.998C152.62 163.028 154.702 163.81 155.695 163.741C156.559 163.681 157.656 163.361 158.157 162.588C158.282 162.41 158.368 162.208 158.409 161.995C158.451 161.782 158.447 161.563 158.398 161.351C158.349 161.14 158.256 160.941 158.126 160.768C157.995 160.595 157.829 160.451 157.639 160.346C156.477 159.745 154.395 160.851 153.57 161.672C153.505 161.737 152.706 162.756 152.555 162.968C152.555 162.903 152.589 162.834 152.607 162.769C152.964 161.642 153.423 160.549 153.976 159.504C154.27 158.92 154.589 158.38 154.909 157.866C155.28 158.052 156.982 158.877 157.894 158.916C158.805 158.955 159.881 158.752 160.486 158.052C160.629 157.889 160.737 157.698 160.802 157.491C160.867 157.283 160.887 157.064 160.861 156.849C160.836 156.633 160.765 156.425 160.653 156.239C160.541 156.052 160.392 155.892 160.213 155.767C159.125 155.041 156.935 155.914 156.023 156.631C155.972 156.67 155.514 157.128 155.185 157.465C155.332 157.236 155.479 156.994 155.617 156.774C156.162 155.953 156.715 155.231 157.207 154.614C157.492 154.255 157.756 153.94 158.006 153.642C158.464 153.642 160.313 153.577 161.121 153.21C161.928 152.843 162.814 152.152 163.004 151.249C163.056 151.038 163.063 150.818 163.025 150.604C162.987 150.39 162.904 150.187 162.782 150.007C162.659 149.827 162.5 149.675 162.315 149.561C162.131 149.447 161.924 149.373 161.708 149.344C160.412 149.206 158.866 150.985 158.391 152.052C158.352 152.143 157.877 153.659 157.898 153.659H157.894C157.648 153.94 157.384 154.242 157.108 154.579C156.598 155.201 156.032 155.914 155.466 156.739C154.836 157.609 154.259 158.516 153.738 159.456C153.156 160.502 152.669 161.598 152.283 162.73V162.773C152.283 162.389 152.283 161.318 152.283 161.236C152.131 160.078 151.16 157.931 149.877 157.694C149.662 157.66 149.443 157.672 149.233 157.729C149.023 157.786 148.828 157.886 148.66 158.023C148.491 158.161 148.354 158.332 148.256 158.526C148.158 158.72 148.103 158.932 148.093 159.149C148.019 160.069 148.684 160.99 149.332 161.568C150.067 162.225 152.101 162.864 152.265 162.907C151.898 164.07 151.61 165.257 151.401 166.458C151.276 167.158 151.173 167.866 151.077 168.575C151.077 168.246 151.077 167.948 151.077 167.91C150.926 166.752 149.954 164.605 148.671 164.367C148.457 164.334 148.238 164.346 148.029 164.402C147.819 164.459 147.624 164.559 147.456 164.696C147.288 164.833 147.15 165.003 147.052 165.197C146.954 165.39 146.898 165.602 146.887 165.819C146.814 166.739 147.479 167.659 148.127 168.242C148.775 168.825 150.512 169.404 150.969 169.538L150.866 170.359C150.71 171.655 150.559 172.976 150.373 174.246C150.309 174.678 150.227 175.136 150.144 175.581C150.144 175.287 150.144 175.037 150.144 175.002C149.993 173.845 149.026 171.693 147.738 171.456C147.524 171.423 147.305 171.435 147.095 171.493C146.886 171.55 146.691 171.65 146.523 171.787C146.355 171.924 146.217 172.095 146.119 172.289C146.021 172.483 145.965 172.695 145.954 172.912C145.881 173.832 146.546 174.752 147.198 175.331C147.851 175.909 149.41 176.441 149.954 176.626C149.859 177.058 149.764 177.525 149.652 177.961C149.57 178.251 149.509 178.54 149.41 178.825C149.311 179.11 149.224 179.404 149.134 179.689C148.935 180.229 148.736 180.786 148.533 181.309L148.101 182.363C148.17 181.931 148.291 181.037 148.291 180.959C148.276 179.933 147.999 178.928 147.488 178.039C147.496 177.925 147.496 177.811 147.488 177.698C147.458 177.484 147.384 177.279 147.271 177.095C147.157 176.912 147.006 176.754 146.828 176.632C146.65 176.51 146.449 176.426 146.236 176.387C146.024 176.347 145.806 176.352 145.596 176.402C144.335 176.739 143.531 178.955 143.471 180.121C143.471 180.19 143.514 180.942 143.548 181.417C143.488 181.14 143.427 180.877 143.358 180.592C143.224 180.035 143.078 179.482 142.926 178.886C142.84 178.601 142.749 178.311 142.663 178.022C142.576 177.732 142.46 177.434 142.356 177.136C142.11 176.454 141.821 175.776 141.518 175.097C142.006 174.981 143.738 174.54 144.43 174.004C145.121 173.469 145.855 172.605 145.851 171.685C145.856 171.468 145.816 171.252 145.733 171.051C145.65 170.851 145.525 170.67 145.368 170.52C145.21 170.371 145.023 170.256 144.818 170.184C144.613 170.111 144.396 170.083 144.179 170.1C142.883 170.242 141.751 172.311 141.518 173.456C141.518 173.525 141.427 174.363 141.393 174.825C141.207 174.419 141.021 174.013 140.823 173.607C140.24 172.441 139.618 171.274 139 170.108L138.438 169.037C138.615 168.994 140.68 168.514 141.462 167.918C142.157 167.387 142.887 166.519 142.883 165.599C142.889 165.381 142.849 165.166 142.765 164.965C142.682 164.764 142.558 164.583 142.4 164.434C142.242 164.285 142.055 164.17 141.85 164.097C141.646 164.025 141.428 163.996 141.211 164.013C139.916 164.156 138.784 166.225 138.551 167.37C138.551 167.456 138.421 168.665 138.412 168.972C137.98 168.182 137.6 167.395 137.237 166.601C136.733 165.532 136.3 164.431 135.942 163.305C136.024 163.305 138.183 162.795 138.965 162.186C139.656 161.655 140.391 160.786 140.382 159.866C140.388 159.649 140.349 159.434 140.266 159.233C140.183 159.033 140.059 158.852 139.902 158.702C139.745 158.552 139.558 158.438 139.353 158.365C139.149 158.293 138.931 158.264 138.715 158.281C137.419 158.424 136.287 160.493 136.05 161.633C136.05 161.724 135.916 163.024 135.911 163.262L135.842 163.063C135.521 161.925 135.3 160.762 135.181 159.586C135.108 158.938 135.078 158.311 135.056 157.707C135.488 157.655 137.35 157.404 138.127 156.933C138.905 156.463 139.695 155.698 139.79 154.774C139.82 154.558 139.804 154.34 139.744 154.131C139.683 153.922 139.58 153.729 139.44 153.563C139.299 153.397 139.126 153.263 138.93 153.168C138.735 153.074 138.521 153.022 138.304 153.015C137.009 153.015 135.652 154.946 135.281 156.039C135.281 156.1 135.129 156.735 135.043 157.201C135.043 156.925 135.043 156.644 135.043 156.38C135.043 155.391 135.108 154.484 135.168 153.685C135.207 153.253 135.25 152.821 135.298 152.437C135.674 152.177 137.186 151.111 137.652 150.346C138.119 149.581 138.477 148.527 138.136 147.672C138.063 147.469 137.947 147.283 137.797 147.127C137.647 146.971 137.466 146.848 137.266 146.766C137.065 146.685 136.85 146.647 136.634 146.654C136.418 146.661 136.205 146.714 136.011 146.808C134.849 147.409 134.542 149.746 134.715 150.895C134.715 150.994 135.173 152.523 135.19 152.51H135.216C135.164 152.877 135.112 153.275 135.069 153.707C134.987 154.51 134.905 155.413 134.883 156.406C134.847 157.475 134.871 158.545 134.957 159.612C135.051 160.805 135.251 161.987 135.553 163.145V163.188C135.345 162.864 134.741 161.983 134.689 161.918C133.924 161.054 131.929 159.78 130.728 160.29C130.544 160.383 130.38 160.512 130.246 160.669C130.113 160.826 130.012 161.009 129.95 161.206C129.888 161.402 129.866 161.61 129.885 161.815C129.905 162.021 129.965 162.22 130.063 162.402C130.507 163.218 131.57 163.616 132.434 163.745Z" fill="#6DB32F"/>
<path d="M154.844 157.603C154.844 157.603 155.276 156.078 155.276 155.979C155.44 154.825 155.069 152.497 153.894 151.927C153.696 151.837 153.481 151.791 153.264 151.79C153.046 151.789 152.832 151.834 152.633 151.922C152.434 152.01 152.257 152.139 152.111 152.301C151.966 152.463 151.857 152.653 151.79 152.86C151.475 153.724 151.872 154.791 152.347 155.521C152.9 156.38 154.84 157.603 154.844 157.603Z" fill="#6DB32F"/>
<path d="M291.085 157.098C292.022 157.508 294.316 157.456 294.316 157.456C294.316 157.456 293.823 155.957 293.78 155.866C293.275 154.812 291.685 153.076 290.389 153.249C290.175 153.284 289.97 153.364 289.789 153.483C289.608 153.603 289.453 153.759 289.336 153.942C289.22 154.125 289.142 154.33 289.11 154.545C289.078 154.76 289.091 154.979 289.149 155.188C289.365 156.082 290.285 156.752 291.085 157.098Z" fill="#6DB32F"/>
<path d="M291.875 163.745C292.847 163.884 294.899 163.292 295.059 163.244C295.397 164.415 295.811 165.562 296.299 166.678C296.58 167.331 296.886 167.974 297.197 168.627C297.011 168.35 296.843 168.108 296.813 168.078C296.053 167.192 294.057 165.918 292.856 166.449C292.658 166.539 292.482 166.67 292.338 166.832C292.194 166.995 292.087 167.186 292.022 167.393C291.957 167.6 291.937 167.819 291.962 168.034C291.987 168.25 292.058 168.457 292.169 168.644C292.601 169.452 293.677 169.853 294.541 169.979C295.405 170.104 297.171 169.637 297.634 169.503C297.754 169.75 297.875 170 298.001 170.246C298.592 171.426 299.189 172.601 299.729 173.771C299.923 174.182 300.1 174.596 300.277 175.011C300.109 174.765 299.97 174.579 299.945 174.536C299.18 173.672 297.189 172.398 295.983 172.907C295.786 172.998 295.61 173.129 295.467 173.292C295.323 173.455 295.216 173.647 295.151 173.854C295.086 174.061 295.066 174.28 295.091 174.495C295.116 174.711 295.186 174.919 295.297 175.106C295.729 175.914 296.808 176.311 297.668 176.436C298.528 176.562 300.13 176.138 300.692 176.004C300.86 176.436 301.033 176.868 301.176 177.3C301.266 177.59 301.379 177.866 301.452 178.164C301.525 178.462 301.616 178.743 301.694 179.028C301.828 179.585 301.97 180.16 302.087 180.708C302.173 181.089 302.247 181.456 302.32 181.819C302.13 181.408 301.746 180.609 301.707 180.544C301.085 179.555 299.305 178.013 298.04 178.333C297.831 178.393 297.637 178.496 297.471 178.635C297.305 178.775 297.169 178.948 297.074 179.143C296.979 179.338 296.926 179.55 296.918 179.767C296.91 179.984 296.948 180.2 297.029 180.402C297.344 181.266 298.325 181.827 299.189 182.082C300.104 182.359 302.135 182.104 302.389 182.082C302.51 182.691 302.623 183.283 302.722 183.84C302.938 185.08 303.102 186.186 303.227 187.123H304.091C303.94 186.151 303.746 184.998 303.487 183.702C303.366 183.084 303.223 182.428 303.055 181.754C303.667 181.509 304.264 181.228 304.843 180.912C305.512 181.637 307.223 182.484 307.435 182.592C307.201 183.166 306.968 183.724 306.739 184.242C306.264 185.335 305.815 186.302 305.417 187.123H306.346C306.687 186.363 307.063 185.499 307.452 184.531C307.694 183.948 307.936 183.322 308.182 182.678C308.428 182.73 310.437 183.136 311.374 182.924C312.238 182.734 313.253 182.255 313.638 181.413C313.733 181.217 313.786 181.004 313.794 180.787C313.802 180.569 313.764 180.353 313.682 180.151C313.601 179.949 313.478 179.767 313.321 179.616C313.165 179.465 312.978 179.349 312.774 179.274C311.534 178.842 309.646 180.268 308.951 181.205C308.912 181.261 308.519 181.909 308.303 182.324C308.402 182.061 308.502 181.806 308.601 181.534C308.795 180.994 308.977 180.449 309.176 179.866L309.435 179.002C309.525 178.713 309.586 178.402 309.668 178.095C309.836 177.391 309.97 176.665 310.1 175.935C310.575 176.108 312.26 176.696 313.124 176.631C313.988 176.566 315.085 176.251 315.586 175.477C315.711 175.3 315.798 175.098 315.839 174.885C315.881 174.672 315.878 174.452 315.829 174.24C315.78 174.029 315.687 173.83 315.555 173.657C315.424 173.483 315.258 173.34 315.067 173.236C313.905 172.639 311.823 173.741 310.998 174.566C310.947 174.618 310.42 175.274 310.134 175.642C310.204 175.21 310.277 174.778 310.333 174.311C310.493 173.015 310.614 171.698 310.744 170.385C310.782 169.983 310.826 169.581 310.869 169.179C311.037 169.244 313.029 169.983 314.005 169.918C314.869 169.853 315.962 169.538 316.467 168.765C316.592 168.587 316.678 168.385 316.719 168.172C316.76 167.959 316.757 167.74 316.708 167.528C316.659 167.317 316.566 167.118 316.435 166.945C316.304 166.772 316.139 166.628 315.949 166.523C314.787 165.922 312.705 167.024 311.875 167.849C311.815 167.909 311.059 168.86 310.877 169.11C310.968 168.225 311.072 167.348 311.206 166.484C311.383 165.317 311.634 164.163 311.957 163.028C312.035 163.059 314.117 163.84 315.111 163.771C315.975 163.711 317.072 163.391 317.573 162.618C317.697 162.44 317.783 162.238 317.825 162.025C317.866 161.812 317.862 161.593 317.814 161.381C317.765 161.17 317.672 160.971 317.541 160.798C317.41 160.625 317.244 160.481 317.054 160.376C315.893 159.776 313.81 160.881 312.985 161.702C312.921 161.767 312.121 162.786 311.97 162.998C311.97 162.933 312.005 162.864 312.022 162.799C312.38 161.672 312.838 160.579 313.391 159.534C313.685 158.951 314.005 158.411 314.325 157.897C314.696 158.082 316.398 158.907 317.309 158.946C318.221 158.985 319.296 158.782 319.901 158.082C320.045 157.92 320.153 157.728 320.218 157.521C320.282 157.313 320.302 157.095 320.277 156.879C320.251 156.663 320.18 156.455 320.068 156.269C319.957 156.082 319.807 155.922 319.629 155.797C318.54 155.072 316.35 155.944 315.439 156.661C315.391 156.7 314.929 157.158 314.601 157.495C314.748 157.266 314.895 157.024 315.033 156.804C315.582 155.983 316.13 155.262 316.623 154.644C316.908 154.285 317.171 153.97 317.422 153.672C317.88 153.672 319.728 153.607 320.536 153.24C321.344 152.873 322.229 152.182 322.419 151.279C322.472 151.068 322.479 150.848 322.441 150.634C322.402 150.42 322.319 150.217 322.197 150.037C322.075 149.857 321.916 149.705 321.731 149.591C321.546 149.477 321.339 149.403 321.124 149.374C319.828 149.236 318.277 151.015 317.802 152.082C317.763 152.173 317.288 153.689 317.309 153.689H317.34C317.093 153.97 316.83 154.272 316.553 154.609C316.044 155.231 315.478 155.944 314.912 156.769C314.289 157.64 313.719 158.547 313.206 159.486C312.624 160.532 312.137 161.628 311.75 162.761C311.752 162.775 311.752 162.789 311.75 162.804C311.75 162.419 311.75 161.348 311.75 161.266C311.599 160.108 310.627 157.961 309.344 157.724C309.129 157.69 308.91 157.702 308.7 157.759C308.491 157.816 308.295 157.916 308.127 158.053C307.959 158.191 307.821 158.362 307.724 158.556C307.626 158.75 307.57 158.963 307.56 159.18C307.487 160.1 308.152 161.02 308.8 161.599C309.534 162.255 311.569 162.894 311.733 162.938C311.366 164.101 311.077 165.287 310.869 166.488C310.744 167.188 310.64 167.897 310.545 168.605C310.545 168.277 310.545 167.979 310.545 167.94C310.394 166.782 309.422 164.635 308.139 164.398C307.925 164.364 307.706 164.376 307.496 164.432C307.287 164.489 307.092 164.589 306.923 164.726C306.755 164.863 306.618 165.033 306.52 165.227C306.422 165.42 306.366 165.632 306.355 165.849C306.281 166.769 306.947 167.689 307.595 168.272C308.242 168.855 309.979 169.434 310.437 169.568C310.407 169.84 310.368 170.112 310.333 170.389C310.178 171.685 310.026 173.007 309.841 174.277C309.776 174.709 309.694 175.166 309.612 175.611C309.612 175.318 309.612 175.067 309.612 175.033C309.461 173.875 308.493 171.724 307.206 171.486C306.991 171.453 306.772 171.466 306.563 171.523C306.353 171.58 306.158 171.68 305.99 171.817C305.822 171.955 305.685 172.126 305.587 172.319C305.489 172.513 305.433 172.725 305.422 172.942C305.348 173.862 306.014 174.782 306.666 175.361C307.318 175.94 308.882 176.471 309.422 176.657C309.327 177.089 309.232 177.555 309.119 177.991C309.037 178.281 308.977 178.57 308.877 178.855C308.778 179.14 308.692 179.434 308.601 179.719C308.402 180.259 308.204 180.816 308.001 181.339L307.569 182.393C307.638 181.961 307.759 181.067 307.759 180.989C307.745 179.963 307.468 178.958 306.955 178.069C306.957 177.955 306.949 177.841 306.934 177.728C306.904 177.514 306.83 177.309 306.716 177.125C306.603 176.942 306.452 176.784 306.274 176.662C306.096 176.54 305.894 176.457 305.682 176.417C305.47 176.377 305.252 176.383 305.042 176.432C303.78 176.769 302.977 178.985 302.916 180.151C302.916 180.22 302.96 180.972 302.994 181.447C302.934 181.171 302.873 180.907 302.804 180.622C302.67 180.065 302.523 179.512 302.372 178.916C302.286 178.631 302.195 178.341 302.109 178.052C302.022 177.763 301.906 177.464 301.802 177.166C301.556 176.484 301.266 175.806 300.964 175.128C301.452 175.011 303.184 174.57 303.875 174.035C304.567 173.499 305.301 172.635 305.297 171.715C305.302 171.498 305.262 171.282 305.179 171.081C305.095 170.881 304.971 170.7 304.813 170.551C304.656 170.401 304.469 170.286 304.264 170.214C304.059 170.141 303.841 170.113 303.625 170.13C302.329 170.272 301.197 172.341 300.964 173.486C300.964 173.555 300.873 174.393 300.839 174.855C300.653 174.449 300.467 174.043 300.268 173.637C299.685 172.471 299.063 171.305 298.446 170.138L297.884 169.067C298.061 169.024 300.126 168.544 300.908 167.948C301.603 167.417 302.333 166.549 302.329 165.629C302.334 165.412 302.294 165.196 302.211 164.995C302.128 164.795 302.003 164.614 301.846 164.464C301.688 164.315 301.501 164.2 301.296 164.128C301.091 164.055 300.874 164.026 300.657 164.043C299.361 164.186 298.23 166.255 297.996 167.4C297.996 167.486 297.867 168.696 297.858 169.002C297.448 168.212 297.046 167.426 296.683 166.631C296.186 165.562 295.76 164.461 295.409 163.335C295.491 163.335 297.651 162.825 298.433 162.216C299.124 161.685 299.858 160.817 299.849 159.897C299.856 159.68 299.816 159.464 299.733 159.263C299.651 159.063 299.527 158.882 299.369 158.732C299.212 158.583 299.025 158.468 298.82 158.395C298.616 158.323 298.398 158.294 298.182 158.311C296.886 158.454 295.754 160.523 295.517 161.663C295.517 161.754 295.383 163.054 295.379 163.292L295.31 163.093C294.988 161.955 294.767 160.792 294.649 159.616C294.58 158.968 294.545 158.342 294.523 157.737C294.955 157.685 296.817 157.434 297.595 156.964C298.372 156.493 299.163 155.728 299.258 154.804C299.288 154.589 299.272 154.37 299.211 154.161C299.151 153.953 299.047 153.759 298.907 153.593C298.767 153.427 298.593 153.293 298.398 153.199C298.202 153.104 297.989 153.052 297.772 153.046C296.476 153.046 295.12 154.977 294.748 156.069C294.748 156.13 294.597 156.765 294.51 157.231C294.51 156.955 294.51 156.674 294.51 156.411C294.51 155.421 294.575 154.514 294.636 153.715C294.675 153.283 294.718 152.851 294.765 152.467C295.141 152.208 296.653 151.141 297.119 150.376C297.586 149.612 297.945 148.558 297.603 147.702C297.53 147.499 297.415 147.313 297.265 147.157C297.115 147.001 296.934 146.878 296.733 146.797C296.533 146.715 296.317 146.677 296.101 146.684C295.885 146.691 295.673 146.744 295.478 146.838C294.316 147.439 294.009 149.776 294.204 150.925C294.204 151.024 294.636 152.553 294.679 152.54H294.701C294.649 152.907 294.597 153.305 294.554 153.737C294.472 154.54 294.389 155.443 294.368 156.437C294.331 157.506 294.356 158.576 294.441 159.642C294.536 160.835 294.736 162.017 295.037 163.175V163.218C294.83 162.894 294.225 162.013 294.174 161.948C293.409 161.085 291.413 159.81 290.212 160.32C290.015 160.41 289.838 160.541 289.694 160.704C289.551 160.867 289.443 161.058 289.378 161.266C289.313 161.473 289.293 161.692 289.318 161.908C289.344 162.124 289.414 162.332 289.526 162.519C289.949 163.218 291.012 163.616 291.875 163.745Z" fill="#6DB32F"/>
<path d="M314.285 157.603C314.285 157.603 314.717 156.078 314.717 155.979C314.881 154.825 314.51 152.497 313.335 151.927C313.137 151.837 312.922 151.791 312.705 151.79C312.488 151.789 312.273 151.834 312.074 151.922C311.875 152.01 311.698 152.139 311.552 152.301C311.407 152.463 311.298 152.653 311.231 152.86C310.916 153.724 311.313 154.791 311.788 155.521C312.341 156.38 314.264 157.603 314.285 157.603Z" fill="#6DB32F"/>
<path d="M272.938 67.1849C272.938 67.1849 273.072 62.308 275.884 60.9257C278.696 59.5435 278.856 64.1093 278.856 64.1093C278.856 64.1093 285.288 60.0229 286.683 63.1201C288.079 66.2173 286.131 67.7162 286.131 67.7162C286.131 67.7162 291.841 67.5175 292.238 70.6492C292.636 73.7809 289.686 75.3144 289.686 75.3144C289.686 75.3144 293.215 78.1955 291.975 79.526C290.735 80.8564 288.023 80.9515 288.023 80.9515C288.023 80.9515 289.56 84.04 286.878 85.1372C284.195 86.2343 281.128 84.1912 281.128 84.1912C281.128 84.1912 281.604 85.608 279.591 85.2495C277.578 84.8909 275.543 83.9536 274.295 80.999C273.046 78.0444 271.435 69.6773 272.938 67.1849Z" fill="#263238" stroke="#263238" stroke-linecap="round" stroke-linejoin="round"/>
<path d="M243.245 161.374C243.245 161.374 241.642 167.491 241.668 168.169C241.694 168.847 241.137 170.385 241.608 170.821C242.489 171.54 243.423 172.191 244.402 172.769C244.802 172.764 245.191 172.645 245.526 172.428C245.634 172.331 245.721 172.212 245.781 172.08C245.841 171.948 245.873 171.804 245.875 171.659C245.875 171.43 245.232 170.471 245.145 170.246C245.059 170.022 246.325 167.097 246.804 165.642C247.163 164.342 247.42 163.016 247.573 161.676L243.245 161.374Z" fill="#BDBDBD" stroke="#263238" stroke-miterlimit="10"/>
<path d="M244.986 165.633C244.986 165.633 244.075 167.793 244.014 168.164C243.954 168.536 242.718 169.573 242.882 170.402C243.047 171.231 244.869 171.011 245.768 168.557" fill="#BDBDBD"/>
<path d="M244.986 165.633C244.986 165.633 244.075 167.793 244.014 168.164C243.954 168.536 242.718 169.573 242.882 170.402C243.047 171.231 244.869 171.011 245.768 168.557" stroke="#263238" stroke-miterlimit="10"/>
<path d="M249.068 128.148C249.068 128.148 248.303 140.623 248.014 141.724C247.725 142.826 244.252 152.886 243.487 155.979C243.018 157.894 242.685 159.84 242.489 161.802L247.15 162.782L249.768 151.283C249.768 151.283 253.189 140.804 252.493 135.893C252.137 133.031 250.946 130.337 249.068 128.148Z" fill="#6DB32F" stroke="#263238" stroke-miterlimit="10"/>
<path d="M273.348 187.08C273.405 184.367 273.517 180.708 273.78 178.613C274.212 174.994 275.759 172.756 277.348 168.246C278.938 163.737 279.076 157.81 279.076 157.81L250.61 158.804C250.61 158.804 247.31 171.041 245.31 180.043C244.767 182.353 244.45 184.709 244.364 187.08" fill="#6DB32F"/>
<path d="M273.348 187.08C273.405 184.367 273.517 180.708 273.78 178.613C274.212 174.994 275.759 172.756 277.348 168.246C278.938 163.737 279.076 157.81 279.076 157.81L250.61 158.804C250.61 158.804 247.31 171.041 245.31 180.043C244.767 182.353 244.45 184.709 244.364 187.08" stroke="#263238" stroke-miterlimit="10"/>
<path d="M254.338 163.391L278.022 164.056L278.523 162.225L254.338 163.391Z" fill="#263238" stroke="#263238" stroke-linecap="round" stroke-linejoin="round"/>
<path d="M253.141 186.648C253.141 186.648 252.675 171.836 252.662 163.797L253.141 186.648Z" fill="white"/>
<path d="M253.141 186.648C253.141 186.648 252.675 171.836 252.662 163.797" stroke="#263238" stroke-miterlimit="10"/>
<path d="M271.297 96.8131L274.752 99.137C274.752 99.137 278.843 102.791 279.849 105.815C280.856 108.839 280.126 126.795 279.111 132.597C278.096 138.398 280.631 145.625 281.534 149.702C282.437 153.78 282.83 161.365 282.83 161.365C282.83 161.365 283.469 162.255 272.376 162.64C261.284 163.024 253.547 163.603 252.64 163.784C252.092 163.897 251.536 163.967 250.977 163.996L250.545 160.057L249.47 163.301L247.167 162.774C247.167 162.774 248.597 155.724 248.956 152.977C249.314 150.229 251.578 140.882 251.608 137.366C251.638 133.849 248.701 128.191 248.126 124.709C247.552 121.228 248.709 115.258 251.582 110.748C254.454 106.238 256.381 104.493 261.996 99.8886C267.612 95.2839 271.297 96.8131 271.297 96.8131Z" fill="#6DB32F" stroke="#263238" stroke-miterlimit="10"/>
<path d="M262.295 149.448L273.884 150.761L273.232 147.728L266.001 147.106" stroke="#263238" stroke-miterlimit="10"/>
<path d="M258.243 146.938L257.655 148.925L260.562 149.253" stroke="#263238" stroke-miterlimit="10"/>
<path d="M262.593 127.081C262.048 126.576 261.548 126.025 261.098 125.435" stroke="#263238" stroke-miterlimit="10"/>
<path d="M266.623 130.484C266.623 130.484 265.401 129.56 264.062 128.411" stroke="#263238" stroke-miterlimit="10"/>
<path d="M271.297 96.813C271.297 96.813 267.612 95.2796 261.997 99.8886C256.381 104.498 254.459 106.247 251.574 110.748C249.85 113.531 248.704 116.632 248.204 119.867C248.273 120.204 248.347 120.545 248.429 120.895C250.036 127.685 251.824 130.968 251.824 130.968C251.824 130.968 254.934 115.495 260.347 109.223C265.759 102.951 274.748 99.137 274.748 99.137L271.297 96.813Z" fill="#6DB32F" stroke="#263238" stroke-miterlimit="10"/>
<path d="M257.789 66.6319C257.789 66.6319 253.733 70.4202 253.43 73.4051C253.128 76.39 252.813 78.9644 252.307 79.9277C251.802 80.891 249.253 81.5217 250.117 82.9774C250.981 84.4331 251.789 84.4028 251.789 84.4028C251.789 84.4028 253.085 90.8434 254.07 91.7462C255.054 92.649 258.54 92.1306 258.54 92.1306L259.62 99.9405C259.62 99.9405 252.368 106.372 250.955 115.336C249.543 124.299 251.158 129.413 251.158 129.413C251.158 129.413 252.104 115.292 255.37 110.005C258.635 104.718 266.221 99.7115 267.339 98.8087C268.458 97.9059 271.296 96.8044 271.296 96.8044C271.296 96.8044 269.948 93.7807 269.767 92.4157C269.586 91.0507 269.646 89.0421 269.901 88.4935C270.156 87.9449 274.687 86.2991 276.38 81.107C278.074 75.9148 275.581 69.7853 272.925 67.1762C270.268 64.5672 261.184 63.2713 257.789 66.6319Z" fill="#BDBDBD" stroke="#263238" stroke-miterlimit="10"/>
<path d="M276.398 81.1155C278.126 75.932 275.599 69.7938 272.942 67.1848C270.286 64.5758 261.189 63.2712 257.793 66.6319C257.793 66.6319 257.577 66.8349 257.24 67.1848C258.531 66.8621 259.875 66.8179 261.184 67.0552C263.901 67.4872 263.841 69.647 263.102 71.7161C262.364 73.7852 262.921 74.1523 264.307 75.1718C265.694 76.1912 264.273 78.148 265.249 78.9255C266.225 79.703 267.02 75.4698 269.137 78.5194C271.253 81.5691 269.832 82.9514 268.51 83.8067C267.77 84.301 266.967 84.6933 266.122 84.9729C266.122 84.9729 268.122 87.3185 270.096 88.2861C271.042 87.582 274.86 85.7807 276.398 81.1155Z" fill="#263238" stroke="#263238" stroke-linecap="round" stroke-linejoin="round"/>
<path d="M253.988 85.5432C253.988 85.5432 256.817 85.3099 258.126 84.0486" stroke="#263238" stroke-miterlimit="10"/>
<path d="M255.785 78.8607C255.807 79.5303 255.552 80.0832 255.219 80.0961C254.887 80.1091 254.593 79.5735 254.567 78.9039C254.541 78.2344 254.8 77.6815 255.133 77.6685C255.465 77.6555 255.759 78.1912 255.785 78.8607Z" fill="#263238"/>
<path d="M254.567 76.1264C254.567 76.1264 255.478 74.8997 256.783 76.3467" stroke="#263238" stroke-miterlimit="10"/>
<path d="M258.541 92.1392L261.915 90.8693L259.565 95.0895L258.541 92.1392Z" fill="#263238" stroke="#263238" stroke-miterlimit="10"/>
<path d="M248.826 154.139L244.403 172.769L248.373 173.693L250.558 160.069L248.826 154.139Z" fill="white" stroke="#263238" stroke-miterlimit="10"/>
<path d="M252.735 109.534C251.886 111.383 251.287 113.337 250.956 115.344C249.543 124.303 251.159 129.422 251.159 129.422C251.159 129.422 252.096 115.491 255.305 110.126C254.429 110.027 253.567 109.829 252.735 109.534Z" fill="white" stroke="#263238" stroke-miterlimit="10"/>
<path d="M266.403 115.348L266.1 131.158L238.433 135.72L239.038 143.171C239.038 143.171 254.394 143.473 261.539 142.864C268.683 142.255 274.929 141.802 275.828 141.041C276.726 140.281 279.331 125.586 280.394 115.249C281.456 104.912 279.331 101.426 275.076 102.022" fill="#6DB32F"/>
<path d="M266.403 115.348L266.1 131.158L238.433 135.72L239.038 143.171C239.038 143.171 254.394 143.473 261.539 142.864C268.683 142.255 274.929 141.802 275.828 141.041C276.726 140.281 279.331 125.586 280.394 115.249C281.456 104.912 279.331 101.426 275.076 102.022" stroke="#263238" stroke-miterlimit="10"/>
<path d="M221.881 135.05L219.665 141.772L221.824 142.947C221.824 142.947 224.567 145.072 226.071 146.221C227.574 147.37 228.727 147.37 229.526 147.016C230.325 146.661 233.95 141.53 234.39 140.558C234.831 139.586 232.71 136.67 230.589 135.426C228.468 134.182 226.701 134.191 225.457 134.562C224.28 134.818 223.084 134.982 221.881 135.05Z" fill="white" stroke="#263238" stroke-miterlimit="10"/>
<path d="M238.433 135.72L234.934 135.417C233.836 135.131 232.719 134.927 231.591 134.808C230.679 134.808 229.461 135.72 228.852 136.178C228.243 136.635 221.556 143.931 221.556 143.931C221.556 143.931 222.165 145.145 223.077 144.843C223.988 144.54 225.668 143.776 225.668 143.776C225.668 143.776 223.846 145.603 224.757 146.514C225.668 147.426 227.189 147.426 227.189 147.426L228.256 146.817C228.704 147.171 229.22 147.429 229.772 147.577C230.532 147.728 231.75 147.426 232.796 146.817C233.841 146.208 236.558 143.037 236.558 143.037L238.891 142.134L238.433 135.72Z" fill="#BDBDBD" stroke="#263238" stroke-miterlimit="10"/>
<path d="M223.085 135.34C223.085 135.34 227.508 132.774 229.452 133.482C231.396 134.191 233.966 138.523 233.258 139.145C232.549 139.767 231.4 139.495 230.783 138.877C230.266 138.408 229.703 137.993 229.102 137.638C227.938 138.292 226.632 138.657 225.297 138.7" fill="white"/>
<path d="M223.085 135.34C223.085 135.34 227.508 132.774 229.452 133.482C231.396 134.191 233.966 138.523 233.258 139.145C232.549 139.767 231.4 139.495 230.783 138.877C230.266 138.408 229.703 137.993 229.102 137.638C227.938 138.292 226.632 138.657 225.297 138.7" stroke="#263238" stroke-miterlimit="10"/>
<path d="M236.278 145.383L234.874 144.631C234.761 144.571 234.661 144.489 234.579 144.391C234.498 144.292 234.437 144.178 234.399 144.056C234.362 143.933 234.349 143.805 234.362 143.677C234.374 143.55 234.412 143.426 234.472 143.314C234.532 143.201 234.614 143.101 234.713 143.02C234.812 142.939 234.926 142.878 235.048 142.842C235.171 142.805 235.299 142.792 235.426 142.805C235.554 142.818 235.677 142.856 235.789 142.916L237.193 143.663C237.421 143.785 237.591 143.992 237.666 144.239C237.741 144.486 237.716 144.753 237.595 144.981C237.473 145.209 237.266 145.379 237.019 145.454C236.772 145.529 236.506 145.504 236.278 145.383Z" fill="white" stroke="#263238" stroke-miterlimit="10"/>
<path d="M235.038 146.886L233.634 146.134C233.412 146.013 233.246 145.809 233.171 145.568C233.097 145.326 233.118 145.064 233.232 144.838C233.355 144.617 233.559 144.452 233.8 144.378C234.042 144.304 234.303 144.327 234.528 144.441L235.932 145.188C236.155 145.309 236.322 145.512 236.397 145.755C236.472 145.997 236.449 146.258 236.334 146.484C236.213 146.707 236.01 146.874 235.768 146.949C235.526 147.024 235.264 147.001 235.038 146.886Z" fill="white" stroke="#263238" stroke-miterlimit="10"/>
<path d="M233.621 148.212L232.217 147.46C232.104 147.401 232.004 147.319 231.923 147.22C231.841 147.121 231.78 147.007 231.743 146.885C231.706 146.762 231.694 146.634 231.707 146.506C231.72 146.379 231.759 146.255 231.82 146.143C231.88 146.03 231.962 145.931 232.061 145.85C232.16 145.769 232.274 145.708 232.396 145.671C232.518 145.634 232.647 145.622 232.774 145.634C232.901 145.647 233.025 145.685 233.137 145.746L234.541 146.497C234.654 146.558 234.753 146.639 234.834 146.738C234.915 146.837 234.976 146.951 235.013 147.074C235.05 147.196 235.062 147.324 235.05 147.452C235.037 147.579 234.999 147.702 234.938 147.815C234.878 147.927 234.796 148.027 234.697 148.108C234.598 148.189 234.485 148.25 234.362 148.287C234.24 148.324 234.111 148.336 233.984 148.323C233.857 148.31 233.734 148.273 233.621 148.212Z" fill="white" stroke="#263238" stroke-miterlimit="10"/>
<path d="M230.641 148.277L230.273 148.083C230.16 148.023 230.06 147.941 229.979 147.842C229.897 147.743 229.836 147.63 229.799 147.507C229.762 147.385 229.749 147.256 229.761 147.129C229.774 147.001 229.811 146.878 229.872 146.765C229.994 146.537 230.201 146.367 230.447 146.292C230.694 146.217 230.961 146.242 231.189 146.363L231.556 146.562C231.669 146.622 231.77 146.704 231.851 146.802C231.932 146.901 231.994 147.015 232.031 147.137C232.068 147.26 232.081 147.388 232.068 147.516C232.056 147.643 232.018 147.767 231.958 147.879C231.898 147.992 231.816 148.092 231.717 148.173C231.618 148.254 231.504 148.315 231.382 148.351C231.259 148.388 231.131 148.401 231.004 148.388C230.877 148.375 230.753 148.337 230.641 148.277Z" fill="white" stroke="#263238" stroke-miterlimit="10"/>
<path d="M221.88 135.05L203.315 127.202L204.002 139.499L219.332 143.011L221.88 135.05Z" fill="#263238" stroke="#263238" stroke-linecap="round" stroke-linejoin="round"/>
<path d="M219.332 143.011L221.88 135.05L219.284 133.901L219.232 134.165L216.856 142.411L219.332 143.011Z" fill="white" stroke="#263238" stroke-miterlimit="10"/>
<path d="M192.883 85.8585L197.634 88.0658C197.634 88.0658 199.63 93.7202 198.965 93.8844C198.299 94.0485 193.31 90.0615 193.31 90.0615L192.883 85.8585Z" fill="white" stroke="#263238" stroke-linecap="round" stroke-linejoin="round"/>
<path d="M195.643 84.7268L195.975 82.8219C195.975 82.8219 200.381 83.1242 202.144 83.1113C203.906 83.0983 205.444 82.8737 205.431 81.0033C205.418 79.1329 204.39 72.7529 204.39 72.7529C204.39 72.7529 206.368 72.2993 207.133 71.4138C207.897 70.5283 206.792 69.4354 205.794 68.1179C204.796 66.8004 203.902 65.3793 203.785 63.8372C203.668 62.2951 200.99 57.2498 200.99 57.2498C200.99 57.2498 201.422 56.4766 199.984 54.8351C198.545 53.1937 191.168 52.9086 186.446 55.2671C181.725 57.6256 180.649 61.0294 180.671 64.7702C180.692 68.511 182.831 73.7852 182.831 73.7852C182.831 73.7852 181.435 79.5174 181.327 79.8327C181.219 80.148 179.967 82.6059 179.967 82.6059C179.967 82.6059 185.872 86.7225 188.027 88.5713C190.183 90.4201 195.051 93.582 195.081 91.8715C195.111 90.1609 195.306 86.2992 195.306 86.2992L195.643 84.7268Z" fill="white" stroke="#263238" stroke-linecap="round" stroke-linejoin="round"/>
<path d="M202.153 66.8608C202.178 67.5001 202.032 68.0228 201.82 68.0315C201.608 68.0401 201.41 67.5347 201.388 66.8954C201.366 66.2561 201.505 65.7334 201.721 65.7248C201.937 65.7161 202.122 66.2215 202.153 66.8608Z" fill="#263238"/>
<path d="M199.055 64.7485C199.055 64.7485 200.036 63.0898 202.576 64.066" stroke="#263238" stroke-width="2" stroke-linecap="round" stroke-linejoin="round"/>
<path d="M205.431 81.0033C205.431 79.1286 204.39 72.7529 204.39 72.7529C204.39 72.7529 203.176 72.1006 200.865 72.6621C198.554 73.2237 197.924 76.9818 197.483 77.4137C197.043 77.8457 194.17 75.2539 193.056 73.4785C191.941 71.7032 191.155 68.6665 191.034 66.8911C190.913 65.1158 195.09 64.2216 195.742 62.5715C196.395 60.9214 193.315 59.1634 194.39 58.0619C195.466 56.9604 197.69 57.3837 198.792 57.5953C199.543 57.6969 200.307 57.5768 200.991 57.2498C200.991 57.2498 201.423 56.4766 199.984 54.8351C198.546 53.1937 191.168 52.9086 186.447 55.2671C181.725 57.6256 180.65 61.0294 180.671 64.7702C180.693 67.7939 182.092 71.8371 182.619 73.2626C183.065 73.4554 183.546 73.5554 184.032 73.5563C184.464 73.444 184.792 72.1222 185.004 70.7961C185.215 69.4699 188.399 67.9149 188.399 67.9149C188.399 67.9149 188.974 71.876 188.978 72.6449C188.982 73.4138 188.546 77.2712 190.671 79.1243C192.335 80.5037 194.109 81.7447 195.976 82.8348C195.976 82.8348 200.382 83.1372 202.144 83.1242C203.906 83.1113 205.444 82.8737 205.431 81.0033Z" fill="#263238" stroke="#263238" stroke-linecap="round" stroke-linejoin="round"/>
<path d="M189.077 70.6449C189.077 70.6449 188.161 65.3663 186.624 65.5953C185.086 65.8242 184.213 67.8112 184.999 70.3468C185.786 72.8824 187.328 72.6449 188.205 72.4202" fill="white"/>
<path d="M189.077 70.6449C189.077 70.6449 188.161 65.3663 186.624 65.5953C185.086 65.8242 184.213 67.8112 184.999 70.3468C185.786 72.8824 187.328 72.6449 188.205 72.4202" stroke="#263238" stroke-linecap="round" stroke-linejoin="round"/>
<path d="M199.889 74.6491C199.889 74.6491 200.775 75.7463 203.086 75.7333" stroke="white" stroke-linecap="round" stroke-linejoin="round"/>
<path d="M175.172 187.08H198.498C198.576 185.853 199.483 181.136 199.483 178.043C199.483 174.471 201.941 151.426 201.941 151.426L171.604 151.028L172.598 165.132L175.172 187.08Z" fill="#263238" stroke="#263238" stroke-linecap="round" stroke-linejoin="round"/>
<path d="M178.197 83.4093C178.197 83.4093 172.879 90.23 171.38 94.0528C169.881 97.8757 168.719 98.5409 169.052 103.362C169.384 108.182 171.717 127.469 171.717 127.469L167.061 152.579C172.557 154.548 178.35 155.559 184.188 155.568C193.829 155.568 198.011 154.739 198.654 154.406C199.298 154.074 205.134 152.579 205.134 152.579C205.134 152.579 205.134 124.148 203.302 114.338C201.471 104.528 199.147 97.0593 198.317 95.2148C197.488 93.3703 194.823 87.4006 194.823 87.4006L178.197 83.4093Z" fill="#263238" stroke="#263238" stroke-linecap="round" stroke-linejoin="round"/>
<path d="M198.33 95.2148C197.496 93.3876 194.836 87.4006 194.836 87.4006L178.196 83.4093C178.196 83.4093 177.073 84.8521 175.713 86.7829C179.337 88.8866 188.309 94.0874 188.84 94.217C189.505 94.3854 192.831 94.0528 192.831 94.0528L191.345 95.88C191.345 95.88 195.337 99.042 196.667 100.368C197.367 101.068 199.397 102.917 201.168 104.515C199.963 99.7374 198.848 96.3638 198.33 95.2148Z" fill="#263238" stroke="#263238" stroke-linecap="round" stroke-linejoin="round"/>
<path d="M190.68 91.0593L196.334 95.5473L200.987 103.863L197.997 91.7245L191.846 88.2343L190.68 91.0593Z" fill="white" stroke="#263238" stroke-linecap="round" stroke-linejoin="round"/>
<path d="M179.375 80.2517L196.783 88.0961V94.2472L176.878 84.0746L179.375 80.2517Z" fill="white" stroke="#263238" stroke-linecap="round" stroke-linejoin="round"/>
<path d="M202.395 143.175H172.313V167.516H202.395V143.175Z" fill="#6DB32F" stroke="#263238" stroke-miterlimit="10"/>
<path d="M189.198 154.778C189.198 154.778 191.436 157.694 192.313 157.987C193.051 158.291 193.661 158.84 194.04 159.542C194.429 160.126 194.904 164.501 195.207 164.795C195.509 165.089 195.5 165.767 194.429 165.279C193.358 164.791 192.701 163.119 192.701 163.119L193.09 167.007C193.09 167.007 193.954 167.201 193.284 167.689C192.615 168.177 192.019 168.855 191.436 168.553C190.917 168.244 190.429 167.885 189.98 167.482C189.285 167.715 188.545 167.782 187.82 167.676C186.753 167.482 186.956 167.871 185.976 167.188C184.995 166.506 184.999 167.287 184.516 166.022C183.762 163.757 183.145 161.449 182.667 159.11C182.472 157.845 182.278 156.087 182.278 156.087L189.198 154.778Z" fill="white" stroke="#263238" stroke-linecap="round" stroke-linejoin="round"/>
<path d="M189.591 152.929L190.269 155.944L181.907 157.111L181.518 154.095L189.591 152.929Z" fill="white" stroke="#263238" stroke-linecap="round" stroke-linejoin="round"/>
<path d="M178.874 89.4006C178.874 89.4006 173.056 91.2278 172.891 93.8886C172.727 96.5495 170.796 128.821 171.63 130.981C172.464 133.141 180.641 155.028 180.641 155.028L190.118 153.866C190.118 153.866 185.263 128.484 185.107 127.983C184.952 127.482 188.364 99.2061 188.364 99.2061" fill="#263238"/>
<path d="M178.874 89.4006C178.874 89.4006 173.056 91.2278 172.891 93.8886C172.727 96.5495 170.796 128.821 171.63 130.981C172.464 133.141 180.641 155.028 180.641 155.028L190.118 153.866C190.118 153.866 185.263 128.484 185.107 127.983C184.952 127.482 188.364 99.2061 188.364 99.2061" stroke="#263238" stroke-linecap="round" stroke-linejoin="round"/>
<path d="M187.237 107.327L185.095 127.983L187.138 140.817" stroke="#878787" stroke-linecap="round" stroke-linejoin="round"/>
<path d="M187.565 104.165L187.453 105.262" stroke="#878787" stroke-linecap="round" stroke-linejoin="round"/>
<path d="M172.222 100.969L171.583 120.364" stroke="#878787" stroke-linecap="round" stroke-linejoin="round"/>
<path d="M193.958 137.43L200.351 137.197L200.926 139.499L190.334 140.178" stroke="#878787" stroke-linecap="round" stroke-linejoin="round"/>
<path d="M188.633 137.62L192.036 137.5" stroke="#878787" stroke-linecap="round" stroke-linejoin="round"/>
<path d="M177.125 87.3315L188.853 94.2169L192.844 94.0528L191.345 95.88L199.073 102.035" stroke="#878787" stroke-linecap="round" stroke-linejoin="round"/>
<path d="M127 187.08H324.186" stroke="#263238" stroke-miterlimit="10"/>
</svg>
