<svg width="294" height="186" viewBox="0 0 294 186" fill="none" xmlns="http://www.w3.org/2000/svg">
<rect width="150" height="181" rx="6" fill="#152D00"/>
<path d="M238.044 47.6933C247.93 69.5766 267.54 83.7299 281.301 102.783C293.977 120.294 298.115 144.715 286.979 164.149C274.244 186.319 247.303 183.57 226.475 176.397C215.604 172.652 203.519 165.227 191.751 165.227C175.588 165.227 155.486 186.636 123.182 185.739C99.6054 185.112 71.6857 179.697 62.5198 154.713C51.0448 123.388 81.508 99.1783 98.6677 77.3829C110.26 62.6553 117.65 45.1967 129.43 30.598C137.189 20.9808 147.551 10.971 159.963 8.57986C174.568 5.76093 189.172 5.83125 203.273 11.1116C221.236 17.8454 230.431 30.8383 238.044 47.6933Z" fill="#6DB32F"/>
<path opacity="0.7" d="M238.044 47.6933C247.93 69.5766 267.54 83.7299 281.301 102.783C293.977 120.294 298.115 144.715 286.979 164.149C274.244 186.319 247.303 183.57 226.475 176.397C215.604 172.652 203.519 165.227 191.751 165.227C175.588 165.227 155.486 186.636 123.182 185.739C99.6054 185.112 71.6857 179.697 62.5198 154.713C51.0448 123.388 81.508 99.1783 98.6677 77.3829C110.26 62.6553 117.65 45.1967 129.43 30.598C137.189 20.9808 147.551 10.971 159.963 8.57986C174.568 5.76093 189.172 5.83125 203.273 11.1116C221.236 17.8454 230.431 30.8383 238.044 47.6933Z" fill="white"/>
<path d="M185.99 35.9076L189.506 34.2901L188.756 30.0412L184.847 29.7364C184.35 28.4269 183.694 27.1831 182.895 26.0326L184.912 22.6334L181.858 19.5801L178.424 21.6137C176.452 20.2758 174.222 19.3655 171.878 18.9413L170.94 15.0264H166.621L165.63 18.9647C164.29 19.2203 162.986 19.6354 161.745 20.2013L158.633 17.5289L155.116 20.0079L156.576 23.8231C155.626 24.7964 154.792 25.876 154.091 27.0406L150.029 26.6245L148.553 30.68L151.917 32.9656C151.756 33.9124 151.676 34.8711 151.676 35.8314C151.676 36.2417 151.676 36.6461 151.723 37.0446L148.207 39.0196L149.326 43.1923L153.335 43.1396C153.925 44.3962 154.665 45.5769 155.538 46.6559L153.78 50.2484L157.091 53.0263L160.297 50.729C161.513 51.4288 162.81 51.976 164.159 52.3582L164.798 56.2262L169.1 56.6013L170.401 52.9384C171.812 52.8132 173.202 52.5119 174.538 52.0418L177.252 54.8021L180.991 52.6454L179.965 48.9239C181.047 48.0025 182.012 46.9514 182.837 45.7944L186.64 46.4918L188.463 42.577L185.48 40.1214C185.824 38.7433 185.995 37.3279 185.99 35.9076ZM179.602 35.8314C179.602 37.9642 178.969 40.0491 177.785 41.8224C176.6 43.5957 174.915 44.9779 172.945 45.794C170.975 46.6102 168.806 46.8238 166.715 46.4077C164.623 45.9916 162.701 44.9646 161.193 43.4565C159.685 41.9484 158.658 40.027 158.242 37.9352C157.826 35.8434 158.04 33.6752 158.856 31.7048C159.672 29.7344 161.054 28.0502 162.827 26.8653C164.601 25.6804 166.686 25.048 168.818 25.048C171.678 25.048 174.421 26.1841 176.443 28.2064C178.466 30.2287 179.602 32.9715 179.602 35.8314Z" fill="#263238"/>
<path d="M185.99 33.7275L189.506 32.1159L188.756 27.8611L184.847 27.5563C184.351 26.248 183.696 25.006 182.895 23.8583L184.912 20.4533L181.858 17.4L178.424 19.4395C176.453 18.0996 174.223 17.1891 171.878 16.767L170.94 12.8463H166.621L165.63 16.7905C164.291 17.044 162.986 17.4572 161.745 18.0212L158.633 15.3546L155.116 17.8278L156.576 21.6489C155.624 22.6198 154.789 23.6997 154.091 24.8663L150.029 24.4444L148.553 28.5057L151.917 30.7855C151.757 31.7324 151.676 32.691 151.676 33.6513C151.676 34.0616 151.676 34.4659 151.723 34.8703L148.207 36.8453L149.256 41.0181L153.264 40.9653C153.854 42.2222 154.594 43.4029 155.468 44.4817L153.71 48.08L157.021 50.8521L160.227 48.5547C161.441 49.2588 162.738 49.8081 164.089 50.1898L164.728 54.052L169.029 54.4329L170.33 50.77C171.742 50.6448 173.132 50.3435 174.468 49.8734L177.181 52.6278L180.92 50.4712L179.895 46.7497C180.978 45.8297 181.943 44.7784 182.767 43.6201L186.57 44.3234L188.393 40.4086L185.41 37.9471C185.778 36.5703 185.973 35.1527 185.99 33.7275ZM179.602 33.6513C179.598 35.7833 178.963 37.8665 177.776 39.6375C176.589 41.4085 174.904 42.7879 172.933 43.6014C170.962 44.4149 168.795 44.6259 166.704 44.2078C164.613 43.7898 162.693 42.7614 161.187 41.2526C159.681 39.7438 158.656 37.8223 158.241 35.731C157.826 33.6397 158.041 31.4724 158.857 29.503C159.674 27.5337 161.056 25.8506 162.829 24.6664C164.602 23.4823 166.686 22.8503 168.818 22.8503C170.236 22.8503 171.64 23.1298 172.949 23.6728C174.259 24.2158 175.448 25.0117 176.45 26.0149C177.451 27.0181 178.245 28.2089 178.786 29.5193C179.327 30.8296 179.604 32.2337 179.602 33.6513Z" fill="#6DB32F" stroke="#263238" stroke-width="1.08337" stroke-linecap="round" stroke-linejoin="round"/>
<path d="M179.655 95.7499L185.955 92.8841L184.625 85.324L177.674 84.7789C176.789 82.4512 175.622 80.2409 174.199 78.1975L177.779 72.1494L172.353 66.7225L166.252 70.3209C162.746 67.9436 158.781 66.3265 154.613 65.5739L152.854 58.6057H145.154L143.395 65.6383C141.015 66.0903 138.697 66.8261 136.492 67.8302L131.006 63.0831L124.718 67.4844L127.308 74.2768C125.613 75.9999 124.127 77.9179 122.883 79.9909L115.657 79.2466L113.032 86.4609L119.016 90.5223C118.728 92.2067 118.583 93.9123 118.582 95.621C118.582 96.3477 118.617 97.0627 118.67 97.7777L112.37 101.294L114.356 108.708L121.489 108.614C122.539 110.848 123.858 112.946 125.415 114.861L122.338 121.249L128.199 126.184L133.895 122.081C136.059 123.324 138.365 124.298 140.764 124.982L141.93 131.857L149.578 132.525L151.887 125.996C154.398 125.772 156.87 125.237 159.248 124.402L164.072 129.308L170.723 125.469L168.895 118.852C170.822 117.215 172.539 115.345 174.005 113.285L180.762 114.533L184.003 107.577L178.729 103.199C179.346 100.764 179.657 98.2617 179.655 95.7499ZM168.303 95.621C168.303 99.4124 167.179 103.119 165.072 106.271C162.966 109.424 159.972 111.881 156.469 113.332C152.966 114.783 149.112 115.162 145.393 114.423C141.674 113.683 138.259 111.857 135.578 109.176C132.897 106.495 131.071 103.079 130.331 99.3608C129.592 95.6422 129.971 91.7878 131.422 88.285C132.873 84.7821 135.33 81.7882 138.483 79.6818C141.635 77.5754 145.342 76.4511 149.133 76.4511C154.217 76.4526 159.092 78.4728 162.686 82.0675C166.281 85.6622 168.301 90.5373 168.303 95.621Z" fill="#263238"/>
<path d="M179.655 92.802L185.955 89.9304L184.625 82.3702L177.674 81.8311C176.789 79.5033 175.622 77.293 174.199 75.2496L177.779 69.2015L172.353 63.7688L166.252 67.3906C162.746 65.0115 158.781 63.3925 154.613 62.6377L152.854 55.6754H145.154L143.395 62.708C141.015 63.16 138.697 63.8958 136.492 64.8999L131.006 60.1528L124.718 64.5541L127.308 71.3465C125.616 73.072 124.135 74.9921 122.895 77.0664L115.675 76.2987L113.049 83.513L119.033 87.5744C118.746 89.2569 118.601 90.9605 118.599 92.6673C118.599 93.394 118.635 94.1148 118.687 94.8298L112.387 98.3461L114.374 105.766L121.506 105.672C122.551 107.898 123.864 109.988 125.415 111.896L122.338 118.29L128.199 123.224L133.895 119.122C136.058 120.365 138.364 121.337 140.764 122.017L141.93 128.927L149.578 129.601L151.887 123.066C154.398 122.842 156.87 122.306 159.248 121.472L164.072 126.377L170.723 122.539L168.895 115.922C170.822 114.285 172.539 112.415 174.005 110.354L180.762 111.603L184.003 104.64L178.729 100.268C179.347 97.8279 179.658 95.3197 179.655 92.802ZM168.303 92.6673C168.303 96.4587 167.179 100.165 165.072 103.317C162.966 106.47 159.972 108.927 156.469 110.378C152.966 111.829 149.112 112.208 145.393 111.469C141.674 110.729 138.259 108.903 135.578 106.222C132.897 103.541 131.071 100.126 130.331 96.4071C129.592 92.6885 129.971 88.8341 131.422 85.3312C132.873 81.8284 135.33 78.8345 138.483 76.7281C141.635 74.6216 145.342 73.4973 149.133 73.4973C154.217 73.4973 159.093 75.517 162.688 79.1121C166.283 82.7071 168.303 87.5831 168.303 92.6673Z" fill="#6DB32F" stroke="#263238" stroke-width="1.08337" stroke-linecap="round" stroke-linejoin="round"/>
<path d="M249.126 112.464L255.426 109.593L254.09 102.032L247.128 101.493C246.242 99.1754 245.079 96.9733 243.664 94.9352L247.245 88.8813L241.818 83.4544L235.723 87.0762C232.215 84.697 228.249 83.078 224.078 82.3233L222.32 75.361H214.642L212.884 82.3936C210.503 82.8447 208.185 83.5806 205.98 84.5855L200.489 79.8326L194.201 84.2397L196.791 91.0321C195.103 92.7593 193.624 94.6791 192.384 96.752L185.152 96.0077L182.526 103.222L188.522 107.242C188.24 108.925 188.096 110.629 188.094 112.335C188.094 113.062 188.129 113.783 188.176 114.492L181.882 118.008L183.833 125.41L190.96 125.316C192.009 127.541 193.324 129.631 194.875 131.54L191.798 137.934L197.658 142.869L203.361 138.766C205.52 140.025 207.827 141.009 210.229 141.697L211.402 148.571L219.02 149.239L221.323 142.734C223.833 142.508 226.306 141.973 228.684 141.14L233.513 146.039L240.159 142.201L238.337 135.59C240.263 133.951 241.979 132.081 243.447 130.022L250.228 131.271L253.474 124.314L248.2 119.936C248.814 117.493 249.125 114.984 249.126 112.464ZM237.751 112.329C237.754 116.122 236.632 119.831 234.527 122.986C232.422 126.141 229.428 128.601 225.925 130.054C222.421 131.507 218.565 131.889 214.845 131.149C211.125 130.41 207.708 128.584 205.026 125.902C202.344 123.22 200.517 119.803 199.778 116.083C199.039 112.362 199.42 108.506 200.873 105.003C202.326 101.499 204.786 98.5055 207.941 96.4005C211.097 94.2954 214.805 93.1736 218.598 93.1771C223.677 93.1802 228.546 95.199 232.138 98.7901C235.729 102.381 237.747 107.251 237.751 112.329Z" fill="#263238"/>
<path d="M249.126 109.516L255.426 106.645L254.09 99.0845L247.128 98.5454C246.238 96.2166 245.069 94.0047 243.646 91.9581L247.227 85.91L241.8 80.4831L235.705 84.1049C232.198 81.7257 228.231 80.1067 224.06 79.352L222.302 72.3896H214.625L212.867 79.4223C210.486 79.8734 208.168 80.6093 205.963 81.6142L200.472 76.8613L194.183 81.2684L196.774 88.0608C195.084 89.7868 193.605 91.7068 192.366 93.7807L185.134 93.0364L182.515 100.21L188.522 104.312C188.24 105.997 188.096 107.702 188.094 109.411C188.094 110.138 188.129 110.853 188.176 111.568L181.882 115.084L183.833 122.48L190.96 122.392C192.011 124.616 193.325 126.706 194.875 128.616L191.798 135.01L197.658 139.944L203.361 135.842C205.523 137.086 207.83 138.06 210.229 138.743L211.402 145.617L219.02 146.286L221.341 139.78C223.851 139.557 226.324 139.022 228.702 138.186L233.531 143.092L240.177 139.253L238.354 132.642C240.279 131.002 241.995 129.132 243.465 127.075L250.228 128.34L253.474 121.384L248.2 117.006C248.815 114.557 249.126 112.042 249.126 109.516ZM237.751 109.382C237.751 113.173 236.626 116.879 234.52 120.032C232.413 123.184 229.42 125.641 225.917 127.092C222.414 128.543 218.559 128.923 214.841 128.183C211.122 127.443 207.706 125.618 205.026 122.937C202.345 120.256 200.519 116.84 199.779 113.121C199.039 109.403 199.419 105.548 200.87 102.046C202.321 98.5427 204.778 95.5488 207.93 93.4423C211.083 91.3359 214.789 90.2116 218.581 90.2116C221.098 90.2109 223.591 90.7062 225.918 91.6693C228.244 92.6324 230.357 94.0444 232.138 95.8246C233.918 97.6049 235.33 99.7185 236.293 102.045C237.256 104.371 237.751 106.864 237.751 109.382Z" fill="#6DB32F" stroke="#263238" stroke-width="1.08337" stroke-linecap="round" stroke-linejoin="round"/>
<path d="M240.834 127.678C240.905 128.176 240.792 128.682 240.517 129.102C240.042 130.052 239.251 130.368 239.726 130.861C240.206 131.25 240.739 131.57 241.308 131.81C241.308 131.81 241.625 134.975 243.066 136.399C244.508 137.823 247.814 136.082 247.814 136.082L249.396 138.931L253.194 136.715C253.194 136.715 252.244 135.766 251.136 132.443C250.029 129.12 248.288 126.746 244.965 126.43C241.642 126.113 240.834 127.678 240.834 127.678Z" fill="white" stroke="#263238" stroke-miterlimit="10"/>
<path d="M231.808 142.869L230.859 140.337C230.384 139.071 229.277 138.579 228.011 138.579C226.745 138.579 226.112 137.313 225.479 137.471C224.846 137.629 225.795 138.579 226.27 139.054C226.601 139.368 226.973 139.634 227.378 139.845C226.044 139.742 224.721 139.53 223.422 139.212C221.664 138.737 221.998 139.37 223.264 140.478C224.53 141.585 226.428 142.693 227.061 142.693C227.813 142.783 228.554 142.942 229.277 143.168L230.132 144.75L231.808 142.869Z" fill="white" stroke="#263238" stroke-miterlimit="10"/>
<path d="M249.044 122.21L246.407 121.624C245.083 121.337 244.455 120.306 244.28 119.051C244.104 117.797 242.756 117.352 242.82 116.707C242.885 116.063 243.992 116.86 244.502 117.293C244.858 117.577 245.174 117.909 245.44 118.278C245.155 116.972 244.763 115.692 244.268 114.451C243.547 112.792 244.221 113.021 245.499 114.117C246.776 115.213 248.136 116.936 248.23 117.557C248.351 118.05 248.579 118.51 248.898 118.905L249.953 120.224L249.044 122.21Z" fill="white" stroke="#263238" stroke-miterlimit="10"/>
<path d="M230.226 156.635L229.277 143.185C229.649 142.949 230.069 142.797 230.507 142.743C230.945 142.688 231.389 142.731 231.808 142.869L235.911 154.42C235.911 154.42 232.758 158.851 230.226 156.635Z" fill="#6DB32F" stroke="#263238" stroke-miterlimit="10"/>
<path d="M242.099 167.554C242.099 167.554 236.239 165.497 235.764 167.87C235.289 170.244 242.732 173.098 245.264 172.94C247.796 172.781 245.422 168.825 242.099 167.554Z" fill="white" stroke="#263238" stroke-miterlimit="10"/>
<path d="M252.403 162.807C252.403 162.807 243.067 156.946 240.535 155.686C238.003 154.426 235.149 154.737 234.041 157.268C232.934 159.8 244.004 170.091 246.548 173.572C249.091 177.054 255.251 178.003 258.416 178.003C261.58 178.003 267.119 174.522 267.751 171.515C268.384 168.509 268.068 158.376 267.277 155.692C266.486 153.008 264.587 151.261 262.371 153.793C260.156 156.325 254.6 162.965 252.403 162.807Z" fill="#263238"/>
<path d="M251.781 163.076C251.781 163.076 248.78 170.349 249.126 172.775" stroke="white" stroke-width="0.5" stroke-miterlimit="10"/>
<path d="M264.944 162.039C264.944 162.039 267.481 165.039 267.593 168.04" stroke="white" stroke-width="0.5" stroke-miterlimit="10"/>
<path d="M253.334 135.907C253.334 135.907 249.853 137.805 248.429 139.388C247.005 140.97 232.605 153.787 231.175 154.578C229.745 155.369 229.593 158.534 232.125 158.851C234.657 159.167 247.005 152.521 247.005 152.521C247.005 152.521 245.897 155.369 247.005 156.319C248.112 157.268 250.961 158.077 251.277 159.325C251.594 160.574 251.119 163.123 252.701 164.389C254.284 165.655 259.189 166.147 262.195 163.756C265.202 161.365 265.044 155.686 264.411 151.888C263.778 148.091 264.885 134.166 264.094 131.001C263.303 127.837 249.062 120.241 249.062 120.241L248.429 122.615C248.429 122.615 257.923 129.577 258.081 130.233C258.239 130.89 253.334 135.907 253.334 135.907Z" fill="#6DB32F" stroke="#263238" stroke-miterlimit="10"/>
<path d="M247.005 152.521L252.76 150.628" stroke="#263238" stroke-miterlimit="10" stroke-linecap="round"/>
<path d="M247.632 152.134L252.76 153.793" stroke="#263238" stroke-miterlimit="10" stroke-linecap="round"/>
<path d="M245.897 120.083C245.087 119.491 244.104 119.185 243.101 119.214C242.098 119.242 241.133 119.604 240.359 120.241C237.352 122.456 239.251 125.779 240.042 126.729L240.834 127.678C240.834 127.678 243.207 131.951 245.581 133.691C247.954 135.432 253.334 135.906 253.334 135.906C253.334 135.906 255.391 137.964 255.092 143.818C254.793 149.673 252.719 152.838 256.358 157.585C259.998 162.332 266.468 164.09 269.632 159.167C272.797 154.244 273.588 149.204 269.791 144.135C265.993 139.065 259.664 136.856 257.923 136.065C256.182 135.274 255.549 134.008 255.549 133.375C255.549 132.742 258.398 125.463 255.549 121.349C252.701 117.235 248.429 118.653 245.897 120.083Z" fill="#263238"/>
<path d="M245.206 120.833C245.206 120.833 242.897 120.024 242.434 123.254C241.971 126.483 243.998 132.074 248.669 133.99" stroke="white" stroke-width="0.5" stroke-miterlimit="10" stroke-linecap="round"/>
<path d="M244.162 125.68C245.105 128.017 246.513 130.138 248.3 131.915C250.134 133.608 252.421 134.73 254.881 135.144" stroke="white" stroke-width="0.5" stroke-miterlimit="10" stroke-linecap="round"/>
<path d="M256.171 137.571C256.171 137.571 260.437 142.3 258.825 148.536C257.214 154.772 260.9 161.113 265.635 160.656C270.371 160.199 270.365 153.623 270.365 153.623" stroke="white" stroke-width="0.5" stroke-miterlimit="10" stroke-linecap="round"/>
<path d="M255.362 136.645C255.362 136.645 257.899 136.762 261.709 141.955C265.518 147.147 263.209 151.765 263.672 155.692C264.135 159.618 267.481 158.921 268.29 157.303" stroke="white" stroke-width="0.5" stroke-miterlimit="10" stroke-linecap="round"/>
<path d="M241.765 37.9647C238.665 34.1612 233.308 33.4169 229.329 30.7093C226.666 28.8902 224.121 26.9033 221.71 24.7608H221.529C220.292 23.437 218.636 22.5819 216.84 22.3404C212.738 21.9946 208.7 23.325 209.057 27.9665C208.823 28.1189 208.594 28.2772 208.36 28.4588C207.976 28.5114 207.602 28.6159 207.246 28.7694C204.381 29.9767 204.158 35.9193 206.297 38.6386C207.434 40.0803 209.661 41.2993 211.706 41.9792V42.0436C211.706 42.0436 211.882 42.6297 217.831 43.2157C223.779 43.8018 225.52 46.146 225.25 49.0001C225.148 50.0643 225.275 51.1381 225.622 52.1491C225.97 53.1601 226.531 54.0847 227.266 54.8607C227.987 55.8746 229.159 56.6716 231.04 57.1346C241.923 59.7718 248.3 45.9643 241.765 37.9647Z" fill="#263238"/>
<path d="M211.601 29.8243C214.412 32.8784 217.99 35.1245 221.962 36.3295C228.257 38.0877 235.154 35.9662 239.263 38.8906C243.371 41.815 243.43 44.8273 243.043 46.5093" stroke="white" stroke-width="0.5" stroke-miterlimit="10" stroke-linecap="round"/>
<path d="M210.528 27.8552C212.313 27.0224 214.326 26.8159 216.242 27.2691C219.401 28.031 221.558 32.0455 227.12 34.3018C232.681 36.5581 235.717 34.8879 238.46 36.4175" stroke="white" stroke-width="0.5" stroke-miterlimit="10" stroke-linecap="round"/>
<path d="M210.493 30.6214C209.665 31.2067 208.989 31.9821 208.522 32.8825C208.055 33.7828 207.81 34.782 207.809 35.7963C207.809 39.2599 210.44 39.7404 210.44 39.7404" stroke="white" stroke-width="0.5" stroke-miterlimit="10" stroke-linecap="round"/>
<path d="M209.62 30.0823C209.62 30.0823 205.23 32.5496 205.553 35.2337C205.613 35.9761 205.871 36.6888 206.3 37.2978C206.728 37.9069 207.312 38.3901 207.991 38.6973" stroke="white" stroke-width="0.5" stroke-miterlimit="10" stroke-linecap="round"/>
<path d="M213.136 51.8894C213.136 51.8894 209.444 55.1244 208.53 59.0803C207.616 63.0362 206.772 77.4531 208.149 78.7659C209.526 80.0787 211.114 79.4516 212.087 78.3498C213.06 77.248 217.913 61.8172 217.913 61.8172L219.302 62.1747C219.302 62.1747 224.857 74.6577 225.443 76.0876C226.03 77.5176 228.309 79.8325 230.583 78.5315C232.857 77.2304 231.169 67.3964 229.997 63.7511C228.825 60.1059 225.748 51.0747 223.31 50.1136C220.872 49.1525 214.338 49.9788 213.136 51.8894Z" fill="#263238"/>
<path d="M212.55 53.3252C212.55 53.3252 215.533 57.8144 219.225 57.0525C222.917 56.2907 223.961 51.9363 223.814 51.0044C223.668 50.0726 212.55 53.3252 212.55 53.3252Z" fill="#6DB32F" stroke="#263238" stroke-miterlimit="10"/>
<path d="M215.481 37.7947C215.481 37.7947 207.147 40.6078 205.576 42.7586C204.006 44.9095 201.784 60.1176 201.474 60.733C201.163 61.3483 196.785 76.1287 196.785 76.1287L199.235 75.9411C199.235 75.9411 206.49 61.2897 206.778 60.6685C207.065 60.0473 209.245 50.7583 209.245 50.7583C209.245 50.7583 210.235 53.4659 211.812 53.7941C213.388 54.1223 217.672 53.4542 220.644 52.997C223.615 52.5399 224.553 52.411 225.655 50.8872C226.756 49.3635 226.598 47.1189 226.598 47.1189L231.462 57.6093L228.169 74.5112L230.607 75.4664C230.607 75.4664 235.67 60.1997 235.84 58.8342C236.01 57.4686 232.382 47.5584 229.98 43.163C227.577 38.7676 227.049 38.8555 224.775 37.8885C222.502 36.9215 215.481 37.7947 215.481 37.7947Z" fill="#6DB32F" stroke="#263238" stroke-miterlimit="10"/>
<path d="M214.836 42.0905C214.836 42.0905 215.311 46.3981 217.098 46.8845C218.886 47.3709 218.241 41.944 218.241 41.944L214.836 42.0905Z" fill="white" stroke="#263238" stroke-miterlimit="10"/>
<path d="M213.564 33.5692C212.933 34.7748 211.987 35.7873 210.827 36.4995C211.253 38.0786 211.964 39.5664 212.925 40.8891C215.551 44.2941 216.911 44.464 218.259 43.3036C219.396 42.319 220.357 39.3067 220.357 36.7105C214.537 35.093 213.564 33.5692 213.564 33.5692Z" fill="white" stroke="#263238" stroke-miterlimit="10"/>
<path d="M212.117 37.4255C212.311 37.1991 212.562 37.029 212.845 36.9332C213.127 36.8373 213.431 36.8191 213.722 36.8805C214.789 37.068 214.959 38.4687 215.223 39.3361C215.487 40.2034 215.592 41.862 216.764 40.4613" stroke="#263238" stroke-width="0.5" stroke-linecap="round" stroke-linejoin="round"/>
<path d="M216.166 36.7633C216.166 36.7633 217.151 35.345 218.768 36.7633" stroke="#263238" stroke-width="0.5" stroke-linecap="round" stroke-linejoin="round"/>
<path d="M215.68 41.9147C215.68 41.9147 216.852 42.5008 217.59 41.5338" stroke="#263238" stroke-width="0.5" stroke-linecap="round" stroke-linejoin="round"/>
<path d="M213.072 38.2811C213.072 38.2811 213.658 38.9258 214.338 38.0877" stroke="#263238" stroke-width="0.5" stroke-linecap="round" stroke-linejoin="round"/>
<path d="M216.993 37.8592C217.11 37.9623 217.246 38.0411 217.394 38.0908C217.542 38.1405 217.698 38.1602 217.854 38.1487C218.009 38.1372 218.161 38.0949 218.3 38.024C218.439 37.9532 218.562 37.8553 218.663 37.7361" stroke="#263238" stroke-width="0.5" stroke-linecap="round" stroke-linejoin="round"/>
<path d="M196.856 76.1287C196.11 77.0138 195.495 78.0005 195.027 79.059C194.64 80.2604 193.31 82.757 194.242 82.6105C195.174 82.464 196.416 79.4165 196.416 79.4165C197.329 79.168 198.172 78.7105 198.878 78.0803C199.115 77.7797 199.278 77.4267 199.353 77.0507C199.427 76.6746 199.411 76.2863 199.305 75.9177L196.856 76.1287Z" fill="white" stroke="#263238" stroke-miterlimit="10"/>
<path d="M228.239 74.5112C228.239 74.5112 226.481 76.5038 226.352 77.0898C226.223 77.6759 226.129 80.5534 226.129 80.5534C226.129 80.5534 226.399 81.0809 227.055 80.4069C227.239 80.2587 227.387 80.0712 227.488 79.8582C227.589 79.6452 227.642 79.4121 227.641 79.1762C227.641 79.1762 227.401 81.3094 227.7 82.0244C227.999 82.7394 229.534 81.5497 229.974 80.7234C230.413 79.897 230.689 75.4489 230.689 75.4489L228.239 74.5112Z" fill="white" stroke="#263238" stroke-miterlimit="10"/>
<path d="M99.353 130.028C99.353 130.028 105.049 131.453 102.992 132.402C100.935 133.351 96.9795 133.51 94.7876 132.877C92.5958 132.244 92.2559 129.87 93.9965 129.554C95.737 129.237 99.353 130.028 99.353 130.028Z" fill="white" stroke="#263238" stroke-linecap="round" stroke-linejoin="round"/>
<path d="M81.7891 148.384L75.7761 149.808L76.4091 153.289L77.8332 153.605C77.8332 153.605 77.3585 157.708 77.9914 159.466C78.6244 161.224 79.0991 164.371 80.3356 163.897C81.5722 163.422 80.8103 156.776 81.2851 155.985C82.01 155.032 82.8033 154.133 83.6586 153.295L82.0762 149.022L81.7891 148.384Z" fill="white" stroke="#263238" stroke-linecap="round" stroke-linejoin="round"/>
<path d="M77.9504 149.438C77.9504 149.438 78.6713 161.546 80.365 163.891" stroke="#263238" stroke-linecap="round" stroke-linejoin="round"/>
<path d="M93.0238 131.136C93.0238 131.136 104.259 133.984 109.48 136.516C114.702 139.048 117.556 142.846 114.391 145.694C111.227 148.542 97.6127 151.39 93.6568 152.498C89.7009 153.606 83.055 154.842 83.055 154.842L81.4668 147.845L95.7138 144.873L85.5868 140.917C85.5868 140.917 81.9474 139.652 83.688 135.854C85.4285 132.056 93.0238 131.136 93.0238 131.136Z" fill="#263238"/>
<path d="M95.7136 144.903C95.7136 144.903 104.417 146.485 107.74 146.485" stroke="white" stroke-width="0.5" stroke-miterlimit="10" stroke-linecap="round"/>
<path d="M95.3975 129.712L99.1951 131.294C101.119 129.379 103.37 127.823 105.841 126.7C109.797 124.941 114.392 123.535 113.6 118.946C112.809 114.357 109.164 113.724 105.525 113.724H99.1951L95.3975 129.712Z" fill="#263238"/>
<path d="M111.842 90.0066C111.842 90.0066 115.089 90.7333 115.358 90.3641C115.628 89.9949 118.875 88.688 119.513 88.3832C120.152 88.0785 120.516 87.3576 119.818 87.2111C119.121 87.0646 115.974 88.0257 115.974 88.0257L117.99 85.1833C117.99 85.1833 121.061 83.5658 120.533 82.9563C120.006 82.3468 118.511 82.9563 117.72 82.9563C116.929 82.9563 114.139 83.1732 113.137 84.1988C112.135 85.2243 109.867 87.8675 109.867 87.8675L111.842 90.0066Z" fill="white" stroke="#263238" stroke-linecap="round" stroke-linejoin="round"/>
<path d="M105.606 96.8986L112.809 90.6746L110.26 88.8051L99.3825 93.3939C96.0888 94.2906 92.3029 95.4569 91.2832 96.3242C89.3843 97.9066 89.3843 102.97 89.3843 103.445C89.3843 103.92 86.5478 108.502 82.5802 112.3C78.6126 116.098 72.2949 119.104 70.7126 120.505C69.1302 121.906 70.7126 132.378 75.3014 137.125C78.3511 140.161 81.8794 142.673 85.7449 144.563C85.7449 144.563 96.1885 131.271 97.4661 128.897C98.7437 126.524 99.0484 126.043 99.0484 126.043C99.0484 126.043 103.004 119.239 102.688 117.182C102.371 115.125 102.213 106.422 102.213 104.523C102.213 102.624 105.061 98.5102 105.536 97.0861C105.548 97.0392 105.577 96.9689 105.606 96.8986Z" fill="#6DB32F" stroke="#263238" stroke-linecap="round" stroke-linejoin="round"/>
<path d="M89.3845 103.439C89.3845 103.439 93.0005 98.5923 96.0597 96.9924" stroke="#263238" stroke-miterlimit="10" stroke-linecap="round"/>
<path d="M115.974 94.2614C116.232 95.4568 116.286 96.6874 116.132 97.9008C115.816 99.3249 117.398 99.9578 116.607 100.591C115.816 101.224 115.024 102.015 115.024 102.015L113.266 105.496C112.791 106.445 111.508 107.711 110.412 107.553C109.316 107.395 106.773 105.496 105.823 105.496C104.874 105.496 102.5 106.762 102.5 106.762C102.5 106.762 102.184 102.015 102.184 100.274C102.184 98.5337 104.241 98.059 104.241 98.059C104.241 98.059 105.665 95.0525 107.564 93.6284C109.463 92.2043 114.391 92.0461 115.974 94.2614Z" fill="white" stroke="#263238" stroke-linecap="round" stroke-linejoin="round"/>
<path d="M107.107 103.281C107.107 103.281 108.056 104.388 108.689 104.388H109.322C109.525 105.096 109.789 105.784 110.113 106.445" stroke="#263238" stroke-linecap="round" stroke-linejoin="round"/>
<path d="M115.974 97.2795C115.666 97.501 115.409 97.7844 115.218 98.1115C115.028 98.4386 114.908 98.802 114.866 99.1784" stroke="#263238" stroke-linecap="round" stroke-linejoin="round"/>
<path d="M107.107 103.281C107.107 103.281 104.733 102.331 103.004 98.8501C101.275 95.369 100.314 90.9384 104.587 87.6154C108.859 84.2925 112.662 86.0331 114.55 86.666C116.437 87.299 119.455 88.8813 118.347 92.2043C117.24 95.5272 112.176 95.8437 112.334 96.6348C112.492 97.426 114.092 98.9791 113.125 99.3248C112.158 99.6706 111.221 100.274 111.221 100.749C111.221 101.224 111.068 102.507 110.588 102.507C110.107 102.507 108.689 99.3424 107.581 100.292C106.474 101.241 107.107 103.281 107.107 103.281Z" fill="#263238"/>
<path d="M102.993 98.8502L104.13 106.287L106.503 111.509H101.598C100.766 108.954 100.081 106.354 99.5466 103.72C99.3627 102.732 99.4633 101.711 99.8368 100.777C100.21 99.8434 100.841 99.0349 101.656 98.4458L102.993 98.8502Z" fill="white" stroke="#263238" stroke-linecap="round" stroke-linejoin="round"/>
<path d="M126.734 124.643C126.734 124.643 128.158 121.636 128.632 121.636C129.107 121.636 132.114 119.878 132.735 119.579C133.356 119.28 134.159 119.421 133.843 120.054C133.526 120.687 130.836 122.585 130.836 122.585L134.317 122.744C134.317 122.744 137.482 121.32 137.64 122.111C137.798 122.902 136.374 123.693 135.882 124.326C135.39 124.959 133.538 127.022 132.084 127.174C130.631 127.327 127.179 127.497 127.179 127.497L126.734 124.643Z" fill="white" stroke="#263238" stroke-linecap="round" stroke-linejoin="round"/>
<path d="M93.6565 120.687C93.6565 120.687 109.164 135.408 110.904 135.567C112.645 135.725 127.999 128.604 127.999 128.604L126.734 123.851L111.385 127.368C111.385 127.368 99.1947 111.697 98.0871 111.697C96.9794 111.697 95.0806 113.279 95.0806 113.279" fill="#6DB32F"/>
<path d="M93.6565 120.687C93.6565 120.687 109.164 135.408 110.904 135.567C112.645 135.725 127.999 128.604 127.999 128.604L126.734 123.851L111.385 127.368C111.385 127.368 99.1947 111.697 98.0871 111.697C96.9794 111.697 95.0806 113.279 95.0806 113.279" stroke="#263238" stroke-linecap="round" stroke-linejoin="round"/>
<path d="M93.815 134.143C93.815 134.143 84.4792 140.003 82.2639 140.788C80.0486 141.574 78.9292 142.054 78.9292 142.054C78.9292 142.054 80.4354 143.947 81.2734 144.358C83.225 145.336 85.745 144.586 85.745 144.586L93.815 134.143Z" fill="#6DB32F" stroke="#263238" stroke-linecap="round" stroke-linejoin="round"/>
</svg>
