<svg width="300" height="183" viewBox="0 0 300 183" fill="none" xmlns="http://www.w3.org/2000/svg">
<rect width="150" height="181" rx="6" fill="#152D00"/>
<path d="M284.919 178.653C286.654 172.307 292.304 151.005 296.143 129.43C300.718 103.671 304.723 68.1912 286.41 53.3065C268.097 38.4217 244.055 56.1705 231.464 50.4484C218.873 44.7262 218.303 16.1036 184.522 7.52331C150.742 -1.05695 131.864 28.6947 116.985 44.7203C102.107 60.7459 85.4928 49.872 63.757 67.0444C42.2469 84.0267 60.4889 160.928 76.3956 178.653H284.919Z" fill="#6DB32F"/>
<path opacity="0.7" d="M284.919 178.653C286.654 172.307 292.304 151.005 296.143 129.43C300.718 103.671 304.723 68.1912 286.41 53.3065C268.097 38.4217 244.055 56.1705 231.464 50.4484C218.873 44.7262 218.303 16.1036 184.522 7.52331C150.742 -1.05695 131.864 28.6947 116.985 44.7203C102.107 60.7459 85.4928 49.872 63.757 67.0444C42.2469 84.0267 60.4889 160.928 76.3956 178.653H284.919Z" fill="white"/>
<path d="M290.843 58.1135H244.198C243.972 58.1151 243.755 58.2057 243.595 58.3659C243.435 58.526 243.344 58.7427 243.342 58.9692V178.998C243.342 179.225 243.432 179.443 243.593 179.605C243.753 179.766 243.971 179.858 244.198 179.859H290.843C291.071 179.859 291.29 179.769 291.452 179.607C291.614 179.445 291.704 179.226 291.704 178.998V58.9692C291.703 58.7417 291.611 58.5241 291.45 58.3638C291.289 58.2035 291.07 58.1135 290.843 58.1135ZM289.987 178.142H245.06V59.8308H289.987V178.142Z" fill="white"/>
<path d="M248.316 84.5258H286.731C286.844 84.5258 286.956 84.5035 287.06 84.4601C287.164 84.4167 287.259 84.3532 287.338 84.2731C287.418 84.193 287.481 84.0979 287.523 83.9934C287.566 83.8889 287.587 83.7771 287.587 83.6642V63.3841C287.587 63.2715 287.566 63.1599 287.523 63.0557C287.48 62.9516 287.417 62.8569 287.338 62.7773C287.258 62.6977 287.164 62.6347 287.059 62.592C286.955 62.5493 286.844 62.5277 286.731 62.5285H248.316C248.203 62.5277 248.091 62.5492 247.987 62.5919C247.882 62.6345 247.787 62.6974 247.707 62.777C247.627 62.8565 247.563 62.9511 247.52 63.0553C247.477 63.1595 247.454 63.2712 247.454 63.3841V83.6642C247.454 83.8927 247.545 84.1118 247.707 84.2734C247.868 84.435 248.087 84.5258 248.316 84.5258ZM249.172 64.2279H285.869V82.7907H249.172V64.2279Z" fill="white"/>
<path d="M248.316 113.333H286.731C286.844 113.333 286.955 113.312 287.059 113.269C287.164 113.226 287.258 113.163 287.338 113.084C287.417 113.004 287.48 112.91 287.523 112.805C287.566 112.701 287.587 112.59 287.587 112.477V92.1969C287.587 92.0841 287.566 91.9722 287.523 91.8677C287.481 91.7632 287.418 91.6681 287.338 91.588C287.259 91.508 287.164 91.4444 287.06 91.401C286.956 91.3577 286.844 91.3353 286.731 91.3353H248.316C248.087 91.3353 247.868 91.4261 247.707 91.5877C247.545 91.7493 247.454 91.9684 247.454 92.1969V112.477C247.454 112.59 247.477 112.702 247.52 112.806C247.563 112.91 247.627 113.005 247.707 113.084C247.787 113.164 247.882 113.227 247.987 113.269C248.091 113.312 248.203 113.333 248.316 113.333ZM249.172 93.0526H285.869V111.621H249.172V93.0526Z" fill="white"/>
<path d="M248.316 142.145H286.731C286.958 142.145 287.176 142.055 287.336 141.895C287.497 141.734 287.587 141.517 287.587 141.29V121.004C287.587 120.777 287.497 120.559 287.336 120.399C287.176 120.238 286.958 120.148 286.731 120.148H248.316C248.088 120.148 247.87 120.238 247.709 120.398C247.547 120.559 247.456 120.776 247.454 121.004V141.29C247.456 141.517 247.547 141.735 247.709 141.895C247.87 142.055 248.088 142.145 248.316 142.145ZM249.172 121.865H285.869V140.428H249.172V121.865Z" fill="white"/>
<path d="M248.316 170.958H286.731C286.844 170.958 286.955 170.936 287.06 170.893C287.164 170.849 287.258 170.786 287.338 170.706C287.418 170.625 287.48 170.53 287.523 170.426C287.566 170.321 287.587 170.21 287.587 170.097V149.793C287.587 149.68 287.566 149.569 287.523 149.464C287.48 149.36 287.417 149.266 287.338 149.186C287.258 149.106 287.163 149.043 287.059 149.001C286.955 148.958 286.843 148.936 286.731 148.937H248.316C248.203 148.936 248.091 148.958 247.987 149.001C247.882 149.043 247.787 149.106 247.707 149.186C247.627 149.265 247.563 149.36 247.52 149.464C247.477 149.568 247.454 149.68 247.454 149.793V170.073C247.451 170.188 247.471 170.303 247.513 170.41C247.555 170.517 247.618 170.615 247.698 170.698C247.778 170.78 247.874 170.846 247.98 170.89C248.087 170.935 248.201 170.958 248.316 170.958ZM249.171 150.678H285.869V169.241H249.171V150.678Z" fill="white"/>
<path d="M232.415 15.5034H106.777C106.554 15.5033 106.34 15.5902 106.18 15.7455C106.021 15.9009 105.928 16.1125 105.922 16.3353V78.9165C105.922 79.0294 105.944 79.1411 105.987 79.2453C106.031 79.3495 106.094 79.4441 106.174 79.5236C106.254 79.6032 106.349 79.6661 106.454 79.7087C106.558 79.7514 106.67 79.7729 106.783 79.7721H232.415C232.528 79.7729 232.639 79.7513 232.743 79.7086C232.848 79.6659 232.942 79.6029 233.022 79.5233C233.101 79.4437 233.164 79.349 233.207 79.2449C233.25 79.1407 233.271 79.0291 233.271 78.9165V16.3353C233.266 16.112 233.174 15.8995 233.013 15.7438C232.853 15.5881 232.638 15.5018 232.415 15.5034ZM231.553 17.2206V75.2859H107.633V17.1969L231.553 17.2206Z" fill="white"/>
<path d="M260.669 139.264L257.966 180.097C257.951 180.305 257.858 180.499 257.706 180.641C257.554 180.783 257.354 180.863 257.146 180.864C257.036 180.864 256.928 180.842 256.827 180.799C256.726 180.756 256.635 180.694 256.559 180.615C256.483 180.536 256.424 180.443 256.385 180.341C256.346 180.238 256.328 180.129 256.332 180.02L257.443 139.264H260.669Z" fill="#263238" stroke="#263238" stroke-linecap="round" stroke-linejoin="round"/>
<path d="M267.586 139.264L270.289 180.097C270.303 180.304 270.394 180.498 270.545 180.641C270.696 180.783 270.896 180.863 271.103 180.864C271.213 180.864 271.322 180.842 271.423 180.799C271.524 180.756 271.615 180.694 271.692 180.615C271.768 180.536 271.828 180.443 271.868 180.341C271.908 180.239 271.926 180.13 271.923 180.02L270.8 139.287L267.586 139.264Z" fill="#263238" stroke="#263238" stroke-linecap="round" stroke-linejoin="round"/>
<path d="M240.478 139.264L243.182 180.097C243.195 180.304 243.287 180.498 243.438 180.641C243.589 180.783 243.788 180.863 243.996 180.864C244.106 180.864 244.214 180.842 244.315 180.799C244.416 180.756 244.508 180.694 244.584 180.615C244.661 180.536 244.721 180.443 244.76 180.341C244.8 180.239 244.819 180.13 244.816 180.02L243.687 139.287L240.478 139.264Z" fill="#263238" stroke="#263238" stroke-linecap="round" stroke-linejoin="round"/>
<path d="M229.432 139.264L226.728 180.097C226.713 180.305 226.621 180.499 226.469 180.641C226.317 180.783 226.116 180.863 225.908 180.864C225.799 180.863 225.691 180.84 225.59 180.797C225.489 180.754 225.398 180.692 225.322 180.613C225.245 180.535 225.186 180.442 225.145 180.34C225.105 180.238 225.086 180.129 225.088 180.02L226.217 139.287L229.432 139.264Z" fill="#263238" stroke="#263238" stroke-linecap="round" stroke-linejoin="round"/>
<path d="M276.534 98.0974C276.534 98.0974 249.558 97.0873 247.276 97.0873C244.994 97.0873 244.465 98.0974 244.465 98.0974L240.615 125.246C240.615 125.246 228.642 121.83 226.295 122.275C223.948 122.721 227.453 139.757 227.453 139.757H241.001L241.245 138.735H271.834L279.957 100.04C279.464 98.2697 276.534 98.0974 276.534 98.0974Z" fill="white" stroke="#263238" stroke-linecap="round" stroke-linejoin="round"/>
<path d="M266.267 115.08C266.267 115.08 269.012 132.906 265.863 134.985C265.375 135.306 262.731 136.827 260.259 136.578C258.275 136.376 244.251 136.578 244.251 136.578C244.251 136.578 242.302 132.87 241.91 130.137C241.518 127.403 244.584 115.674 244.584 115.674L266.267 115.08Z" fill="white" stroke="#263238" stroke-linecap="round" stroke-linejoin="round"/>
<path d="M243.301 124.629C243.301 124.629 223.003 126.738 222.046 127.308C221.089 127.879 216.698 131.711 217.453 134.201C218.208 136.691 216.306 136.881 218.047 137.267C219.788 137.653 244.465 137.647 244.465 137.647" fill="#6DB32F"/>
<path d="M243.301 124.629C243.301 124.629 223.003 126.738 222.046 127.308C221.089 127.879 216.698 131.711 217.453 134.201C218.208 136.691 216.306 136.881 218.047 137.267C219.788 137.653 244.465 137.647 244.465 137.647" stroke="#263238" stroke-linecap="round" stroke-linejoin="round"/>
<path d="M224.839 139.727H273.07V136.126H224.839V139.727Z" fill="white" stroke="#263238" stroke-linecap="round" stroke-linejoin="round"/>
<path d="M261.679 125.395H232.623C232.623 125.395 231.096 127.118 230.9 130.743C230.704 134.367 231.096 135.146 233.776 136.091C236.456 137.035 260.259 136.554 260.259 136.554" fill="#6DB32F"/>
<path d="M261.679 125.395H232.623C232.623 125.395 231.096 127.118 230.9 130.743C230.704 134.367 231.096 135.146 233.776 136.091C236.456 137.035 260.259 136.554 260.259 136.554" stroke="#263238" stroke-linecap="round" stroke-linejoin="round"/>
<path d="M238.785 171.505L235.742 164.297L230.757 165.242L234.572 171.671L232.373 176.074L227.62 179.182C227.62 179.182 227.067 179.729 229.444 179.545C231.821 179.36 236.753 179.545 236.753 179.545L239.86 175.89C239.86 175.89 240.989 174.03 238.785 171.505Z" fill="white" stroke="#263238" stroke-linecap="round" stroke-linejoin="round"/>
<path d="M240.116 174.654L240.241 179.366H239.498L238.505 177.013L240.116 174.654Z" fill="#263238" stroke="#263238" stroke-linecap="round" stroke-linejoin="round"/>
<path d="M236.759 179.568L239.866 175.914C239.866 175.914 240.668 174.553 239.563 172.592C237.353 176.371 234.412 177.506 234.412 177.506L231.345 176.77L227.626 179.206C227.626 179.206 227.073 179.752 229.45 179.568C231.827 179.384 236.759 179.568 236.759 179.568Z" fill="#263238" stroke="#263238" stroke-linecap="round" stroke-linejoin="round"/>
<path d="M226.835 134.777L237.026 165.587L229.795 166.87L215.534 134.783C215.534 134.783 214.387 129.994 217.447 128.467C220.507 126.94 229.509 126.167 229.509 126.167" fill="#6DB32F"/>
<path d="M226.835 134.777L237.026 165.587L229.795 166.87L215.534 134.783C215.534 134.783 214.387 129.994 217.447 128.467C220.507 126.94 229.509 126.167 229.509 126.167" stroke="#263238" stroke-linecap="round" stroke-linejoin="round"/>
<path d="M259.522 139.721C259.522 139.721 256.011 122.662 258.364 122.24C260.717 121.818 272.684 125.211 272.684 125.211L276.534 98.0974C276.534 98.0974 280.599 97.4557 281.027 101.068C281.454 104.681 273.07 139.721 273.07 139.721H259.522Z" fill="#263238" stroke="#263238" stroke-linecap="round" stroke-linejoin="round"/>
<path d="M218.172 89.4934L216.36 86.5224C216.185 86.2378 215.939 86.0037 215.646 85.8433C215.353 85.6828 215.024 85.6015 214.69 85.6074L212.985 85.6371L210.067 84.7636C209.882 84.7095 209.684 84.7117 209.5 84.7699C209.316 84.8281 209.154 84.9397 209.033 85.0904L208.926 85.2271L211.612 86.4155L208.932 87.4019L206.086 85.958C205.974 85.9004 205.845 85.8844 205.722 85.9127C205.599 85.9409 205.49 86.0117 205.414 86.1124C205.328 86.2244 205.29 86.3661 205.307 86.5064C205.325 86.6467 205.398 86.7743 205.509 86.8611L209.491 89.9331C209.615 90.0301 209.759 90.0994 209.913 90.1363C210.067 90.1732 210.227 90.1769 210.382 90.1471L214.785 89.2617L216.015 90.6046L218.172 89.4934Z" fill="white" stroke="#263238" stroke-linecap="round" stroke-linejoin="round"/>
<path d="M248.868 83.3969L232.546 100.468L216.966 87.8771L214.815 89.4399L231.957 108.864L246.818 100.86L248.868 83.3969Z" fill="white" stroke="#263238" stroke-linecap="round" stroke-linejoin="round"/>
<path d="M273.29 87.7583L281.846 114.052L274.466 114.266L267.128 101.924C267.128 101.924 271.252 89.4755 273.29 87.7583Z" fill="white" stroke="#263238" stroke-linecap="round" stroke-linejoin="round"/>
<path d="M263.979 83.2424L273.29 87.788L265.494 109.589L266.415 115.668L244.584 115.704L247.187 105.911L245.404 99.6364C245.173 98.8222 245.16 97.9613 245.368 97.1408L248.862 83.4266L258.037 81.953L263.979 83.2424Z" fill="white" stroke="#263238" stroke-linecap="round" stroke-linejoin="round"/>
<path d="M263.533 81.9649C263.533 81.9649 265.363 83.2009 265.423 84.3001C265.452 84.9478 265.423 86.0827 265.363 86.9503C265.331 87.6281 265.176 88.2944 264.906 88.9171L261.608 92.8982L257.793 89.8856L254.626 91.5018C254.626 91.5018 254.032 86.6472 255.416 83.2603C256.801 79.8733 262.826 81.1152 263.533 81.9649Z" fill="white" stroke="#263238" stroke-linecap="round" stroke-linejoin="round"/>
<path d="M266.154 72.5468C266.154 72.5468 265.405 75.2386 265.054 77.0212C264.704 78.8038 263.997 82.369 264.062 83.7059C264.128 85.0429 258.5 90.7353 257.793 89.8856C257.086 89.0359 256.344 84.0981 256.344 84.0981L257.045 76.112C257.045 76.112 264.377 67.9893 266.154 72.5468Z" fill="white" stroke="#263238" stroke-linecap="round" stroke-linejoin="round"/>
<path d="M254.394 68.3874C254.394 68.3874 253.39 70.0452 253.39 70.7642C253.39 71.4832 253.741 72.8914 253.681 73.3014C253.622 73.7114 252.624 75.084 252.493 75.5475C252.427 75.7361 252.433 75.9422 252.508 76.1271C252.584 76.312 252.724 76.463 252.903 76.5517C253.146 76.676 253.382 76.8129 253.61 76.9617C253.61 76.9617 253.907 80.622 254.383 81.5668C254.858 82.5115 255.268 82.9275 256.682 83.0463C258.096 83.1652 261.465 81.6856 261.935 80.5032C262.404 79.3207 262.47 77.9065 262.529 76.1952C262.588 74.4839 261.406 72.0358 260.521 69.7006C259.635 67.3654 255.927 66.0819 254.394 68.3874Z" fill="white" stroke="#263238" stroke-linecap="round" stroke-linejoin="round"/>
<path d="M269.636 80.4734C272.14 80.4734 274.17 78.4436 274.17 75.9397C274.17 73.4358 272.14 71.4059 269.636 71.4059C267.132 71.4059 265.102 73.4358 265.102 75.9397C265.102 78.4436 267.132 80.4734 269.636 80.4734Z" fill="#263238" stroke="#263238" stroke-linecap="round" stroke-linejoin="round"/>
<path d="M254.371 68.1319C254.371 68.1319 256.195 66.5573 259.475 69.6887C262.755 72.8201 261.507 77.348 263.7 78.2868C265.892 79.2256 269.951 74.5314 270.42 72.1903C270.889 69.8491 269.481 64.9945 265.102 64.0557C260.723 63.1169 255.357 63.7586 254.371 68.1319Z" fill="#263238" stroke="#263238" stroke-linecap="round" stroke-linejoin="round"/>
<path d="M254.371 68.1318C254.332 67.7636 254.377 67.3914 254.504 67.0434C254.631 66.6954 254.835 66.3809 255.101 66.1237C255.368 65.8665 255.689 65.6734 256.041 65.559C256.393 65.4447 256.767 65.4122 257.134 65.4639C260.105 65.6243 260.414 70.3126 261.976 72.1902C263.539 74.0679 264.323 73.753 264.323 73.753C264.323 73.753 261.667 74.5314 259.944 73.5925C258.221 72.6537 257.389 67.3594 254.371 68.1318Z" fill="#263238" stroke="#263238" stroke-linecap="round" stroke-linejoin="round"/>
<path d="M259.225 64.9173C260.788 65.883 262.029 67.2914 262.791 68.9638C264.139 71.8219 264.139 74.1809 267.342 74.0145C267.342 74.0145 265.827 74.3532 263.468 73.1707C261.109 71.9883 260.604 68.6251 259.089 67.2763C258.262 66.4939 257.193 66.018 256.058 65.9274" stroke="white" stroke-width="0.5" stroke-linecap="round" stroke-linejoin="round"/>
<path d="M270.42 72.1904C270.42 72.1904 270.283 76.4805 266.991 77.3837" stroke="white" stroke-width="0.5" stroke-linecap="round" stroke-linejoin="round"/>
<path d="M261.234 76.5696C261.234 76.5696 264.371 72.4637 265.108 75.5297C265.845 78.5958 263.325 79.3445 262.137 78.9939C260.949 78.6433 261.115 78.0075 261.115 78.0075" fill="white"/>
<path d="M261.234 76.5696C261.234 76.5696 264.371 72.4637 265.108 75.5297C265.845 78.5958 263.325 79.3445 262.137 78.9939C260.949 78.6433 261.115 78.0075 261.115 78.0075" stroke="#263238" stroke-linecap="round" stroke-linejoin="round"/>
<path d="M254.252 111.705C254.252 111.705 248.262 112.537 247.264 112.537C246.266 112.537 243.77 115.698 243.77 115.698H254.751L254.252 111.705Z" fill="white" stroke="#263238" stroke-linecap="round" stroke-linejoin="round"/>
<path d="M279.695 107.676L281.846 112.525C281.943 112.81 281.971 113.114 281.927 113.412C281.884 113.71 281.771 113.994 281.597 114.24C281.423 114.486 281.194 114.688 280.927 114.829C280.661 114.969 280.365 115.045 280.064 115.05L254.097 115.198L254.264 111.705L274.395 108.52" fill="white"/>
<path d="M279.695 107.676L281.846 112.525C281.943 112.81 281.971 113.114 281.927 113.412C281.884 113.71 281.771 113.994 281.597 114.24C281.423 114.486 281.194 114.688 280.927 114.829C280.661 114.969 280.365 115.045 280.064 115.05L254.097 115.198L254.264 111.705L274.395 108.52" stroke="#263238" stroke-linecap="round" stroke-linejoin="round"/>
<path d="M244.941 174.654L245.066 179.366H244.323L243.33 177.013L244.941 174.654Z" fill="#263238" stroke="#263238" stroke-linecap="round" stroke-linejoin="round"/>
<path d="M243.61 171.505L242.653 164.648L237.674 164.969L239.397 171.719L237.198 176.122L232.445 179.23C232.445 179.23 231.898 179.776 234.275 179.592C236.652 179.408 241.583 179.592 241.583 179.592L244.691 175.938C244.691 175.938 245.814 174.03 243.61 171.505Z" fill="white" stroke="#263238" stroke-linecap="round" stroke-linejoin="round"/>
<path d="M241.583 179.568L244.691 175.914C244.691 175.914 245.493 174.553 244.382 172.592C242.172 176.371 239.23 177.506 239.23 177.506L236.17 176.77L232.445 179.206C232.445 179.206 231.898 179.752 234.275 179.568C236.652 179.384 241.583 179.568 241.583 179.568Z" fill="#263238" stroke="#263238" stroke-linecap="round" stroke-linejoin="round"/>
<path d="M241.328 129.471L243.461 165.908L236.705 166.068L230.109 132.965C230.109 132.965 230.234 126.661 232.249 125.936C234.263 125.211 239.611 125.989 239.611 125.989" fill="#6DB32F"/>
<path d="M241.328 129.471L243.461 165.908L236.705 166.068L230.109 132.965C230.109 132.965 230.234 126.661 232.249 125.936C234.263 125.211 239.611 125.989 239.611 125.989" stroke="#263238" stroke-linecap="round" stroke-linejoin="round"/>
<path d="M211.796 51.0425L220.18 74.5432C220.18 74.5432 219.075 79.8613 215.748 79.6414C212.42 79.4216 211.535 74.763 210.649 74.0975C209.764 73.432 208.433 68.3338 208.433 68.3338L211.796 51.0425Z" fill="white" stroke="#263238" stroke-linecap="round" stroke-linejoin="round"/>
<path d="M190.108 46.3306L176.477 51.2505L181.706 89.0477H206.3L211.796 51.0426L197.084 46.4375L190.108 46.3306Z" fill="white" stroke="#263238" stroke-linecap="round" stroke-linejoin="round"/>
<path d="M191.421 52.8074L193.388 55.7725L191.682 80.919L194.19 87.4671L196.763 81.0973L194.558 56.1468L196.329 51.8626L193.875 48.6361L191.421 52.8074Z" fill="#6DB32F" stroke="#263238" stroke-linecap="round" stroke-linejoin="round"/>
<path d="M194.142 51.5833L190.631 54.2156L188.319 47.3526L189.93 43.8765L197.113 43.7042L198.866 45.2789L198.516 54.0374L194.142 51.5833Z" fill="white" stroke="#263238" stroke-linecap="round" stroke-linejoin="round"/>
<path d="M197.856 42.0939L197.31 46.5089L193.376 51.5833L190.435 46.4376V38.1603C190.435 38.1603 195.586 39.4498 197.856 42.0939Z" fill="white" stroke="#263238" stroke-linecap="round" stroke-linejoin="round"/>
<path d="M188.414 32.9195C188.414 28.9086 191.338 25.6583 194.951 25.6583C198.563 25.6583 200.566 29.0869 200.566 33.0977C200.566 34.3931 200.298 36.6154 200.191 37.7979C200.007 39.8181 199.395 40.6738 198.201 42.4861C194.285 48.4281 191.07 39.7112 189.424 36.7818C188.758 35.6038 188.41 34.2727 188.414 32.9195Z" fill="white" stroke="#263238" stroke-linecap="round" stroke-linejoin="round"/>
<path d="M197.791 34.1792L198.344 38.3208L196.401 38.2673" fill="white"/>
<path d="M197.791 34.1792L198.344 38.3208L196.401 38.2673" stroke="#263238" stroke-linecap="round" stroke-linejoin="round"/>
<path d="M202.129 33.4602L192.788 33.5018C192.673 33.8651 192.655 34.2521 192.737 34.6242C192.818 34.9964 192.995 35.3408 193.251 35.6231C193.845 36.2173 196.264 36.0093 196.65 35.8548C197.036 35.7003 197.244 34.0009 197.244 34.0009H197.939C197.939 34.0009 198.017 35.7835 199.015 35.9321C200.013 36.0806 201.314 36.0331 201.564 35.8548C202.669 35.1121 202.129 33.4602 202.129 33.4602Z" fill="white" stroke="#263238" stroke-linecap="round" stroke-linejoin="round"/>
<path d="M189.567 37.4532C189.567 37.4532 191.671 41.7612 192.17 43.2526C192.669 44.744 195.141 45.9087 197.642 45.0768C200.144 44.2449 199.467 40.543 199.467 40.543C199.467 40.543 196.81 38.2732 196.317 38.7604C195.824 39.2477 193.162 41.4165 192.996 40.9174C192.829 40.4183 191.671 37.4354 191.671 37.4354L191.13 35.32L192.241 34.607C192.401 34.4734 192.506 34.2843 192.533 34.0774C192.561 33.8705 192.51 33.6608 192.39 33.4899L191.867 32.7352C191.802 32.6428 191.757 32.5384 191.733 32.4282C191.71 32.318 191.709 32.2042 191.73 32.0935C191.867 31.4458 192.241 30.1029 193.109 29.7167C194.297 29.2235 195.741 29.9425 197.072 30.2753C198.403 30.608 199.847 29.4077 199.847 29.4077L200.441 31.3805C201.759 30.1441 202.695 28.5564 203.139 26.8051C203.804 23.9827 197.001 22.824 194.82 22.824C192.639 22.824 189.181 24.0124 188.183 27.1379C187.184 30.2634 188.979 36.8946 189.567 37.4532Z" fill="#263238" stroke="#263238" stroke-linecap="round" stroke-linejoin="round"/>
<path d="M194.951 26.8229C194.951 26.8229 196.187 28.6768 194.564 29.0631C192.942 29.4493 189.781 28.0589 188.391 28.5996" stroke="white" stroke-width="0.5" stroke-linecap="round" stroke-linejoin="round"/>
<path d="M192.17 30.9111C192.17 30.9111 189.627 30.6021 188.604 31.6836" stroke="white" stroke-width="0.5" stroke-linecap="round" stroke-linejoin="round"/>
<path d="M198.29 40.2816C198.29 40.2816 196.418 41.2561 195.491 40.0974" stroke="white" stroke-width="0.5" stroke-linecap="round" stroke-linejoin="round"/>
<path d="M189.882 36.14C189.882 36.14 188.046 34.1197 188.046 36.3242C188.046 38.5287 188.599 38.5287 189.698 39.2952C190.797 40.0618 191.172 39.111 191.172 39.111" fill="white"/>
<path d="M189.882 36.14C189.882 36.14 188.046 34.1197 188.046 36.3242C188.046 38.5287 188.599 38.5287 189.698 39.2952C190.797 40.0618 191.172 39.111 191.172 39.111" stroke="#263238" stroke-linecap="round" stroke-linejoin="round"/>
<path d="M214.399 173.109H214.482L214.322 172.301L206.3 89.0536H181.706L173.619 173.103H173.708L178.925 173.549C178.925 173.549 184.713 154.119 184.713 152.669C184.713 151.219 186.364 137.814 186.364 137.814L194.57 108.965L201.825 137.814C201.825 137.814 203.477 151.249 203.477 152.669C203.477 154.089 209.271 173.561 209.271 173.561L214.179 173.139H214.399V173.109Z" fill="#263238" stroke="#263238" stroke-linecap="round" stroke-linejoin="round"/>
<path d="M204.464 93.9498L198.991 101.764" stroke="white" stroke-width="0.5" stroke-linecap="round" stroke-linejoin="round"/>
<path d="M201.534 95.7086L198.213 101.181" stroke="white" stroke-width="0.5" stroke-linecap="round" stroke-linejoin="round"/>
<path d="M185.907 95.3224L190.785 100.593" stroke="white" stroke-width="0.5" stroke-linecap="round" stroke-linejoin="round"/>
<path d="M185.515 97.2714L192.544 104.307" stroke="white" stroke-width="0.5" stroke-linecap="round" stroke-linejoin="round"/>
<path d="M183.168 89.8498H204.856" stroke="white" stroke-width="0.5" stroke-linecap="round" stroke-linejoin="round"/>
<path d="M173.708 173.103C173.708 173.103 170.576 175.569 168.77 176.247C166.964 176.924 163.589 178.725 163.589 178.725C163.589 178.725 163.589 179.854 166.518 179.854H178.016L177.82 173.103H173.708Z" fill="#263238" stroke="#263238" stroke-linecap="round" stroke-linejoin="round"/>
<path d="M177.974 178.623C173.383 178.833 168.783 178.76 164.201 178.404L163.606 178.724C163.606 178.724 163.606 179.853 166.536 179.853H178.034L177.974 178.623Z" fill="white" stroke="#263238" stroke-linecap="round" stroke-linejoin="round"/>
<path d="M213.923 173.103C213.923 173.103 217.061 175.569 218.861 176.247C220.662 176.924 224.049 178.725 224.049 178.725C224.049 178.725 224.049 179.854 221.113 179.854H209.621L209.829 173.103H213.923Z" fill="#263238" stroke="#263238" stroke-linecap="round" stroke-linejoin="round"/>
<path d="M209.657 178.623C214.248 178.833 218.848 178.76 223.431 178.404L224.025 178.724C224.025 178.724 224.025 179.853 221.089 179.853H209.621L209.657 178.623Z" fill="white" stroke="#263238" stroke-linecap="round" stroke-linejoin="round"/>
<path d="M176.477 51.2506L167.421 75.4286H176.108L179.353 68.833L176.477 51.2506Z" fill="white" stroke="#263238" stroke-linecap="round" stroke-linejoin="round"/>
<path d="M216.092 71.6851C212.468 70.1877 200.839 69.445 200.233 69.445C199.627 69.445 180.725 67.8882 179.175 67.6624C177.624 67.4366 175.847 70.9899 175.847 70.9899L184.047 70.7641L194.024 72.7606C194.024 72.7606 214.226 80.0752 215.748 79.6355C215.955 79.5664 216.143 79.4482 216.294 79.2909" fill="white"/>
<path d="M216.092 71.6851C212.468 70.1877 200.839 69.445 200.233 69.445C199.627 69.445 180.725 67.8882 179.175 67.6624C177.624 67.4366 175.847 70.9899 175.847 70.9899L184.047 70.7641L194.024 72.7606C194.024 72.7606 214.226 80.0752 215.748 79.6355C215.955 79.5664 216.143 79.4482 216.294 79.2909" stroke="#263238" stroke-linecap="round" stroke-linejoin="round"/>
<path d="M173.85 70.5502L205.105 67.4484L205.331 70.1045L178.283 78.3104C178.283 78.3104 173.411 79.4156 169.638 78.7501C165.864 78.0846 167.647 74.3174 168.532 72.101" fill="white"/>
<path d="M173.85 70.5502L205.105 67.4484L205.331 70.1045L178.283 78.3104C178.283 78.3104 173.411 79.4156 169.638 78.7501C165.864 78.0846 167.647 74.3174 168.532 72.101" stroke="#263238" stroke-linecap="round" stroke-linejoin="round"/>
<path d="M205.111 67.4485L211.095 67.2227L212.866 70.77L205.331 70.1105L205.111 67.4485Z" fill="white" stroke="#263238" stroke-linecap="round" stroke-linejoin="round"/>
<path d="M244.965 119.584L250.069 180.353C250.082 180.443 250.114 180.53 250.162 180.608C250.211 180.686 250.274 180.753 250.349 180.805C250.424 180.857 250.509 180.894 250.599 180.912C250.689 180.93 250.781 180.93 250.871 180.911C251.024 180.873 251.158 180.781 251.249 180.653C251.339 180.524 251.38 180.367 251.364 180.21L247.888 119.601L244.965 119.584Z" fill="#263238" stroke="#263238" stroke-linecap="round" stroke-linejoin="round"/>
<path d="M279.268 119.584L284.39 180.555C284.402 180.645 284.434 180.733 284.482 180.811C284.53 180.889 284.593 180.957 284.669 181.009C284.744 181.062 284.829 181.098 284.919 181.116C285.009 181.134 285.102 181.133 285.192 181.113C285.345 181.075 285.479 180.983 285.569 180.855C285.66 180.726 285.701 180.569 285.685 180.412L282.197 119.584H279.268Z" fill="#263238" stroke="#263238" stroke-linecap="round" stroke-linejoin="round"/>
<path d="M137.705 119.584L135.037 179.824C135.023 179.982 135.065 180.14 135.156 180.269C135.248 180.399 135.383 180.492 135.537 180.531C135.625 180.553 135.717 180.557 135.807 180.541C135.896 180.525 135.982 180.49 136.057 180.438C136.131 180.386 136.194 180.319 136.241 180.24C136.288 180.162 136.317 180.075 136.327 179.984L140.647 119.584H137.705Z" fill="#263238" stroke="#263238" stroke-linecap="round" stroke-linejoin="round"/>
<path d="M106.088 119.584L103.402 179.598C103.389 179.756 103.432 179.915 103.525 180.044C103.617 180.174 103.753 180.266 103.907 180.305C103.996 180.327 104.087 180.329 104.177 180.313C104.266 180.296 104.351 180.261 104.426 180.21C104.5 180.158 104.563 180.091 104.61 180.013C104.657 179.935 104.687 179.848 104.698 179.758L109 119.56L106.088 119.584Z" fill="#263238" stroke="#263238" stroke-linecap="round" stroke-linejoin="round"/>
<path d="M285.947 116.215H104.187V121.432H285.947V116.215Z" fill="#6DB32F" stroke="#263238" stroke-linecap="round" stroke-linejoin="round"/>
<path d="M285.947 116.215H104.187V118.003H285.947V116.215Z" fill="#263238" stroke="#263238" stroke-linecap="round" stroke-linejoin="round"/>
<path d="M285.941 116.215H240.461V121.432H285.941V116.215Z" fill="#263238" stroke="#263238" stroke-linecap="round" stroke-linejoin="round"/>
<path d="M287.563 114.479H102.564V116.47H287.563V114.479Z" fill="#6DB32F" stroke="#263238" stroke-linecap="round" stroke-linejoin="round"/>
<path d="M287.557 114.479H242.356V116.47H287.557V114.479Z" fill="#263238" stroke="#263238" stroke-linecap="round" stroke-linejoin="round"/>
<path d="M143.772 114.301H168.598C168.693 114.302 168.786 114.275 168.865 114.223C168.944 114.171 169.006 114.097 169.044 114.01L175.919 98.335C175.95 98.2615 175.963 98.1813 175.956 98.1017C175.949 98.022 175.922 97.9454 175.878 97.8787C175.833 97.8121 175.773 97.7575 175.703 97.7199C175.632 97.6824 175.553 97.663 175.473 97.6636H150.647C150.554 97.6636 150.463 97.6905 150.385 97.7411C150.307 97.7917 150.245 97.8639 150.208 97.9488L143.356 113.624C143.324 113.695 143.31 113.774 143.315 113.852C143.321 113.93 143.345 114.006 143.386 114.072C143.427 114.139 143.483 114.195 143.551 114.235C143.618 114.275 143.694 114.297 143.772 114.301Z" fill="white" stroke="#263238" stroke-linecap="round" stroke-linejoin="round"/>
<path d="M146.101 113.077H167.285C167.364 113.077 167.442 113.054 167.508 113.011C167.574 112.968 167.627 112.906 167.659 112.834L173.524 99.4581C173.556 99.3949 173.57 99.3247 173.567 99.2541C173.564 99.1835 173.542 99.115 173.504 99.0552C173.467 98.9954 173.414 98.9464 173.352 98.9129C173.29 98.8793 173.22 98.8625 173.149 98.8638H151.966C151.885 98.8633 151.806 98.8866 151.738 98.9311C151.671 98.9755 151.618 99.0389 151.586 99.1134L145.733 112.501C145.706 112.563 145.694 112.63 145.699 112.698C145.704 112.766 145.726 112.831 145.762 112.888C145.799 112.945 145.849 112.992 145.908 113.025C145.967 113.058 146.034 113.076 146.101 113.077Z" fill="#6DB32F" stroke="#263238" stroke-linecap="round" stroke-linejoin="round"/>
<path d="M168.943 113.261H131.645V114.479H168.943V113.261Z" fill="white" stroke="#263238" stroke-linecap="round" stroke-linejoin="round"/>
<path d="M168.949 113.261H150.867V114.479H168.949V113.261Z" fill="white" stroke="#263238" stroke-linecap="round" stroke-linejoin="round"/>
<path d="M180.928 104.782H174.35V114.503H180.928V104.782Z" fill="white" stroke="#263238" stroke-linecap="round" stroke-linejoin="round"/>
<path d="M180.636 113.178H179.947C179.804 113.178 179.666 113.121 179.565 113.02C179.463 112.918 179.406 112.781 179.406 112.637C179.406 112.494 179.463 112.356 179.565 112.255C179.666 112.154 179.804 112.097 179.947 112.097H180.636C180.909 112.095 181.169 111.986 181.362 111.794C181.554 111.601 181.663 111.341 181.664 111.069V108.692C181.663 108.42 181.554 108.159 181.362 107.967C181.169 107.774 180.909 107.666 180.636 107.664H179.751C179.68 107.664 179.61 107.65 179.544 107.623C179.479 107.596 179.419 107.556 179.369 107.506C179.318 107.455 179.279 107.396 179.251 107.33C179.224 107.265 179.21 107.194 179.21 107.123C179.21 107.052 179.224 106.982 179.251 106.916C179.279 106.851 179.318 106.791 179.369 106.741C179.419 106.691 179.479 106.651 179.544 106.624C179.61 106.597 179.68 106.583 179.751 106.583H180.636C180.913 106.583 181.188 106.637 181.444 106.743C181.7 106.849 181.932 107.004 182.128 107.2C182.324 107.396 182.479 107.629 182.585 107.885C182.691 108.141 182.746 108.415 182.746 108.692V111.069C182.746 111.346 182.691 111.62 182.585 111.876C182.479 112.132 182.324 112.364 182.128 112.56C181.932 112.756 181.7 112.912 181.444 113.018C181.188 113.124 180.913 113.178 180.636 113.178Z" fill="white" stroke="#263238" stroke-linecap="round" stroke-linejoin="round"/>
<path d="M232.32 114.301H207.494C207.401 114.301 207.309 114.273 207.231 114.221C207.153 114.169 207.092 114.096 207.055 114.01L200.18 98.335C200.148 98.262 200.136 98.1823 200.142 98.1031C200.149 98.0239 200.176 97.9477 200.219 97.8812C200.263 97.8147 200.322 97.76 200.392 97.722C200.462 97.6841 200.54 97.664 200.619 97.6636H225.445C225.539 97.6631 225.631 97.6898 225.71 97.7404C225.789 97.791 225.852 97.8634 225.891 97.9488L232.766 113.624C232.797 113.698 232.81 113.778 232.802 113.858C232.795 113.938 232.768 114.015 232.724 114.082C232.68 114.149 232.62 114.204 232.55 114.242C232.479 114.28 232.4 114.301 232.32 114.301Z" fill="white" stroke="#263238" stroke-linecap="round" stroke-linejoin="round"/>
<path d="M207.15 114.479H244.448V113.261H207.15V114.479Z" fill="white" stroke="#263238" stroke-linecap="round" stroke-linejoin="round"/>
<path d="M207.15 114.479H232.867V113.261H207.15V114.479Z" fill="white" stroke="#263238" stroke-linecap="round" stroke-linejoin="round"/>
<path d="M216.883 104.17C217.017 104.424 217.074 104.713 217.045 104.999C217.016 105.286 216.904 105.557 216.721 105.78C216.539 106.002 216.295 106.166 216.02 106.251C215.745 106.335 215.451 106.337 215.175 106.255C214.899 106.173 214.653 106.011 214.469 105.79C214.284 105.57 214.169 105.299 214.138 105.013C214.106 104.727 214.16 104.438 214.292 104.182C214.424 103.927 214.629 103.716 214.88 103.576C215.225 103.39 215.629 103.348 216.004 103.459C216.38 103.571 216.696 103.826 216.883 104.17Z" fill="white" stroke="#263238" stroke-linecap="round" stroke-linejoin="round"/>
<path d="M100.794 58.0303L102.624 76.1119L110.943 100.195L108.096 101.823L98.3278 79.7781L93.4494 60.8528C93.4494 60.8528 93.0394 55.1603 95.0775 54.3166C97.1156 53.4728 99.9797 54.3701 100.794 58.0303Z" fill="white" stroke="#263238" stroke-linecap="round" stroke-linejoin="round"/>
<path d="M110.966 100.219C110.966 100.219 112.797 104.087 113.005 105.103C113.213 106.119 113.421 108.193 112.618 109.12C111.65 110.237 110.764 109.375 110.764 109.375C110.764 109.375 108.322 108.781 108.322 106.731C108.322 104.681 108.12 101.847 108.12 101.847L110.966 100.219Z" fill="white" stroke="#263238" stroke-linecap="round" stroke-linejoin="round"/>
<path d="M108.97 106.285L112.398 107.177" stroke="#263238" stroke-linecap="round" stroke-linejoin="round"/>
<path d="M109.79 103.974L110.764 105.507C110.764 105.507 108.495 109.387 109.713 108.371C110.931 107.355 113.207 106.119 113.005 105.103C112.66 104.037 112.206 103.009 111.65 102.037" fill="white"/>
<path d="M109.79 103.974L110.764 105.507C110.764 105.507 108.495 109.387 109.713 108.371C110.931 107.355 113.207 106.119 113.005 105.103C112.66 104.037 112.206 103.009 111.65 102.037" stroke="#263238" stroke-linecap="round" stroke-linejoin="round"/>
<path d="M91.0669 36.3004C91.0669 36.3004 88.9753 34.0424 84.1504 35.4922C79.3254 36.9421 78.2084 44.6667 78.3569 48.5231C78.5055 52.3794 82.2192 56.729 81.0962 58.6601C79.9731 60.5913 75.784 65.0953 76.1049 69.95C76.4257 74.8046 80.4485 78.6372 86.2419 76.8665C92.0354 75.0957 91.0669 68.0069 89.9141 65.4162C88.7614 62.8255 91.2035 61.7143 92.0057 56.0813C92.8079 50.4483 87.6621 45.7838 87.6621 41.7611C87.6621 37.7383 91.8215 38.386 91.8215 38.386L91.0669 36.3004Z" fill="#263238" stroke="#263238" stroke-linecap="round" stroke-linejoin="round"/>
<path d="M83.8175 51.5714C84.5781 53.1401 85.4634 54.8157 86.3429 56.6221C89.2782 62.6117 86.9846 64.7746 82.5221 68.0902C78.0597 71.4058 79.0817 75.4821 80.2285 76.1119" stroke="white" stroke-width="0.5" stroke-linecap="round" stroke-linejoin="round"/>
<path d="M89.5336 37.8869C89.5336 37.8869 83.5441 38.3979 82.0111 42.2186C81.0841 44.542 81.7971 47.1446 83.1638 50.175" stroke="white" stroke-width="0.5" stroke-linecap="round" stroke-linejoin="round"/>
<path d="M85.1544 74.6204C85.6152 74.7936 86.1066 74.8704 86.5983 74.8462" stroke="white" stroke-width="0.5" stroke-linecap="round" stroke-linejoin="round"/>
<path d="M91.0666 37.4888C91.0666 37.4888 85.4574 38.5049 84.1858 42.5811C82.9142 46.6574 90.4309 52.6825 90.8111 57.1153C91.1914 61.548 85.8377 64.1387 83.9362 67.5792C82.5993 69.9916 82.7478 72.6477 84.1561 73.9846" stroke="white" stroke-width="0.5" stroke-linecap="round" stroke-linejoin="round"/>
<path d="M105.458 119.53C105.458 119.53 104.074 131.485 102.683 135.3C101.293 139.115 98.1793 169.092 98.007 170.827C97.8346 172.563 102.511 176.544 104.418 177.762C106.326 178.98 105.458 179.319 103.379 179.491C101.299 179.663 98.8745 179.319 97.8346 177.411C96.7948 175.504 94.3645 174.987 94.3645 174.987L94.0199 179.146H93.3247L92.8077 173.947C92.631 172.767 92.811 171.56 93.3247 170.483C94.1922 168.575 94.5131 164.588 94.5131 159.193C94.5131 153.798 93.4732 145.152 93.9902 140.993C94.5071 136.833 96.5928 133.714 96.5928 130.25C96.5928 126.785 96.7651 121.586 96.7651 121.586L105.458 119.53Z" fill="white" stroke="#263238" stroke-linecap="round" stroke-linejoin="round"/>
<path d="M92.8078 173.947C92.6698 173.053 92.7451 172.139 93.0276 171.279C94.1031 173.097 97.187 175.563 99.5638 176.544C100.853 177.102 102.258 177.338 103.658 177.233C103.937 177.441 104.199 177.619 104.418 177.762C106.326 178.95 105.458 179.319 103.379 179.491C101.299 179.663 98.8746 179.319 97.8347 177.411C96.7949 175.504 94.3646 174.987 94.3646 174.987L94.0199 179.146H93.3247L92.8078 173.947Z" fill="#263238" stroke="#263238" stroke-linecap="round" stroke-linejoin="round"/>
<path d="M95.4045 121.438C95.4045 121.438 92.4335 130.273 89.6883 137.897C86.9431 145.521 80.3296 163.026 79.6344 166.145C78.9392 169.265 78.5946 174.987 76.6634 177.934C74.7323 180.881 72.8486 182.266 73.1933 177.067C73.5379 171.867 76.6634 168.053 77.3527 164.066C78.0419 160.078 78.3925 145.699 80.8169 139.287C83.2412 132.876 85.8438 127.677 86.1647 125.769C86.4016 123.871 86.5167 121.96 86.5093 120.047L95.4045 121.438Z" fill="white" stroke="#263238" stroke-linecap="round" stroke-linejoin="round"/>
<path d="M73.5496 174.838C73.5753 175.818 73.8804 176.771 74.4291 177.583C75.4273 178.701 77.0376 176.532 77.8754 175.207C77.6013 176.162 77.2017 177.077 76.687 177.928C74.7796 180.869 72.8723 182.26 73.2169 177.061C73.2742 176.313 73.3854 175.57 73.5496 174.838Z" fill="#263238" stroke="#263238" stroke-linecap="round" stroke-linejoin="round"/>
<path d="M94.0376 51.6902C94.0376 51.6902 92.9978 52.5578 92.3026 58.4523C91.6074 64.3467 95.945 82.7135 95.945 82.7135C95.945 82.7135 88.4937 94.9184 86.7587 100.985C85.0236 107.052 83.9838 129.78 83.9838 129.78C83.9838 129.78 87.6262 131.171 95.0775 131.688C102.529 132.204 106.516 130.303 106.516 130.303C106.516 130.303 106.86 97.8656 106.86 92.8684C106.86 87.8711 107.211 76.5041 107.728 75.1196C108.245 73.7351 109.808 70.0926 109.808 68.7082C109.808 67.3237 99.3854 52.5578 99.3854 52.5578L94.0376 51.6902Z" fill="white" stroke="#263238" stroke-linecap="round" stroke-linejoin="round"/>
<path d="M86.7409 100.985C88.1075 96.2315 93.7643 83.5869 95.7846 81.4121C98.8566 82.4341 104.46 83.4443 106.962 82.6956C106.884 84.4782 106.843 91.1332 106.843 92.8386C106.843 97.8655 106.498 130.273 106.498 130.273C106.498 130.273 102.511 132.181 95.0597 131.658C87.6084 131.135 83.9659 129.75 83.9659 129.75C83.9659 129.75 85.0058 107.052 86.7409 100.985Z" fill="#263238" stroke="#263238" stroke-linecap="round" stroke-linejoin="round"/>
<path d="M97.8822 31.2616C97.8822 31.2616 99.742 27.2091 103.42 27.2091C107.098 27.2091 108.732 30.4772 107.918 33.3353C107.104 36.1934 110.366 35.3794 110.776 37.2214C111.186 39.0634 108.12 40.2815 106.486 40.2815C104.852 40.2815 97.8822 31.2616 97.8822 31.2616Z" fill="#263238" stroke="#263238" stroke-linecap="round" stroke-linejoin="round"/>
<path d="M103.254 30.8457C104.347 30.2515 105.631 29.8237 106.225 30.7506C107.372 32.5332 103.806 33.9355 104.953 35.8489C106.1 37.7622 108.905 37.2512 108.774 37.887C108.643 38.5228 106.867 38.903 106.867 38.903" stroke="white" stroke-width="0.5" stroke-linecap="round" stroke-linejoin="round"/>
<path d="M101.382 32.141C101.382 32.141 101.733 31.8379 102.255 31.4695" stroke="white" stroke-width="0.5" stroke-linecap="round" stroke-linejoin="round"/>
<path d="M107.312 40.6916C107.052 40.4982 106.847 40.2401 106.718 39.9429C106.421 37.7503 105.779 35.5933 104.567 34.3812C102.733 32.6549 100.395 31.5616 97.894 31.2616C97.1536 31.1525 96.3978 31.2217 95.6896 31.4636C92.5343 32.5688 89.8248 34.7496 90.4071 40.0082C91.0488 45.8017 95.5588 47.2515 95.5588 47.2515L95.8797 50.8167L100.384 52.9083L100.544 49.046C100.544 49.046 103.598 50.3295 104.704 50.1691C105.809 50.0086 106.153 48.5588 106.635 46.4672C106.811 45.5128 106.899 44.544 106.896 43.5734L108.245 42.2305C109.012 41.4521 108.257 41.262 107.312 40.6916Z" fill="white" stroke="#263238" stroke-linecap="round" stroke-linejoin="round"/>
<path d="M90.3953 40.0082C89.8011 34.7496 92.5225 32.5688 95.6777 31.4636C96.386 31.2217 97.1418 31.1525 97.8822 31.2616C99.587 31.4895 101.228 32.0595 102.707 32.9372C101.804 32.753 103.343 35.4091 101.929 37.0967C100.69 38.6632 99.1114 39.9272 97.3118 40.7926C97.3118 40.7926 95.7075 39.5032 95.2202 41.2739C94.733 43.0446 94.8993 44.3281 96.1888 44.6549C97.4782 44.9817 97.9714 44.6549 97.9714 44.6549C97.9714 44.6549 97.1157 46.6811 95.5946 47.5189V47.2278C95.5946 47.2278 91.0667 45.8076 90.3953 40.0082Z" fill="#263238" stroke="#263238" stroke-linecap="round" stroke-linejoin="round"/>
<path d="M102.683 51.8625L101.822 56.5448L92.6354 51.6902L93.5029 47.3585L102.683 51.8625Z" fill="white" stroke="#263238" stroke-linecap="round" stroke-linejoin="round"/>
<path d="M98.2447 91.3412C99.1961 91.5447 100.161 91.6758 101.133 91.7334C101.887 91.6858 102.915 90.8361 103.676 91.1986C104.436 91.5611 105.5 93.8487 105.5 93.8487C105.5 93.8487 106.51 94.3598 106.219 94.9005C105.928 95.4412 104.68 95.9403 104.68 95.9403C104.68 95.9403 103.492 97.0634 102.802 97.1763C102.113 97.2892 97.912 94.2053 97.912 94.2053L98.2447 91.3412Z" fill="white" stroke="#263238" stroke-linecap="round" stroke-linejoin="round"/>
<path d="M98.6903 93.5636C98.8293 93.3965 98.9293 93.2004 98.9827 92.9897C99.0361 92.779 99.0416 92.559 98.9988 92.3458C98.9561 92.1327 98.8662 91.9318 98.7357 91.758C98.6051 91.5842 98.4373 91.4418 98.2446 91.3412L86.6993 80.5268L99.2726 60.9776C99.8336 59.9439 99.9698 58.7324 99.6523 57.6C99.3349 56.4676 98.5887 55.5034 97.5721 54.912C96.5556 54.3206 95.3486 54.1486 94.2073 54.4323C93.0659 54.7161 92.0801 55.4334 91.4588 56.432L80.5612 78.0906C79.9946 78.6404 79.667 79.3911 79.6492 80.1805C79.6314 80.9699 79.9248 81.7346 80.4661 82.3094L80.5077 82.351C81.601 84.0385 93.6277 92.8624 97.1453 94.0152C97.4186 94.1017 97.7114 94.105 97.9866 94.0246C98.2617 93.9442 98.5066 93.7837 98.6903 93.5636Z" fill="white" stroke="#263238" stroke-linecap="round" stroke-linejoin="round"/>
<path d="M144.372 63.6337C144.372 63.6337 145.864 68.2506 145.864 69.1479C145.853 69.796 145.803 70.4428 145.715 71.085L147.028 73.1231C147.105 73.2542 147.129 73.4098 147.095 73.5579C147.061 73.706 146.971 73.8354 146.844 73.9193L144.818 75.1077C144.818 75.1077 144.521 79.8613 144.224 80.4555C143.927 81.0497 138.876 80.9071 138.876 80.9071L137.236 84.0326L128.739 80.7586L130.973 74.6442L130.51 65.4163C130.51 65.4163 135.727 60.8053 144.372 63.6337Z" fill="white" stroke="#263238" stroke-linecap="round" stroke-linejoin="round"/>
<path d="M138.555 74.864C138.555 74.864 137.076 76.2544 135.964 76.3495C134.853 76.4446 131.24 75.6068 130.961 75.2384C130.682 74.87 128.186 69.6826 128.275 67.181C128.365 64.6794 128.466 60.9775 131.145 59.7773C133.825 58.577 138.092 58.9394 140.314 57.555C142.536 56.1705 146.054 55.0534 147.908 57.4599C149.762 59.8664 148.371 63.1999 146.892 64.5903C145.412 65.9807 143.558 66.3729 143.742 66.9671C143.927 67.5613 145.038 68.2625 144.39 69.1894C143.742 70.1164 141.419 70.972 141.419 71.3166C141.419 71.6613 141.978 72.9863 141.33 73.1705C140.682 73.3547 140.029 71.8752 139.381 71.8752C138.733 71.8752 137.355 73.6637 138.555 74.864Z" fill="#263238" stroke="#263238" stroke-linecap="round" stroke-linejoin="round"/>
<path d="M134.687 70.6155C134.42 70.9141 134.192 71.2456 134.01 71.6019" stroke="white" stroke-width="0.5" stroke-linecap="round" stroke-linejoin="round"/>
<path d="M146.856 61.0191C146.739 62.0389 146.367 63.0129 145.775 63.8517C145.183 64.6906 144.39 65.3674 143.469 65.8202C141.092 67.0502 137.925 68.0544 135.822 69.5994" stroke="white" stroke-width="0.5" stroke-linecap="round" stroke-linejoin="round"/>
<path d="M143.742 66.9968C143.742 66.9968 141.633 68.7794 139.375 70.6155C137.834 71.8081 136.121 72.7598 134.295 73.438" stroke="white" stroke-width="0.5" stroke-linecap="round" stroke-linejoin="round"/>
<path d="M138.406 75.1136L139.595 75.4107C139.523 75.9663 139.565 76.5307 139.72 77.0692C139.874 77.6078 140.137 78.109 140.492 78.5422" fill="white"/>
<path d="M138.406 75.1136L139.595 75.4107C139.523 75.9663 139.565 76.5307 139.72 77.0692C139.874 77.6078 140.137 78.109 140.492 78.5422" stroke="#263238" stroke-linecap="round" stroke-linejoin="round"/>
<path d="M139.785 71.9228L148.175 69.8431" stroke="#263238" stroke-linecap="round" stroke-linejoin="round"/>
<path d="M146.018 69.6767L147.932 69.7599C147.932 69.7599 148.591 71.9228 146.601 72.1723" stroke="#263238" stroke-linecap="round" stroke-linejoin="round"/>
<path d="M137.557 172.408C137.557 172.408 145.281 177.286 146.642 177.286C148.003 177.286 148.68 178.511 148.003 178.647C147.326 178.784 143.119 178.915 140.278 179.051C137.438 179.188 135.525 178.915 133.903 178.915C132.28 178.915 130.373 179.051 129.559 178.647C128.745 178.243 130.106 173.626 130.106 172.812C130.106 171.998 136.606 171.861 137.557 172.408Z" fill="#263238" stroke="#263238" stroke-linecap="round" stroke-linejoin="round"/>
<path d="M147.516 177.488C144.515 178.475 139.649 177.827 136.725 177.56C134.414 177.352 130.783 177.304 129.303 177.292C129.244 177.988 129.303 178.516 129.535 178.647C130.349 179.051 132.251 178.915 133.879 178.915C135.507 178.915 137.402 179.188 140.255 179.051C143.107 178.915 147.308 178.778 147.979 178.647C148.508 178.54 148.258 177.839 147.516 177.488Z" fill="white" stroke="#263238" stroke-linecap="round" stroke-linejoin="round"/>
<path d="M143.659 138.895L137.563 169.467L138.834 172.64C137.922 173.961 136.545 174.89 134.978 175.242C133.236 175.585 131.465 175.768 129.69 175.789C129.69 175.789 129.012 172.396 129.422 171.986C129.832 171.576 129.963 169.954 129.963 169.954L133.487 139.163L143.659 138.895Z" fill="#6DB32F" stroke="#263238" stroke-linecap="round" stroke-linejoin="round"/>
<path d="M162.24 171.374C162.24 171.374 166.994 175.308 169.163 175.985C171.331 176.663 173.637 177.34 173.637 178.017C173.637 178.695 168.485 179.372 164.552 178.968C160.618 178.564 154.646 176.799 153.291 176.799C151.937 176.799 152.204 173.27 152.204 172.729C152.204 172.188 158.853 167.845 162.24 171.374Z" fill="#263238" stroke="#263238" stroke-linecap="round" stroke-linejoin="round"/>
<path d="M173.661 178.017C173.661 177.774 173.358 177.53 172.876 177.286C168.994 177.806 165.057 177.778 161.182 177.203C157.279 176.645 154.01 175.896 152.341 175.48C152.483 176.211 152.763 176.799 153.315 176.799C154.67 176.799 160.642 178.582 164.575 178.968C168.509 179.354 173.661 178.695 173.661 178.017Z" fill="white" stroke="#263238" stroke-linecap="round" stroke-linejoin="round"/>
<path d="M138.644 125.193C142.712 124.882 146.8 124.973 150.849 125.466C157.766 126.28 173.221 127.249 173.488 128.996C173.756 130.743 161.497 167.458 161.497 168.403C161.497 169.348 162.579 170.305 162.852 170.845C163.025 171.231 163.117 171.647 163.125 172.069C163.125 172.069 159.804 175.635 157.225 176.603C154.646 177.572 152.471 176.663 151.937 176.663C151.402 176.663 151.396 173.002 151.806 171.237C152.216 169.473 152.887 164.998 153.024 164.594C153.161 164.19 160.588 138.081 160.588 138.081C160.588 138.081 140.385 141.337 128.317 139.977C116.249 138.616 115.025 136.726 114.348 133.874C113.67 131.022 115.025 125.33 115.025 125.33L138.644 125.193Z" fill="#6DB32F" stroke="#263238" stroke-linecap="round" stroke-linejoin="round"/>
<path d="M137.117 133.981C136.843 134.378 136.537 134.751 136.202 135.098" stroke="#263238" stroke-linecap="round" stroke-linejoin="round"/>
<path d="M140.813 126.684C140.034 128.637 139.135 130.54 138.121 132.383" stroke="#263238" stroke-linecap="round" stroke-linejoin="round"/>
<path d="M139.197 128.045C137.56 130.745 135.082 132.833 132.144 133.987" stroke="#263238" stroke-linecap="round" stroke-linejoin="round"/>
<path d="M169.988 135.532C170.452 135.354 170.898 135.17 171.319 134.979L169.988 135.532Z" fill="white"/>
<path d="M169.988 135.532C170.452 135.354 170.898 135.17 171.319 134.979" stroke="#263238" stroke-linecap="round" stroke-linejoin="round"/>
<path d="M160.588 138.081C163.198 137.577 165.777 136.924 168.313 136.126L160.588 138.081Z" fill="white"/>
<path d="M160.588 138.081C163.198 137.577 165.777 136.924 168.313 136.126" stroke="#263238" stroke-linecap="round" stroke-linejoin="round"/>
<path d="M176.269 93.0347C176.554 91.8998 177.03 91.9889 176.649 91.6146C176.126 91.0917 175.705 91.7097 174.189 92.5594C172.674 93.4091 171.165 94.4489 171.165 94.4489C171.198 94.1336 171.329 93.8365 171.539 93.5992C171.922 92.9727 172.128 92.2538 172.133 91.5195C172.133 90.9253 171.658 91.0441 171.468 91.6146C171.278 92.185 169.578 93.2189 169.483 93.6943C169.388 94.1696 169.05 96.0354 169.05 96.0354C168.509 96.8495 168.509 100.646 168.509 100.646L157.498 108.918L151.937 115.454C151.937 115.454 154.379 119.388 155.733 118.847C157.088 118.306 157.766 117.759 161.022 115.044C163.779 112.744 170.689 102.138 170.689 102.138C171.893 101.382 173.032 100.527 174.094 99.5828C175.32 98.1965 176.044 96.4387 176.15 94.5915C176.125 94.0697 176.165 93.5467 176.269 93.0347Z" fill="white" stroke="#263238" stroke-linecap="round" stroke-linejoin="round"/>
<path d="M125.322 80.4852C125.322 80.4852 126.368 76.5634 130.813 77.3478C135.257 78.1321 138.656 81.7924 139.441 83.0997C140.225 84.4069 125.061 82.5768 125.061 82.5768L125.322 80.4852Z" fill="white" stroke="#263238" stroke-linecap="round" stroke-linejoin="round"/>
<path d="M150.944 114.735C150.944 114.735 149.91 115.852 150.944 117.611C151.651 118.829 152.899 119.762 155.288 119.352C157.522 118.96 160.879 113.41 160.879 109.506C160.879 105.602 158.003 105.347 156.958 106.107C155.912 106.868 150.944 114.735 150.944 114.735Z" fill="white" stroke="#263238" stroke-linecap="round" stroke-linejoin="round"/>
<path d="M127.248 80.0277C127.248 80.0277 116.671 85.0487 115.179 85.9697C113.688 86.8907 112.737 98.7153 112.737 100.753C112.737 102.791 114.229 122.739 114.633 126.114C115.037 129.489 128.062 131.812 132.405 130.588C136.749 129.364 140.98 126.28 140.98 125.193C140.98 124.105 140.57 114.889 140.843 113.125C141.116 111.36 143.552 103.903 143.552 103.903L150.956 115.715C150.956 115.715 151.735 117.165 154.486 116.024C158.419 114.396 158.746 108.104 158.746 108.104C158.746 108.104 154.408 100.51 153.184 96.7128C151.96 92.9159 151.402 90.0637 150.879 89.3863C150.356 88.7089 138.127 83.0106 135.959 81.5191C134.731 80.5942 133.299 79.9763 131.784 79.7168C130.269 79.4574 128.713 79.5639 127.248 80.0277Z" fill="white" stroke="#263238" stroke-linecap="round" stroke-linejoin="round"/>
<path d="M143.523 103.903L139.999 98.745" stroke="#263238" stroke-linecap="round" stroke-linejoin="round"/>
<path d="M142.952 103.166L136.743 100.106" stroke="#263238" stroke-linecap="round" stroke-linejoin="round"/>
<path d="M124.55 142.068L129.969 180.584C129.982 180.674 130.012 180.759 130.06 180.836C130.107 180.912 130.17 180.978 130.245 181.029C130.319 181.08 130.403 181.115 130.492 181.131C130.581 181.148 130.672 181.146 130.759 181.125C130.912 181.087 131.045 180.997 131.137 180.869C131.228 180.742 131.272 180.586 131.258 180.43L127.438 141.432L124.55 142.068Z" fill="#263238" stroke="#263238" stroke-linecap="round" stroke-linejoin="round"/>
<path d="M108.982 142.371L99.9261 180.198C99.9054 180.286 99.9033 180.377 99.9198 180.465C99.9363 180.554 99.9711 180.638 100.022 180.713C100.073 180.787 100.139 180.85 100.215 180.897C100.292 180.945 100.378 180.976 100.467 180.988C100.622 181.011 100.78 180.977 100.911 180.892C101.043 180.806 101.138 180.676 101.18 180.525L111.697 143.815L108.982 142.371Z" fill="#263238" stroke="#263238" stroke-linecap="round" stroke-linejoin="round"/>
<path d="M125.429 141.902L119.665 180.364C119.652 180.453 119.657 180.543 119.68 180.63C119.703 180.717 119.744 180.798 119.8 180.868C119.856 180.938 119.925 180.996 120.004 181.038C120.083 181.08 120.17 181.106 120.26 181.113C120.416 181.122 120.57 181.073 120.693 180.977C120.817 180.881 120.901 180.744 120.931 180.59L128.246 143.108L125.429 141.902Z" fill="#263238" stroke="#263238" stroke-linecap="round" stroke-linejoin="round"/>
<path d="M145.834 142.068L151.253 180.584C151.266 180.674 151.297 180.759 151.344 180.836C151.392 180.912 151.455 180.978 151.529 181.029C151.603 181.08 151.687 181.115 151.776 181.131C151.865 181.148 151.956 181.146 152.044 181.125C152.196 181.087 152.33 180.997 152.421 180.869C152.513 180.742 152.556 180.586 152.543 180.43L148.704 141.421L145.834 142.068Z" fill="#263238" stroke="#263238" stroke-linecap="round" stroke-linejoin="round"/>
<path d="M100.407 102.096L107.003 144.98H153.909C153.909 144.98 154.604 132.62 152.537 128.253C150.469 123.886 124.936 133.25 124.015 133.007C123.332 132.834 124.342 110.694 125.596 102.043C125.683 101.434 125.639 100.813 125.466 100.223C125.293 99.6322 124.994 99.086 124.591 98.621C124.188 98.156 123.69 97.7832 123.13 97.5278C122.571 97.2723 121.962 97.1403 121.347 97.1406H104.65C104.03 97.14 103.417 97.2738 102.854 97.5327C102.29 97.7917 101.79 98.1697 101.387 98.6407C100.983 99.1117 100.687 99.6645 100.518 100.261C100.349 100.858 100.311 101.484 100.407 102.096Z" fill="#6DB32F" stroke="#263238" stroke-linecap="round" stroke-linejoin="round"/>
<path d="M152.537 128.253C150.469 123.886 124.936 133.25 124.015 133.007C123.332 132.834 124.342 110.694 125.596 102.043C125.705 101.442 125.681 100.824 125.525 100.233C125.368 99.6419 125.084 99.0928 124.691 98.6245C124.298 98.1562 123.807 97.7801 123.253 97.5232C122.698 97.2662 122.094 97.1346 121.482 97.1377C120.871 97.1408 120.268 97.2786 119.716 97.5412C119.165 97.8038 118.677 98.1848 118.289 98.657C117.902 99.1293 117.622 99.6813 117.472 100.274C117.322 100.866 117.304 101.484 117.419 102.084L124.015 144.968H153.909C153.909 144.968 154.605 132.62 152.537 128.253Z" fill="#263238" stroke="#263238" stroke-linecap="round" stroke-linejoin="round"/>
<path d="M176.269 93.0347C176.269 93.0347 175.514 93.7893 174.38 95.1144L176.269 93.0347Z" fill="white"/>
<path d="M176.269 93.0347C176.269 93.0347 175.514 93.7893 174.38 95.1144" stroke="#263238" stroke-linecap="round" stroke-linejoin="round"/>
<path d="M176.15 94.5677C176.15 94.5677 175.229 96.4395 174.665 97.2892L176.15 94.5677Z" fill="white"/>
<path d="M176.15 94.5677C176.15 94.5677 175.229 96.4395 174.665 97.2892" stroke="#263238" stroke-linecap="round" stroke-linejoin="round"/>
<path d="M49.0922 116.244C50.0785 116.672 52.485 116.618 52.491 116.618C52.4969 116.618 51.974 115.044 51.9265 114.949C51.3977 113.838 49.722 112.013 48.3613 112.198C48.136 112.234 47.9211 112.318 47.7304 112.444C47.5398 112.569 47.3777 112.733 47.2549 112.926C47.1321 113.118 47.0513 113.334 47.0177 113.56C46.9841 113.786 46.9985 114.016 47.06 114.236C47.2858 115.175 48.2484 115.876 49.0922 116.244Z" fill="#263238"/>
<path d="M80.6739 108.038C79.3072 107.89 77.7029 109.761 77.1859 110.884C77.1443 110.979 76.6452 112.572 76.669 112.572C76.4075 112.863 76.1342 113.166 75.843 113.535C75.3082 114.188 74.714 114.937 74.1139 115.793C73.4675 116.71 72.8724 117.662 72.3313 118.645C71.7214 119.747 71.2085 120.9 70.7983 122.091C70.8008 122.105 70.8008 122.119 70.7983 122.133C70.7983 121.735 70.7983 120.606 70.7983 120.522C70.6378 119.304 69.6099 117.046 68.267 116.797C68.0432 116.761 67.8144 116.772 67.5953 116.829C67.3762 116.887 67.1715 116.99 66.9946 117.132C66.8177 117.273 66.6725 117.451 66.5682 117.652C66.4639 117.853 66.403 118.074 66.3893 118.3C66.3061 119.269 66.9835 120.237 67.6906 120.843C68.4631 121.532 70.6022 122.198 70.7745 122.251C70.386 123.487 70.0842 124.747 69.8713 126.025C69.7346 126.761 69.6277 127.504 69.5267 128.253C69.5267 127.902 69.5267 127.593 69.5267 127.552C69.3722 126.334 68.3383 124.076 67.0013 123.826C66.7758 123.791 66.5455 123.803 66.3252 123.863C66.1048 123.922 65.8995 124.028 65.7224 124.172C65.5454 124.316 65.4006 124.495 65.2974 124.699C65.1943 124.902 65.1351 125.125 65.1236 125.353C65.0464 126.322 65.7178 127.29 66.4309 127.902C67.1439 128.514 68.9325 129.126 69.4019 129.275C69.3662 129.566 69.3246 129.869 69.289 130.137C69.1286 131.515 68.9681 132.894 68.772 134.236C68.7007 134.712 68.6175 135.175 68.5344 135.639C68.5344 135.33 68.5344 135.074 68.5344 135.045C68.3739 133.826 67.346 131.569 66.0031 131.319C65.7776 131.285 65.5473 131.298 65.3273 131.358C65.1073 131.419 64.9025 131.524 64.726 131.669C64.5495 131.813 64.4054 131.993 64.303 132.197C64.2005 132.401 64.142 132.624 64.1313 132.852C64.0541 133.815 64.7255 134.783 65.4386 135.395C66.3258 135.982 67.2977 136.429 68.3204 136.72C68.2194 137.196 68.1184 137.665 67.9996 138.123C67.9104 138.432 67.851 138.717 67.7441 139.038C67.6371 139.359 67.548 139.632 67.4529 139.941C67.2449 140.505 67.037 141.094 66.8231 141.64C66.6745 142.026 66.526 142.389 66.3833 142.751C66.4547 142.282 66.5794 141.355 66.5854 141.278C66.5686 140.198 66.2761 139.141 65.7357 138.206C65.7504 138.087 65.7504 137.968 65.7357 137.849C65.7087 137.621 65.6334 137.4 65.5147 137.203C65.396 137.005 65.2366 136.836 65.0472 136.705C64.8577 136.574 64.6426 136.485 64.416 136.443C64.1895 136.402 63.9567 136.409 63.7332 136.465C62.4022 136.815 61.5644 139.145 61.499 140.369C61.499 140.44 61.5466 141.23 61.5822 141.729C61.5168 141.438 61.4515 141.135 61.3802 140.862C61.2435 140.268 61.0831 139.673 60.9226 139.079C60.8276 138.776 60.7384 138.485 60.6434 138.17C60.5483 137.855 60.4295 137.576 60.3225 137.243C60.0611 136.524 59.764 135.811 59.4431 135.098C59.9541 134.973 61.7723 134.504 62.5032 133.951C63.2341 133.399 64.0006 132.478 63.9947 131.509C64.0017 131.278 63.9595 131.049 63.8707 130.836C63.782 130.623 63.6488 130.431 63.4801 130.274C63.3114 130.116 63.111 129.996 62.8923 129.923C62.6736 129.849 62.4417 129.822 62.2121 129.845C60.8454 129.994 59.657 132.169 59.4134 133.369C59.4134 133.446 59.3124 134.326 59.2767 134.813C59.0866 134.385 58.8905 133.957 58.6825 133.529C58.0883 132.305 57.4109 131.075 56.7632 129.851L56.169 128.722C56.3532 128.681 58.5458 128.182 59.3421 127.534C60.1383 126.886 60.8395 126.066 60.8335 125.092C60.8396 124.861 60.7967 124.632 60.7076 124.42C60.6186 124.207 60.4854 124.016 60.3169 123.858C60.1483 123.701 59.9484 123.581 59.7301 123.507C59.5119 123.433 59.2804 123.406 59.0509 123.428C57.6842 123.577 56.5018 125.751 56.2522 126.952C56.2522 127.047 56.1156 128.312 56.1037 128.639C55.6758 127.813 55.254 126.981 54.8737 126.149C54.3516 125.025 53.903 123.868 53.5308 122.685C53.614 122.685 55.9076 122.15 56.7276 121.497C57.4525 120.938 58.225 120.023 58.2131 119.055C58.2201 118.824 58.1779 118.594 58.0892 118.381C58.0004 118.168 57.8672 117.977 57.6985 117.819C57.5298 117.662 57.3294 117.542 57.1107 117.468C56.8921 117.394 56.6601 117.368 56.4305 117.391C55.0638 117.539 53.8814 119.714 53.6318 120.915C53.6318 121.01 53.4892 122.376 53.4832 122.626C53.4832 122.555 53.4357 122.489 53.4119 122.418C53.0742 121.222 52.8416 120 52.7167 118.764C52.6454 118.08 52.6098 117.427 52.586 116.785C53.0198 116.731 54.9628 116.47 55.8125 115.977C56.6622 115.484 57.4644 114.675 57.5951 113.713C57.626 113.487 57.6091 113.257 57.5454 113.038C57.4816 112.818 57.3726 112.615 57.2252 112.441C57.0779 112.267 56.8955 112.125 56.69 112.026C56.4845 111.927 56.2605 111.872 56.0324 111.865C54.6538 111.865 53.2396 113.897 52.8593 115.062C52.8593 115.127 52.7048 115.793 52.6098 116.28C52.6098 115.995 52.6098 115.686 52.6098 115.418C52.6098 114.378 52.6751 113.428 52.7405 112.59C52.7821 112.108 52.8296 111.675 52.8772 111.271C53.2753 110.997 54.8618 109.88 55.349 109.078C55.8363 108.276 56.2166 107.165 55.8601 106.262C55.7835 106.047 55.6626 105.851 55.5054 105.686C55.3481 105.522 55.1578 105.392 54.9471 105.306C54.7363 105.219 54.5098 105.178 54.2821 105.185C54.0545 105.192 53.8309 105.247 53.6259 105.346C52.4018 105.976 52.0809 108.43 52.283 109.643C52.283 109.744 52.7643 111.348 52.7821 111.336C52.7286 111.722 52.6751 112.138 52.6276 112.596C52.5444 113.439 52.4612 114.378 52.4315 115.436C52.3957 116.558 52.4235 117.681 52.5147 118.799C52.6022 120.054 52.8011 121.299 53.1089 122.519C53.1115 122.533 53.1115 122.547 53.1089 122.56C52.895 122.222 52.2592 121.295 52.1998 121.229C51.3976 120.302 49.3001 118.977 48.0404 119.518C47.8327 119.612 47.6472 119.749 47.496 119.92C47.3447 120.091 47.2312 120.291 47.1628 120.509C47.0944 120.726 47.0727 120.956 47.099 121.183C47.1253 121.409 47.199 121.628 47.3154 121.824C47.7849 122.673 48.902 123.095 49.8111 123.226C50.8331 123.375 52.9841 122.751 53.1564 122.703C53.5099 123.935 53.9446 125.142 54.4577 126.316C54.7548 126.999 55.0519 127.682 55.4025 128.36C55.2064 128.069 55.0282 127.813 55.0044 127.766C54.2022 126.839 52.1047 125.514 50.845 126.054C50.6408 126.158 50.461 126.305 50.3173 126.483C50.1737 126.662 50.0696 126.869 50.0117 127.09C49.9539 127.312 49.9437 127.544 49.9819 127.77C50.02 127.996 50.1056 128.211 50.233 128.401C50.6964 129.251 51.8195 129.673 52.7227 129.804C53.6259 129.934 55.4857 129.447 55.9729 129.305C56.1037 129.566 56.2285 129.828 56.3592 130.083C56.9534 131.325 57.6129 132.561 58.1893 133.791C58.3913 134.225 58.5755 134.658 58.7835 135.092L58.4329 134.593C57.6308 133.666 55.5332 132.347 54.2735 132.882C54.0662 132.977 53.8811 133.115 53.7305 133.287C53.5799 133.458 53.467 133.659 53.3992 133.877C53.3314 134.095 53.3102 134.325 53.337 134.552C53.3637 134.778 53.4379 134.997 53.5546 135.193C54.024 136.043 55.1411 136.465 56.0443 136.595C57.118 136.6 58.1861 136.439 59.2113 136.12C59.3896 136.572 59.5679 137.023 59.7164 137.463C59.8174 137.772 59.9303 138.057 60.0076 138.372C60.0848 138.687 60.1799 138.966 60.2631 139.287C60.4057 139.881 60.5542 140.476 60.679 141.07C60.7682 141.468 60.8454 141.854 60.9226 142.258C60.7206 141.824 60.3284 140.981 60.275 140.915C59.6213 139.875 57.7496 138.253 56.4186 138.592C56.1996 138.655 55.9963 138.764 55.8219 138.911C55.6474 139.057 55.5058 139.239 55.4061 139.444C55.3064 139.649 55.2508 139.873 55.2431 140.101C55.2353 140.328 55.2754 140.555 55.3609 140.767C55.6937 141.676 56.7335 142.264 57.607 142.549C58.5755 142.841 60.7087 142.549 60.9761 142.549C61.1068 143.185 61.2197 143.809 61.3267 144.397C61.6832 146.435 61.9209 148.153 62.0457 149.347C62.0457 149.561 62.0932 149.751 62.111 149.941H57.9516L59.4609 179.396H66.5081L68.0174 149.941H64.161L64.2502 149.769C64.779 148.664 65.5099 147.083 66.3002 145.146C66.5557 144.552 66.8112 143.88 67.0667 143.203C67.3281 143.256 69.4435 143.684 70.4239 143.458C71.3212 143.256 72.4026 142.751 72.8007 141.872C72.9023 141.668 72.9596 141.444 72.9689 141.216C72.9782 140.988 72.9392 140.76 72.8545 140.548C72.7698 140.336 72.6413 140.145 72.4774 139.986C72.3135 139.827 72.118 139.704 71.9035 139.626C70.6022 139.186 68.6175 140.666 67.8867 141.652C67.8451 141.712 67.447 142.395 67.2033 142.841L67.5183 142.009C67.7262 141.444 67.9164 140.868 68.1125 140.256L68.3799 139.347C68.4809 139.044 68.5462 138.717 68.6294 138.396C68.8017 137.653 68.9444 136.893 69.0751 136.12C69.5683 136.298 71.3449 136.916 72.26 136.851C73.1751 136.786 74.3219 136.453 74.8507 135.663C74.9848 135.475 75.0774 135.261 75.1226 135.035C75.1678 134.809 75.1644 134.576 75.1127 134.351C75.0611 134.126 74.9622 133.915 74.8228 133.732C74.6834 133.548 74.5066 133.396 74.304 133.286C73.1156 132.692 70.8933 133.821 70.0258 134.682C69.9723 134.742 69.4316 135.431 69.1226 135.817C69.1939 135.354 69.2652 134.89 69.3246 134.415C69.497 133.054 69.6217 131.67 69.7584 130.291C69.8 129.869 69.8475 129.447 69.8891 129.025C70.0674 129.091 72.159 129.869 73.1869 129.798C74.0961 129.732 75.2429 129.4 75.7717 128.609C75.9058 128.422 75.9985 128.208 76.0436 127.982C76.0888 127.756 76.0854 127.523 76.0338 127.298C75.9821 127.073 75.8833 126.862 75.7438 126.678C75.6044 126.495 75.4276 126.343 75.2251 126.233C74.0367 125.609 71.8203 126.767 70.9468 127.629C70.8814 127.694 70.0852 128.693 69.8951 128.954C69.9961 128.027 70.103 127.106 70.2457 126.197C70.4286 124.973 70.6926 123.762 71.0359 122.572C71.1191 122.572 73.2939 123.422 74.3516 123.351C75.2607 123.285 76.4075 122.947 76.9364 122.162C77.0714 121.975 77.1648 121.761 77.2105 121.535C77.2562 121.309 77.2531 121.075 77.2014 120.85C77.1496 120.625 77.0504 120.414 76.9105 120.23C76.7705 120.047 76.5929 119.895 76.3897 119.786C75.2013 119.156 72.9849 120.314 72.1114 121.182C72.0461 121.247 71.1904 122.323 71.0478 122.525L71.1013 122.317C71.4786 121.132 71.9598 119.983 72.5393 118.882C72.8542 118.288 73.1869 117.694 73.5197 117.159C73.9119 117.355 75.7064 118.229 76.6571 118.264C77.6078 118.3 78.7487 118.092 79.3666 117.343C79.5135 117.173 79.6232 116.973 79.6888 116.758C79.7544 116.542 79.7744 116.316 79.7475 116.092C79.7207 115.869 79.6476 115.653 79.5329 115.459C79.4183 115.265 79.2645 115.098 79.0814 114.967C77.9346 114.206 75.6351 115.115 74.6784 115.882C74.6249 115.923 74.1377 116.405 73.793 116.761C73.9475 116.517 74.102 116.262 74.2565 116.036C74.8507 115.169 75.4093 114.414 75.9322 113.743C76.2293 113.368 76.5264 113.035 76.77 112.726C77.2513 112.726 79.1943 112.655 80.044 112.257C80.8937 111.859 81.8266 111.14 82.0227 110.195C82.1049 109.965 82.1338 109.719 82.1074 109.475C82.081 109.232 81.9999 108.998 81.8701 108.79C81.7404 108.583 81.5654 108.407 81.3582 108.277C81.151 108.147 80.9171 108.065 80.6739 108.038ZM65.5515 144.73C64.7255 146.632 63.965 148.182 63.4242 149.258L63.1212 149.852H63.0321C63.0321 149.644 62.9726 149.412 62.937 149.157C62.7706 147.968 62.5092 146.222 62.0992 144.172C61.9744 143.524 61.8258 142.835 61.6654 142.127C62.3076 141.868 62.9345 141.573 63.5431 141.242C64.3697 141.96 65.2915 142.56 66.2823 143.025C66.0387 143.601 65.7891 144.183 65.5515 144.73Z" fill="#263238"/>
<path d="M73.4781 116.773C73.4781 116.773 73.9178 115.175 73.9297 115.068C74.102 113.85 73.7158 111.407 72.4739 110.807C72.2676 110.715 72.0443 110.667 71.8182 110.665C71.5921 110.664 71.3683 110.71 71.1609 110.8C70.9535 110.89 70.7672 111.022 70.6137 111.188C70.4602 111.354 70.343 111.55 70.2694 111.764C69.9367 112.673 70.3586 113.79 70.8636 114.563C71.4579 115.49 73.4781 116.773 73.4781 116.773Z" fill="#263238"/>
<path d="M297.213 179.253H55.5216V182.212H297.213V179.253Z" fill="#263238"/>
</svg>
